<?xml version="1.0" encoding="UTF-8"?>
<svg width="64px" height="64px" viewBox="0 0 64 64" version="1.1" xmlns="http://www.w3.org/2000/svg" xmlns:xlink="http://www.w3.org/1999/xlink">
    <title>Mov 3</title>
    <defs>
        <rect id="path-1" x="0" y="0" width="64" height="64"></rect>
    </defs>
    <g id="页面-1" stroke="none" stroke-width="1" fill="none" fill-rule="evenodd">
        <g id="icon" transform="translate(-1435.000000, -399.000000)">
            <g id="Mov-3" transform="translate(1435.000000, 399.000000)">
                <mask id="mask-2" fill="white">
                    <use xlink:href="#path-1"></use>
                </mask>
                <g id="路径"></g>
                <path d="M48.5439559,61.7599871 L15.4559566,61.7599871 C10.1759564,61.7599871 5.85595619,57.4079893 5.85595619,52.0959895 L5.85595619,11.903991 C5.85595619,6.59199118 10.1759564,2.23999046 15.4559566,2.23999046 L39.1359588,2.23999046 C41.6959587,2.23999046 44.0959587,3.42399048 45.6639587,5.40799045 L56.3199569,19.0399916 C57.4719568,20.5119916 58.1121334,22.3679917 58.1121334,24.2239916 L58.1121334,52.0959895 C58.1439567,57.4079893 53.8239561,61.7599871 48.5439559,61.7599871 L48.5439559,61.7599871 Z" id="路径" fill="#E9F6F3" fill-rule="nonzero" mask="url(#mask-2)"></path>
                <path d="M48.5439622,64 L15.455967,64 C8.92796755,64 3.61596764,58.6560006 3.61596764,52.0960007 L3.61596764,11.9040003 C3.61596764,5.34400034 8.92796755,0 15.455967,0 L39.1359657,0 C42.3999654,0 45.4079635,1.47200012 47.4239633,4.06400013 L58.0799647,17.6639996 C59.5519646,19.5199995 60.3521077,21.8560009 60.3521077,24.2240009 L60.3521077,52.0960007 C60.3839639,58.6560006 55.0719616,64 48.5439622,64 L48.5439622,64 Z M15.455967,4.51200008 C11.3919671,4.51200008 8.09596688,7.84000015 8.09596688,11.9040003 L8.09596688,52.0960007 C8.09596688,56.1920009 11.3919671,59.487999 15.455967,59.487999 L48.5119645,59.487999 C52.5759644,59.487999 55.8719646,56.1600008 55.8719646,52.0960007 L55.8719646,24.2240009 C55.8719646,22.8800009 55.4239644,21.5360004 54.5599645,20.4160004 L43.9039631,6.81599998 C42.7519633,5.34399998 40.9919655,4.51200008 39.1359657,4.51200008 L15.455967,4.51200008 L15.455967,4.51200008 Z" id="Vector" fill="#A3DBCC" mask="url(#mask-2)"></path>
                <path d="M46.3999744,46.0159946 L37.4079745,46.0159946 C42.271974,43.6799947 46.3999744,39.167997 46.3999744,33.4079967 C46.3999744,25.4719969 39.9359732,19.0079952 31.9999739,19.0079952 C24.0639745,19.0079952 17.5999752,25.4719969 17.5999752,33.4079967 C17.5999752,41.3439966 24.0639745,47.8079945 31.9999739,47.8079945 L46.3999744,47.8079945 L46.3999744,46.0159946 L46.3999744,46.0159946 Z M42.4319724,33.4079967 C42.4319724,35.5519968 40.6399741,37.3759953 38.4639741,37.3759953 C36.3199742,37.3759953 34.4959721,35.5839969 34.4959721,33.4079967 C34.4959721,31.2319966 36.2879742,29.4399963 38.4639741,29.4399963 C40.6399741,29.4399963 42.4319724,31.2639967 42.4319724,33.4079967 L42.4319724,33.4079967 Z M31.9999739,22.9759956 C34.1439738,22.9759956 35.9679721,24.7679959 35.9679721,26.943996 C35.9679721,29.0879961 34.1759738,30.9119965 31.9999739,30.9119965 C29.8239739,30.9119965 28.0319737,29.1199962 28.0319737,26.943996 C28.0319737,24.7679959 29.8239739,22.9759956 31.9999739,22.9759956 L31.9999739,22.9759956 Z M21.5359739,33.4079967 C21.5359739,31.2639967 23.327974,29.4399963 25.503974,29.4399963 C27.6479739,29.4399963 29.4719742,31.2319966 29.4719742,33.4079967 C29.4719742,35.5839969 27.679974,37.3759953 25.503974,37.3759953 C23.327974,37.3759953 21.5359739,35.5839969 21.5359739,33.4079967 L21.5359739,33.4079967 Z M28.0319737,39.9039951 C28.0319737,37.7599951 29.8239739,35.9359966 31.9999739,35.9359966 C34.1759738,35.9359966 35.9679721,37.727995 35.9679721,39.9039951 C35.9679721,42.0479952 34.1759738,43.8719975 31.9999739,43.8719975 C29.8239739,43.8719975 28.0319737,42.0479952 28.0319737,39.9039951 L28.0319737,39.9039951 Z" id="Vector" fill="#20A884" mask="url(#mask-2)"></path>
            </g>
        </g>
    </g>
</svg>