<?xml version="1.0" encoding="UTF-8"?>
<svg width="18px" height="18px" viewBox="0 0 18 18" version="1.1" xmlns="http://www.w3.org/2000/svg" xmlns:xlink="http://www.w3.org/1999/xlink">
    <title>Folder Down 3</title>
    <g id="pc端" stroke="none" stroke-width="1" fill="none" fill-rule="evenodd">
        <g id="icon" transform="translate(-135.000000, -378.000000)">
            <g id="Folder-Down-3" transform="translate(135.000000, 378.000000)">
                <path d="M0,0 L18,0 L18,18 L0,18 L0,0 Z" id="路径"></path>
                <path d="M3.58002882,14.7821466 L10.5200288,14.7821466 M1.78002882,12.9821466 C1.78002882,13.9763215 2.58573005,14.7821466 3.58002882,14.7821466 M1.78002882,6.14214661 L1.78002882,12.9821466 M1.78002882,3.77214661 C1.78002882,4.47909851 1.78002882,5.45666563 1.78002882,6.14214661 M2.68002882,2.87214661 C2.18274981,2.87214661 1.78002882,3.27492961 1.78002882,3.77214661 M6.97002882,2.87214661 L2.68002882,2.87214661 M9.46834633,5.23909501 L6.50795659,2.69023855 M15.2800288,5.09214661 L9.04002882,5.09214661 M16.1800288,5.99214661 C16.1800288,5.49506175 15.7771761,5.09214661 15.2800288,5.09214661 M16.1800288,8.38214661 L16.1800288,5.99214661 M13.9348421,15.5971494 L16.2200288,13.2921466 M12.6200288,13.3821466 L14.3800288,15.1321466 M14.3800288,10.6321466 L14.3800288,15.2015729" id="Icon" stroke="#999999" stroke-width="1.29999995" stroke-linejoin="round" stroke-dasharray="0,0"></path>
            </g>
        </g>
    </g>
</svg>