<?xml version="1.0" encoding="UTF-8"?>
<svg width="33px" height="32px" viewBox="0 0 33 32" version="1.1" xmlns="http://www.w3.org/2000/svg" xmlns:xlink="http://www.w3.org/1999/xlink">
    <title>Mp3 2</title>
    <defs>
        <rect id="path-1" x="0" y="0" width="32" height="32"></rect>
    </defs>
    <g id="pc端" stroke="none" stroke-width="1" fill="none" fill-rule="evenodd">
        <g id="icon" transform="translate(-1130.000000, -220.000000)">
            <g id="Mp3-2" transform="translate(1130.750000, 220.000000)">
                <mask id="mask-2" fill="white">
                    <use xlink:href="#path-1"></use>
                </mask>
                <g id="路径"></g>
                <path d="M24.3200126,30.8799936 L7.77601295,30.8799936 C5.13601285,30.8799936 2.97601276,28.7039946 2.97601276,26.0479947 L2.97601276,5.95199549 C2.97601276,3.29599559 5.13601285,1.11999523 7.77601295,1.11999523 L19.6160122,1.11999523 C20.8960121,1.11999523 22.0960121,1.71199524 22.8800121,2.70399522 L28.2080131,9.50399506 C28.7840131,10.2399951 29.1041013,11.1679951 29.1041013,12.0959951 L29.1041013,26.031994 C29.120013,28.7039939 26.9600127,30.8799936 24.3200126,30.8799936 L24.3200126,30.8799936 Z" id="路径" fill="#E6F7FD" fill-rule="nonzero" mask="url(#mask-2)"></path>
                <path d="M24.3200177,32 L7.77601816,32 C4.51201844,32 1.85601849,29.3280003 1.85601849,26.0480003 L1.85601849,5.95200014 C1.85601849,2.67200017 4.51201844,0 7.77601816,0 L19.6160156,0 C21.2480155,0 22.7520164,0.736000061 23.7600163,2.03200006 L29.0880151,8.83199978 C29.8240151,9.75999975 30.2240885,10.9280005 30.2240885,12.1120005 L30.2240885,26.0480003 C30.2400166,29.3280003 27.5840174,32 24.3200177,32 L24.3200177,32 Z M7.77601816,2.25600004 C5.74401824,2.25600004 4.09601858,3.92000008 4.09601858,5.95200014 L4.09601858,26.0480003 C4.09601858,28.0960004 5.74401824,29.7439995 7.77601816,29.7439995 L24.3040188,29.7439995 C26.3360188,29.7439995 27.9840151,28.0800004 27.9840151,26.0480003 L27.9840151,12.1120005 C27.9840151,11.4400005 27.7600169,10.7680002 27.3280169,10.2080002 L22.0000181,3.40799999 C21.4240182,2.67199999 20.5440155,2.25600004 19.6160156,2.25600004 L7.77601816,2.25600004 L7.77601816,2.25600004 Z" id="Vector" fill="#78CAFA" mask="url(#mask-2)"></path>
                <polygon id="路径-24" fill="#41BFFF" mask="url(#mask-2)" points="8.06652016 24 8.06652016 17.9027541 11.1740216 14.8806021 17.3310833 20.8609964 20.7862553 17.0541223 24.3213933 20.8609964 24.3213933 24"></polygon>
                <circle id="椭圆形" fill="#41BFFF" mask="url(#mask-2)" cx="21.9499176" cy="12.1875" r="2.1875"></circle>
            </g>
        </g>
    </g>
</svg>