<?xml version="1.0" encoding="UTF-8"?>
<svg width="33px" height="32px" viewBox="0 0 33 32" version="1.1" xmlns="http://www.w3.org/2000/svg" xmlns:xlink="http://www.w3.org/1999/xlink">
    <title>2pdf</title>
    <defs>
        <rect id="path-1" x="0" y="0" width="32" height="32"></rect>
    </defs>
    <g id="pc端" stroke="none" stroke-width="1" fill="none" fill-rule="evenodd">
        <g id="icon" transform="translate(-1471.000000, -220.000000)">
            <g id="PDF-3" transform="translate(1471.250000, 220.000000)">
                <mask id="mask-2" fill="white">
                    <use xlink:href="#path-1"></use>
                </mask>
                <g id="路径"></g>
                <path d="M24.271978,30.8799936 L7.72797829,30.8799936 C5.08797818,30.8799936 2.9279781,28.7039946 2.9279781,26.0479947 L2.9279781,5.95199549 C2.9279781,3.29599559 5.08797818,1.11999523 7.72797829,1.11999523 L19.5679794,1.11999523 C20.8479794,1.11999523 22.0479794,1.71199524 22.8319793,2.70399522 L28.1599784,9.5199958 C28.7359784,10.2559958 29.0560667,11.1839958 29.0560667,12.1119958 L29.0560667,26.0479947 C29.0719784,28.7039946 26.9119781,30.8799936 24.271978,30.8799936 L24.271978,30.8799936 Z" id="路径" fill="#FFEEEF" fill-rule="nonzero" mask="url(#mask-2)"></path>
                <path d="M24.2719811,32 L7.7279835,32 C4.46398378,32 1.80798382,29.3280003 1.80798382,26.0480003 L1.80798382,5.95200014 C1.80798382,2.67200017 4.46398378,0 7.7279835,0 L19.5679829,0 C21.1999827,0 22.7039817,0.736000061 23.7119817,2.03200006 L29.0399823,8.83199978 C29.7759823,9.75999975 30.1760539,10.9280005 30.1760539,12.1120005 L30.1760539,26.0480003 C30.1919819,29.3280003 27.5359808,32 24.2719811,32 L24.2719811,32 Z M7.7279835,2.25600004 C5.69598357,2.25600004 4.04798344,3.92000008 4.04798344,5.95200014 L4.04798344,26.0480003 C4.04798344,28.0960004 5.69598357,29.7439995 7.7279835,29.7439995 L24.2559823,29.7439995 C26.2879822,29.7439995 27.9359823,28.0800004 27.9359823,26.0480003 L27.9359823,12.1120005 C27.9359823,11.4400005 27.7119822,10.7680002 27.2799822,10.2080002 L21.9519816,3.40799999 C21.3759816,2.67199999 20.4959828,2.25600004 19.5679829,2.25600004 L7.7279835,2.25600004 L7.7279835,2.25600004 Z" id="Vector" fill="#FFB8BE" mask="url(#mask-2)"></path>
                <path d="M9.45602688,24.7679976 C9.13602689,24.7679976 8.84802661,24.639997 8.73602661,24.591997 C8.17602661,24.351997 7.8400267,23.8559971 7.8400267,23.2479971 C7.8400267,22.8639971 7.8400267,21.6639982 12.2400263,19.7599982 C13.2320263,17.9519982 14.0000264,16.1439978 14.5280264,14.3839978 C14.0320264,13.3279978 12.8320269,10.6719981 13.6800269,9.24799809 C13.9200269,8.75199809 14.5120266,8.44799789 15.1840266,8.44799789 C15.6800266,8.44799789 16.1440265,8.68799749 16.4480265,9.07199749 C17.0880265,9.96799752 17.008027,11.7599984 16.2560271,14.1119984 C16.8960271,15.2959984 17.7760257,16.4479979 18.8800257,17.551998 L19.008026,17.5359972 C19.904026,17.3919972 20.7360273,17.2479971 21.6480273,17.2479971 C22.7200273,17.2959971 23.4560274,17.5519975 23.8560275,18.0319975 C24.1600274,18.3999975 24.1760257,18.7999974 24.1440257,19.0079974 C24.1920257,19.4879973 24.0960267,19.871997 23.8400267,20.143997 C23.3600267,20.671997 22.464027,20.6719988 21.888027,20.6719988 C20.688027,20.5919988 19.5360264,20.1279971 18.5280264,19.3279971 C16.8480265,19.6959971 15.2000262,20.2079971 13.3600262,20.959997 C11.9520262,23.4879971 10.6400269,24.7679976 9.45602688,24.7679976 L9.45602688,24.7679976 Z M10.4960268,22.4159983 C10.3040268,22.5439983 10.144027,22.6879975 9.96802696,22.8479975 C10.176027,22.7359975 10.3360268,22.5919983 10.4960268,22.4159983 L10.4960268,22.4159983 Z M15.4880265,16.7199973 C15.1840265,17.5039972 14.8000268,18.3359983 14.3520268,19.2319983 C15.1840268,18.9599983 16.0320264,18.7199971 16.8960265,18.5119971 L16.7360266,18.3519972 L16.928026,18.3519972 C16.480026,17.8239972 16.0160264,17.2479988 15.5680264,16.6719988 L15.4880265,16.7199973 L15.4880265,16.7199973 Z M21.2800272,18.9279974 C21.4880272,18.9759974 21.712027,19.0079974 21.968027,19.0079974 L22.0000266,19.0079974 C22.0800265,19.0239974 22.1600263,19.0399989 22.2400263,19.0399989 C22.3200263,19.0399989 22.3840273,19.0399989 22.4640273,19.0239981 C22.3200273,18.9759981 22.0960264,18.9279974 21.7120264,18.9279974 L21.2800272,18.9279974 L21.2800272,18.9279974 Z M15.1680268,10.1279982 C15.0560268,10.6559982 15.0880269,11.1999976 15.2320269,11.7279976 C15.3280269,11.1999976 15.3120262,10.6559982 15.2160262,10.1279982 L15.1680268,10.1279982 L15.1680268,10.1279982 Z" id="Vector" fill="#FF5462" mask="url(#mask-2)"></path>
            </g>
        </g>
    </g>
</svg>