<?xml version="1.0" encoding="UTF-8"?>
<svg width="33px" height="32px" viewBox="0 0 33 32" version="1.1" xmlns="http://www.w3.org/2000/svg" xmlns:xlink="http://www.w3.org/1999/xlink">
    <title>PPT 2</title>
    <defs>
        <rect id="path-1" x="0" y="0" width="32" height="32"></rect>
    </defs>
    <g id="pc端" stroke="none" stroke-width="1" fill="none" fill-rule="evenodd">
        <g id="icon" transform="translate(-1414.000000, -220.000000)">
            <g id="PPT-2" transform="translate(1414.500000, 220.000000)">
                <mask id="mask-2" fill="white">
                    <use xlink:href="#path-1"></use>
                </mask>
                <g id="路径"></g>
                <path d="M24.271978,30.8799936 L7.72797829,30.8799936 C5.08797818,30.8799936 2.9279781,28.7039946 2.9279781,26.0479947 L2.9279781,5.95199549 C2.9279781,3.29599559 5.08797818,1.11999523 7.72797829,1.11999523 L19.5679794,1.11999523 C20.8479794,1.11999523 22.0479794,1.71199524 22.8319793,2.70399522 L28.1599784,9.5199958 C28.7359784,10.2559958 29.0560667,11.1839958 29.0560667,12.1119958 L29.0560667,26.0479947 C29.0719784,28.7039946 26.9119781,30.8799936 24.271978,30.8799936 L24.271978,30.8799936 Z" id="路径" fill="#FFF0EB" fill-rule="nonzero" mask="url(#mask-2)"></path>
                <path d="M24.2719811,32 L7.7279835,32 C4.46398378,32 1.80798382,29.3280003 1.80798382,26.0480003 L1.80798382,5.95200014 C1.80798382,2.67200017 4.46398378,0 7.7279835,0 L19.5679829,0 C21.1999827,0 22.7039817,0.736000061 23.7119817,2.03200006 L29.0399823,8.83199978 C29.7759823,9.75999975 30.1760539,10.9280005 30.1760539,12.1120005 L30.1760539,26.0480003 C30.1919819,29.3280003 27.5359808,32 24.2719811,32 L24.2719811,32 Z M7.7279835,2.25600004 C5.69598357,2.25600004 4.04798344,3.92000008 4.04798344,5.95200014 L4.04798344,26.0480003 C4.04798344,28.0960004 5.69598357,29.7439995 7.7279835,29.7439995 L24.2559823,29.7439995 C26.2879822,29.7439995 27.9359823,28.0800004 27.9359823,26.0480003 L27.9359823,12.1120005 C27.9359823,11.4400005 27.7119822,10.7680002 27.2799822,10.2080002 L21.9519816,3.40799999 C21.3759816,2.67199999 20.4959828,2.25600004 19.5679829,2.25600004 L7.7279835,2.25600004 L7.7279835,2.25600004 Z" id="Vector" fill="#FFC1AC" mask="url(#mask-2)"></path>
                <path d="M11.2319951,23.9999965 L11.2319951,10.5599969 L15.7759948,10.5599969 C19.6479947,10.5599969 21.0239949,11.7439959 21.0239949,15.071996 C21.0239949,18.5279961 19.6479947,19.7439959 15.7759948,19.7439959 L13.9199948,19.7439959 L13.9199948,23.9999965 L11.2319951,23.9999965 L11.2319951,23.9999965 Z M13.9199948,17.663996 L15.3599944,17.663996 C17.5199945,17.663996 18.2559953,17.0239969 18.2559953,15.1519969 C18.2559953,13.3119968 17.4719944,12.6399968 15.3599944,12.6399968 L13.9199948,12.6399968 L13.9199948,17.663996 L13.9199948,17.663996 Z" id="Vector" fill="#FF6A38" mask="url(#mask-2)"></path>
            </g>
        </g>
    </g>
</svg>