<?xml version="1.0" encoding="UTF-8"?>
<svg width="32px" height="32px" viewBox="0 0 32 32" version="1.1" xmlns="http://www.w3.org/2000/svg" xmlns:xlink="http://www.w3.org/1999/xlink">
    <title>其他2</title>
    <defs>
        <rect id="path-1" x="0" y="0" width="32" height="32"></rect>
    </defs>
    <g id="pc端" stroke="none" stroke-width="1" fill="none" fill-rule="evenodd">
        <g id="icon" transform="translate(-1528.000000, -220.000000)">
            <g id="其他" transform="translate(1528.000000, 220.000000)">
                <mask id="mask-2" fill="white">
                    <use xlink:href="#path-1"></use>
                </mask>
                <g id="路径"></g>
                <path d="M24.3200126,30.8799936 L7.77601295,30.8799936 C5.13601285,30.8799936 2.97601276,28.7039946 2.97601276,26.0479947 L2.97601276,5.95199549 C2.97601276,3.29599559 5.13601285,1.11999523 7.77601295,1.11999523 L19.6160122,1.11999523 C20.8960121,1.11999523 22.0960121,1.71199524 22.8800121,2.70399522 L28.2080131,9.50399506 C28.7840131,10.2399951 29.1041013,11.1679951 29.1041013,12.0959951 L29.1041013,26.031994 C29.120013,28.7039939 26.9600127,30.8799936 24.3200126,30.8799936 L24.3200126,30.8799936 Z" id="路径" fill="#E6FCFD" fill-rule="nonzero" mask="url(#mask-2)"></path>
                <path d="M24.4639992,32 L7.91999968,32 C4.65599996,32 2,29.3280003 2,26.0480003 L2,5.95200014 C2,2.67200017 4.65599996,0 7.91999968,0 L19.7599971,0 C21.391997,0 22.8959979,0.736000061 23.9039979,2.03200006 L29.2319966,8.83199978 C29.9679966,9.75999975 30.36807,10.9280005 30.36807,12.1120005 L30.36807,26.0480003 C30.3839981,29.3280003 27.7279989,32 24.4639992,32 L24.4639992,32 Z M7.91999968,2.25600004 C5.88799975,2.25600004 4.2400001,3.92000008 4.2400001,5.95200014 L4.2400001,26.0480003 C4.2400001,28.0960004 5.88799975,29.7439995 7.91999968,29.7439995 L24.4480004,29.7439995 C26.4800003,29.7439995 28.1279966,28.0800004 28.1279966,26.0480003 L28.1279966,12.1120005 C28.1279966,11.4400005 27.9039984,10.7680002 27.4719984,10.2080002 L22.1439997,3.40799999 C21.5679997,2.67199999 20.687997,2.25600004 19.7599971,2.25600004 L7.91999968,2.25600004 L7.91999968,2.25600004 Z" id="Vector" fill="#92EFEF" mask="url(#mask-2)"></path>
                <g id="问号" transform="translate(11.266672, 9.400000)" fill="#4EEAE2" fill-rule="nonzero">
                    <g id="编组-16">
                        <path d="M5.35713075,13.6666602 C5.03569612,13.8888867 4.82142521,14 4.39284571,14 C4.07141108,14 3.74999529,13.8888867 3.42856067,13.6666602 C3.10712604,13.4444531 3,13.1111133 3,12.6666602 C3,12.222207 3.10712604,12 3.42856067,11.6666602 C3.64285042,11.4444531 3.96428504,11.2222266 4.39284571,11.2222266 C4.82140637,11.2222266 5.03569612,11.3333398 5.35713075,11.6666602 C5.5714205,11.8888867 5.78571025,12.2222266 5.78571025,12.6666602 C5.78571025,13.1110937 5.5714205,13.4444531 5.35713075,13.6666602 Z" id="路径"></path>
                        <path d="M8.67856537,5 C8.46427562,5.44445312 8.24998587,5.77777344 7.92855125,6 C7.60713546,6.33333984 7.17855596,6.77777344 6.42856067,7.44445312 L5.89285512,8 C5.78569142,8.11111328 5.67856537,8.33333984 5.5714205,8.44445312 L5.5714205,8.77777344 C5.5714205,8.88890625 5.46427562,9.11111328 5.46427562,9.44445312 C5.35713075,10.1111133 5.03569612,10.4444531 4.39284571,10.4444531 C4.07141108,10.4444531 3.85714017,10.3333203 3.64285042,10.1111133 C3.42856067,9.88888672 3.32141579,9.55554687 3.32141579,9.22222656 C3.32141579,8.66666016 3.4285795,8.22222656 3.53570554,7.88888672 C3.64285042,7.55554687 3.85714017,7.22222656 4.17855596,6.88888672 C4.39284571,6.55554687 4.82142521,6.22222656 5.25000471,5.88888672 C5.67856537,5.55554687 5.89285512,5.33333984 6.10712604,5.11111328 C6.32139696,4.88888672 6.42856067,4.77777344 6.53570554,4.55554687 C6.64285042,4.33333984 6.74999529,4.11111328 6.74999529,3.88888672 C6.74999529,3.44445312 6.53570554,3 6.21427092,2.66666016 C5.89285512,2.33333984 5.35714958,2.11111328 4.82142521,2.11111328 C3.96428504,1.88888672 3.42856067,2.11111328 3.21427092,2.44445312 C2.89285512,2.77777344 2.5714205,3.33332031 2.35714958,4 C2.142841,4.66666016 1.82142521,5 1.17855596,5 C0.857140167,5 0.535705542,4.88888672 0.321434625,4.66666016 C0.107144875,4.44445312 0,4.11111328 0,3.88888672 C0,3.33333984 0.214270916,2.66666016 0.535705542,2.11111328 C0.857140167,1.55556641 1.39284571,1 2.142841,0.555546875 C2.89285512,0.111132812 3.64286925,0 4.60715429,0 C5.46429446,0 6.21428975,0.111113281 6.857159,0.444453125 C7.5,0.777773437 8.03571496,1.22222656 8.35714958,1.77777344 C8.78572908,2.33333984 9,3 9,3.66666016 C9,4.22222656 8.89285512,4.66666016 8.67858421,5 L8.67856537,5 Z" id="路径"></path>
                    </g>
                </g>
            </g>
        </g>
    </g>
</svg>