<?xml version="1.0" encoding="UTF-8"?>
<svg width="33px" height="32px" viewBox="0 0 33 32" version="1.1" xmlns="http://www.w3.org/2000/svg" xmlns:xlink="http://www.w3.org/1999/xlink">
    <title>2excel</title>
    <defs>
        <rect id="path-1" x="0" y="0" width="32" height="32"></rect>
    </defs>
    <g id="pc端" stroke="none" stroke-width="1" fill="none" fill-rule="evenodd">
        <g id="icon" transform="translate(-1357.000000, -220.000000)">
            <g id="编组-18" transform="translate(1357.750000, 220.000000)">
                <mask id="mask-2" fill="white">
                    <use xlink:href="#path-1"></use>
                </mask>
                <g id="路径"></g>
                <path d="M24.2513444,30.8030055 L7.74860117,30.8030055 C5.11518476,30.8030055 2.96057102,28.6483927 2.96057102,25.9990161 L2.96057102,6.00101215 C2.96057102,3.36759574 5.11518476,1.19702179 7.74860117,1.19702179 L19.559076,1.19702179 C20.8358841,1.19702179 22.0328905,1.78754557 22.8149354,2.77707178 L28.1296479,9.54415447 C28.7042116,10.2783191 29.0235024,11.188045 29.0235024,12.1137307 L29.0235024,25.9830554 C29.0393744,28.6324321 26.8847608,30.8030055 24.2513444,30.8030055 L24.2513444,30.8030055 Z" id="路径" fill="#E6FFE8" fill-rule="nonzero"></path>
                <path d="M24.2513634,32 L7.74862061,32 C4.49276028,32 1.84338341,29.3346632 1.84338341,26.0468826 L1.84338341,5.95311737 C1.84338341,2.66533685 4.49276028,0 7.74862061,0 L19.559095,0 C21.1870252,0 22.6872738,0.734164596 23.6927601,2.02693272 L29.0074726,8.82593536 C29.7416372,9.75162113 30.1407116,10.9167086 30.1407116,12.1137161 L30.1407116,26.0628433 C30.1566,29.3346639 27.5072237,32 24.2513634,32 L24.2513634,32 Z M7.74862061,2.25037408 C5.72168789,2.25037408 4.07779751,3.91022468 4.07779751,5.95311737 L4.07779751,26.0468826 C4.07779751,28.0897753 5.72168789,29.7496262 7.74862061,29.7496262 L24.2354027,29.7496262 C26.2623354,29.7496262 27.9062267,28.0897753 27.9062267,26.0468826 L27.9062267,12.1137161 C27.9062267,11.4433919 27.6827858,10.7571076 27.2518631,10.2144642 L21.9371487,3.4154613 C21.362585,2.68129671 20.4847808,2.25037408 19.559095,2.25037408 L7.74862061,2.25037408 L7.74862061,2.25037408 Z" id="Vector" fill="#A0E1C3"></path>
                <polygon id="路径-23" fill="#19C076" points="12 10 20.4677063 10 20.4677063 12.3588292 14.7173361 12.3588292 14.7173361 14.9761067 20.4677063 14.9761067 20.4677063 17.2104223 14.7173361 17.2104223 14.7173361 19.6750671 20.4677063 19.6750671 20.4677063 22 12 22"></polygon>
            </g>
        </g>
    </g>
</svg>