<?xml version="1.0" encoding="UTF-8"?>
<svg width="33px" height="32px" viewBox="0 0 33 32" version="1.1" xmlns="http://www.w3.org/2000/svg" xmlns:xlink="http://www.w3.org/1999/xlink">
    <title>Mov 3</title>
    <defs>
        <rect id="path-1" x="0" y="0" width="32" height="32"></rect>
    </defs>
    <g id="pc端" stroke="none" stroke-width="1" fill="none" fill-rule="evenodd">
        <g id="icon" transform="translate(-1187.000000, -220.000000)">
            <g id="Mov-3" transform="translate(1187.500000, 220.000000)">
                <mask id="mask-2" fill="white">
                    <use xlink:href="#path-1"></use>
                </mask>
                <g id="路径"></g>
                <path d="M24.271978,30.8799936 L7.72797829,30.8799936 C5.08797818,30.8799936 2.9279781,28.7039946 2.9279781,26.0479947 L2.9279781,5.95199549 C2.9279781,3.29599559 5.08797818,1.11999523 7.72797829,1.11999523 L19.5679794,1.11999523 C20.8479794,1.11999523 22.0479794,1.71199524 22.8319793,2.70399522 L28.1599784,9.5199958 C28.7359784,10.2559958 29.0560667,11.1839958 29.0560667,12.1119958 L29.0560667,26.0479947 C29.0719784,28.7039946 26.9119781,30.8799936 24.271978,30.8799936 L24.271978,30.8799936 Z" id="路径" fill="#F6F3E9" fill-rule="nonzero" mask="url(#mask-2)"></path>
                <path d="M24.2719811,32 L7.7279835,32 C4.46398378,32 1.80798382,29.3280003 1.80798382,26.0480003 L1.80798382,5.95200014 C1.80798382,2.67200017 4.46398378,0 7.7279835,0 L19.5679829,0 C21.1999827,0 22.7039817,0.736000061 23.7119817,2.03200006 L29.0399823,8.83199978 C29.7759823,9.75999975 30.1760539,10.9280005 30.1760539,12.1120005 L30.1760539,26.0480003 C30.1919819,29.3280003 27.5359808,32 24.2719811,32 L24.2719811,32 Z M7.7279835,2.25600004 C5.69598357,2.25600004 4.04798344,3.92000008 4.04798344,5.95200014 L4.04798344,26.0480003 C4.04798344,28.0960004 5.69598357,29.7439995 7.7279835,29.7439995 L24.2559823,29.7439995 C26.2879822,29.7439995 27.9359823,28.0800004 27.9359823,26.0480003 L27.9359823,12.1120005 C27.9359823,11.4400005 27.7119822,10.7680002 27.2799822,10.2080002 L21.9519816,3.40799999 C21.3759816,2.67199999 20.4959828,2.25600004 19.5679829,2.25600004 L7.7279835,2.25600004 L7.7279835,2.25600004 Z" id="Vector" fill="#FBD56C" mask="url(#mask-2)"></path>
                <path d="M23.1999872,23.0079973 L18.7039872,23.0079973 C21.135987,21.8399973 23.1999872,19.5839985 23.1999872,16.7039984 C23.1999872,12.7359984 19.9679866,9.50399761 15.9999869,9.50399761 C12.0319873,9.50399761 8.7999876,12.7359984 8.7999876,16.7039984 C8.7999876,20.6719983 12.0319873,23.9039972 15.9999869,23.9039972 L23.1999872,23.9039972 L23.1999872,23.0079973 L23.1999872,23.0079973 Z M21.2159862,16.7039984 C21.2159862,17.7759984 20.3199871,18.6879976 19.2319871,18.6879976 C18.1599871,18.6879976 17.247986,17.7919984 17.247986,16.7039984 C17.247986,15.6159983 18.1439871,14.7199982 19.2319871,14.7199982 C20.3199871,14.7199982 21.2159862,15.6319983 21.2159862,16.7039984 L21.2159862,16.7039984 Z M15.9999869,11.4879978 C17.0719869,11.4879978 17.9839861,12.383998 17.9839861,13.471998 C17.9839861,14.5439981 17.0879869,15.4559982 15.9999869,15.4559982 C14.9119869,15.4559982 14.0159869,14.5599981 14.0159869,13.471998 C14.0159869,12.383998 14.9119869,11.4879978 15.9999869,11.4879978 L15.9999869,11.4879978 Z M10.7679869,16.7039984 C10.7679869,15.6319983 11.663987,14.7199982 12.751987,14.7199982 C13.823987,14.7199982 14.7359871,15.6159983 14.7359871,16.7039984 C14.7359871,17.7919984 13.839987,18.6879976 12.751987,18.6879976 C11.663987,18.6879976 10.7679869,17.7919984 10.7679869,16.7039984 L10.7679869,16.7039984 Z M14.0159869,19.9519976 C14.0159869,18.8799975 14.9119869,17.9679983 15.9999869,17.9679983 C17.0879869,17.9679983 17.9839861,18.8639975 17.9839861,19.9519976 C17.9839861,21.0239976 17.0879869,21.9359987 15.9999869,21.9359987 C14.9119869,21.9359987 14.0159869,21.0239976 14.0159869,19.9519976 L14.0159869,19.9519976 Z" id="Vector" fill="#FFA61A" mask="url(#mask-2)"></path>
            </g>
        </g>
    </g>
</svg>