<?xml version="1.0" encoding="UTF-8"?>
<svg width="32px" height="32px" viewBox="0 0 32 32" version="1.1" xmlns="http://www.w3.org/2000/svg" xmlns:xlink="http://www.w3.org/1999/xlink">
    <title>pdf</title>
    <defs>
        <linearGradient x1="93.9453125%" y1="100%" x2="6.0546875%" y2="0%" id="linearGradient-1">
            <stop stop-color="#F42424" offset="0%"></stop>
            <stop stop-color="#FF9F9F" offset="100%"></stop>
        </linearGradient>
        <path d="M22.04,0 L30,8.342 L30,28 C30,30.209139 28.209139,32 26,32 L4,32 C1.790861,32 1.78856188e-15,30.209139 0,28 L0,4.00039018 C-7.1463071e-16,1.79125118 1.790861,0.000390183958 4,0.000390183958 L22.04,0 Z" id="path-2"></path>
        <linearGradient x1="50%" y1="0%" x2="50%" y2="100%" id="linearGradient-4">
            <stop stop-color="#FFD8CB" stop-opacity="0.405853912" offset="0%"></stop>
            <stop stop-color="#FEAF9B" stop-opacity="0.193473763" offset="100%"></stop>
        </linearGradient>
        <linearGradient x1="72.9790329%" y1="50%" x2="9.90348927%" y2="99.2371886%" id="linearGradient-5">
            <stop stop-color="#FF9F9F" offset="0%"></stop>
            <stop stop-color="#FFBBBB" offset="100%"></stop>
        </linearGradient>
    </defs>
    <g id="pc端" stroke="none" stroke-width="1" fill="none" fill-rule="evenodd">
        <g id="icon" transform="translate(-1455.000000, -118.000000)">
            <g id="编组-9" transform="translate(1455.000000, 118.000000)">
                <g id="编组-15" transform="translate(1.000000, 0.000000)">
                    <g id="路径-10">
                        <mask id="mask-3" fill="white">
                            <use xlink:href="#path-2"></use>
                        </mask>
                        <use id="蒙版" fill="url(#linearGradient-1)" xlink:href="#path-2"></use>
                        <path d="M-2.65518286,20.0718205 C9.71227232,16.0239402 21.5973333,21.7404081 33,37.2212243 C32.8947199,37.2898936 32.3544085,37.8401598 31.3790658,38.8720228 L-2.65518286,37.2474992 L-2.65518286,20.0718205 Z" id="路径-22" fill="url(#linearGradient-4)" opacity="0.884175618" mask="url(#mask-3)"></path>
                    </g>
                    <path d="M8.61600018,24.3199997 C8.29600018,24.3199997 8.00799991,24.1919991 7.89599991,24.1439991 C7.33599991,23.9039991 7,23.4079992 7,22.7999992 C7,22.4159992 7,21.2160003 11.3999996,19.3120003 C12.3919996,17.5040003 13.1599997,15.6959999 13.6879997,13.9359999 C13.1919997,12.8799999 11.9920002,10.2240002 12.8400002,8.80000019 C13.0800001,8.3040002 13.6719999,8 14.3439999,8 C14.8399999,8 15.3039998,8.23999959 15.6079998,8.6239996 C16.2479998,9.51999962 16.1680003,11.3120005 15.4160004,13.6640005 C16.0560004,14.8480005 16.935999,16 18.039999,17.1040001 L18.1679993,17.0879993 C19.0639993,16.9439994 19.8960006,16.7999992 20.8080006,16.7999992 C21.8800006,16.8479992 22.6160007,17.1039996 23.0160007,17.5839996 C23.3200007,17.9519996 23.3359989,18.3519995 23.3039989,18.5599995 C23.3519989,19.0399995 23.256,19.4239991 23,19.6959991 C22.52,20.2239991 21.6240003,20.2240009 21.0480003,20.2240009 C19.8480003,20.1440009 18.6959997,19.6799992 17.6879997,18.8799992 C16.0079998,19.2479992 14.3599995,19.7599992 12.5199995,20.5119991 C11.1119995,23.0399992 9.80000019,24.3199997 8.61600018,24.3199997 L8.61600018,24.3199997 Z M9.65600014,21.9680004 C9.46400014,22.0960004 9.30400026,22.2399996 9.12800026,22.3999996 C9.33600026,22.2879996 9.49600014,22.1440004 9.65600014,21.9680004 L9.65600014,21.9680004 Z M14.6479998,16.2719994 C14.3439998,17.0559993 13.9600001,17.8880004 13.5120001,18.7840004 C14.3440001,18.5120004 15.1919997,18.2719992 16.0559998,18.0639992 L15.8959999,17.9039993 L16.0879993,17.9039993 C15.6399993,17.3759993 15.1759997,16.8000009 14.7279997,16.2240009 L14.6479998,16.2719994 L14.6479998,16.2719994 Z M20.4400005,18.4799995 C20.6480005,18.5279995 20.8720002,18.5599995 21.1280003,18.5599995 L21.1599998,18.5599995 C21.2399998,18.5759995 21.3199996,18.592001 21.3999996,18.592001 C21.4799996,18.592001 21.5440006,18.592001 21.6240005,18.5760002 C21.4800006,18.5280002 21.2559997,18.4799995 20.8719997,18.4799995 L20.4400005,18.4799995 L20.4400005,18.4799995 Z M14.3280001,9.68000031 C14.2160001,10.2080003 14.2480002,10.7519997 14.3920002,11.2799997 C14.4880002,10.7519997 14.4719995,10.2080003 14.3759995,9.68000031 L14.3280001,9.68000031 L14.3280001,9.68000031 Z" id="Vector" fill="#FFFFFF"></path>
                </g>
                <path d="M22.4260149,0.10019084 L22.4260149,5.14796568 C22.5954566,7.49595275 23.7988103,8.66994628 26.0360761,8.66994628 C28.2733419,8.66994628 29.9183049,8.66994628 30.9709651,8.66994628 C30.896739,8.31988562 30.6871383,7.95884687 30.3421631,7.58683004 C25.6250984,2.50000777 23.8001178,0.774491099 23.2877144,0.367273193 C23.0053281,0.142854803 22.7180949,0.0538273522 22.4260149,0.10019084 Z" id="路径-20" fill="url(#linearGradient-5)" opacity="0.619412377"></path>
            </g>
        </g>
    </g>
</svg>