<?xml version="1.0" encoding="UTF-8"?>
<svg width="32px" height="32px" viewBox="0 0 32 32" version="1.1" xmlns="http://www.w3.org/2000/svg" xmlns:xlink="http://www.w3.org/1999/xlink">
    <title>项目</title>
    <defs>
        <linearGradient x1="-16.3874739%" y1="17.4942656%" x2="79.4655193%" y2="57.3292672%" id="linearGradient-1">
            <stop stop-color="#4EC8FF" offset="0%"></stop>
            <stop stop-color="#0A97FF" offset="100%"></stop>
        </linearGradient>
        <path d="M4,0 L26,0 C28.209139,-4.05812251e-16 30,1.790861 30,4 L30,26 C30,28.209139 28.209139,30 26,30 L4,30 C1.790861,30 2.705415e-16,28.209139 0,26 L0,4 C-2.705415e-16,1.790861 1.790861,4.05812251e-16 4,0 Z" id="path-2"></path>
        <linearGradient x1="50%" y1="0%" x2="50%" y2="100%" id="linearGradient-4">
            <stop stop-color="#C7EFFE" offset="0%"></stop>
            <stop stop-color="#BBEBFE" offset="100%"></stop>
        </linearGradient>
    </defs>
    <g id="pc端" stroke="none" stroke-width="1" fill="none" fill-rule="evenodd">
        <g id="icon" transform="translate(-1004.000000, -117.000000)">
            <g id="编组" transform="translate(1004.000000, 117.000000)">
                <g id="路径-4" transform="translate(1.000000, 1.000000)">
                    <mask id="mask-3" fill="white">
                        <use xlink:href="#path-2"></use>
                    </mask>
                    <use id="蒙版" fill="url(#linearGradient-1)" xlink:href="#path-2"></use>
                    <path d="M13.7515373,32 C18.4391721,23.6811079 24.3684545,20.0616503 31.5393844,21.1416272 C31.5845785,21.2083147 31.7381171,21.2083147 32,21.1416272 L31.8815702,32.6811108 L13.7515373,32.6811108 L13.7515373,32 Z" id="路径-2" fill="#4FC1FF" opacity="0.584789458" mask="url(#mask-3)"></path>
                    <path d="M-1,14.75 C-0.556954938,14.75 18.0967689,10.6690499 20.6245756,32.5 C20.5791913,32.4477475 13.3709994,32.4477475 -1,32.5 C-1.29536337,20.6666667 -1.29536337,14.75 -1,14.75 Z" fill="#8DD7FE" opacity="0.584789458" mask="url(#mask-3)"></path>
                </g>
                <circle id="椭圆形" fill="url(#linearGradient-4)" cx="22" cy="10" r="4"></circle>
            </g>
        </g>
    </g>
</svg>