<?xml version="1.0" encoding="UTF-8"?>
<svg width="32px" height="32px" viewBox="0 0 32 32" version="1.1" xmlns="http://www.w3.org/2000/svg" xmlns:xlink="http://www.w3.org/1999/xlink">
    <title>编组 5</title>
    <defs>
        <linearGradient x1="6.98382201%" y1="15.3891293%" x2="76.1353938%" y2="71.2292518%" id="linearGradient-1">
            <stop stop-color="#32DFC1" offset="0%"></stop>
            <stop stop-color="#14BDA7" offset="100%"></stop>
        </linearGradient>
        <rect id="path-2" x="0" y="0" width="30" height="27" rx="4"></rect>
        <linearGradient x1="71.5492172%" y1="82.8909361%" x2="20.5166551%" y2="50%" id="linearGradient-4">
            <stop stop-color="#27C5B0" offset="0%"></stop>
            <stop stop-color="#7CD6CA" offset="100%"></stop>
        </linearGradient>
    </defs>
    <g id="pc端" stroke="none" stroke-width="1" fill="none" fill-rule="evenodd">
        <g id="icon" transform="translate(-1529.000000, -118.000000)">
            <g id="编组-5" transform="translate(1529.000000, 118.000000)">
                <path d="M1,8.98417383 L1,4.22122431 C1.3606934,1.59292523 3.00343764,0.18585046 5.9282327,0 C5.90861813,0.0511505245 9.09920723,0.0511505245 15.5,0 C17.7923139,0.544839492 19.1254233,2.12843388 19.4993283,4.75078315 C19.544812,4.82830062 13.3783692,6.23943085 1,8.98417383 Z" id="路径-9" fill="#8CE3D6"></path>
                <g id="路径-10" transform="translate(1.000000, 4.221224)">
                    <mask id="mask-3" fill="white">
                        <use xlink:href="#path-2"></use>
                    </mask>
                    <use id="蒙版" fill="url(#linearGradient-1)" xlink:href="#path-2"></use>
                    <path d="M30.3076898,0.555155517 C21.1196467,9.59344799 17.9268329,18.4083962 20.7292485,27 C20.7482123,27.0350332 24.4768768,27.0350332 31.9152419,27 L32.4590562,1.72636837 L30.3076898,0.555155517 Z" fill="url(#linearGradient-4)" mask="url(#mask-3)"></path>
                    <g id="编组-16" mask="url(#mask-3)" fill="#FFFFFF" fill-rule="nonzero">
                        <g transform="translate(11.000000, 7.000000)" id="路径">
                            <path d="M5.35713075,13.6666602 C5.03569612,13.8888867 4.82142521,14 4.39284571,14 C4.07141108,14 3.74999529,13.8888867 3.42856067,13.6666602 C3.10712604,13.4444531 3,13.1111133 3,12.6666602 C3,12.222207 3.10712604,12 3.42856067,11.6666602 C3.64285042,11.4444531 3.96428504,11.2222266 4.39284571,11.2222266 C4.82140637,11.2222266 5.03569612,11.3333398 5.35713075,11.6666602 C5.5714205,11.8888867 5.78571025,12.2222266 5.78571025,12.6666602 C5.78571025,13.1110937 5.5714205,13.4444531 5.35713075,13.6666602 Z"></path>
                            <path d="M8.67856537,5 C8.46427562,5.44445312 8.24998587,5.77777344 7.92855125,6 C7.60713546,6.33333984 7.17855596,6.77777344 6.42856067,7.44445312 L5.89285512,8 C5.78569142,8.11111328 5.67856537,8.33333984 5.5714205,8.44445312 L5.5714205,8.77777344 C5.5714205,8.88890625 5.46427562,9.11111328 5.46427562,9.44445312 C5.35713075,10.1111133 5.03569612,10.4444531 4.39284571,10.4444531 C4.07141108,10.4444531 3.85714017,10.3333203 3.64285042,10.1111133 C3.42856067,9.88888672 3.32141579,9.55554687 3.32141579,9.22222656 C3.32141579,8.66666016 3.4285795,8.22222656 3.53570554,7.88888672 C3.64285042,7.55554687 3.85714017,7.22222656 4.17855596,6.88888672 C4.39284571,6.55554687 4.82142521,6.22222656 5.25000471,5.88888672 C5.67856537,5.55554687 5.89285512,5.33333984 6.10712604,5.11111328 C6.32139696,4.88888672 6.42856067,4.77777344 6.53570554,4.55554687 C6.64285042,4.33333984 6.74999529,4.11111328 6.74999529,3.88888672 C6.74999529,3.44445312 6.53570554,3 6.21427092,2.66666016 C5.89285512,2.33333984 5.35714958,2.11111328 4.82142521,2.11111328 C3.96428504,1.88888672 3.42856067,2.11111328 3.21427092,2.44445312 C2.89285512,2.77777344 2.5714205,3.33332031 2.35714958,4 C2.142841,4.66666016 1.82142521,5 1.17855596,5 C0.857140167,5 0.535705542,4.88888672 0.321434625,4.66666016 C0.107144875,4.44445312 0,4.11111328 0,3.88888672 C0,3.33333984 0.214270916,2.66666016 0.535705542,2.11111328 C0.857140167,1.55556641 1.39284571,1 2.142841,0.555546875 C2.89285512,0.111132812 3.64286925,0 4.60715429,0 C5.46429446,0 6.21428975,0.111113281 6.857159,0.444453125 C7.5,0.777773437 8.03571496,1.22222656 8.35714958,1.77777344 C8.78572908,2.33333984 9,3 9,3.66666016 C9,4.22222656 8.89285512,4.66666016 8.67858421,5 L8.67856537,5 Z"></path>
                        </g>
                    </g>
                </g>
            </g>
        </g>
    </g>
</svg>