<?xml version="1.0" encoding="UTF-8"?>
<svg width="20px" height="32px" viewBox="0 0 20 32" version="1.1" xmlns="http://www.w3.org/2000/svg" xmlns:xlink="http://www.w3.org/1999/xlink">
    <title>logo</title>
    <g id="pc端" stroke="none" stroke-width="1" fill="none" fill-rule="evenodd">
        <g id="文件列表-上传效果" transform="translate(-16.000000, -10.000000)" fill="#DF4329" fill-rule="nonzero">
            <g id="编组-15" transform="translate(16.000000, 10.000000)">
                <path d="M19.52375,9.58829474 C19.1248333,9.37338947 17.9251667,9.92075789 17.9251667,9.92075789 C17.8841667,9.9568 16.4415833,10.5635368 16.2409167,10.6729263 C15.1856667,11.2396632 15.1419167,11.8583579 15.03275,12.1955368 C14.9651667,12.4032 14.9234167,13.8848 14.96975,14.1923368 C14.9491667,14.5675789 15.9623333,24.0842947 17.0195,27.3459368 C17.2781667,28.1425684 17.4203333,29.2458947 17.5294167,30.4551579 C17.5676667,30.8801684 17.8833333,31.2055579 18.37725,30.8807579 C18.4151667,30.8554105 18.6438333,30.5668211 18.703,30.4980211 C19.0283333,30.1190737 19.114,29.9574737 19.3871667,29.6533053 C20.0240833,28.9438316 19.7525,28.2700632 19.5325,27.6971789 C18.8455,25.9110737 18.5265,25.1590737 17.6738333,23.0917053 C15.9593333,18.9328 15.50725,15.0611368 16.0426667,12.8416 C16.3009167,12.1523368 16.4998333,11.9766737 17.2726667,11.6788211 C17.9728333,11.4087579 18.59525,11.4867368 19.3338333,11.3154526 C19.4331667,11.2750316 19.4903333,11.0720842 19.5471667,10.8277053 C19.6145,10.5369263 19.6285833,10.2988632 19.6065833,9.95393684 C19.6056667,9.84943158 19.65175,9.70517895 19.52375,9.58829474 Z" id="路径"></path>
                <path d="M4.02966667,13.9137684 C4.02466667,13.9178105 4.01766667,13.9218526 4.01366667,13.9258947 L4.01366667,13.9299368 C4.01766667,13.9258947 4.02466667,13.9178105 4.02966667,13.9137684 Z" id="路径"></path>
                <path d="M4.39483333,15.4314947 C4.67183333,14.5495579 5.43633333,12.1078737 5.63175,11.2858105 C5.96491667,9.88311579 6.17108333,7.46290526 6.24608333,6.48395789 C6.33741667,5.28623158 6.52066667,1.68530526 6.52066667,1.68530526 L6.4805,1.46829474 C6.43208333,1.24749474 6.35116667,1.21701053 6.24333333,1.20252632 C5.88458333,1.20387368 5.65125,1.25541053 5.29258333,1.25717895 C4.93508333,1.30728421 4.71691667,1.40261053 4.645,1.78517895 C4.62016667,1.89389474 4.77175,2.43494737 4.75416667,2.65818947 C5.73383333,8.42922105 4.43666667,13.0040421 3.57991667,15.0891789 C1.86416667,19.2637474 0.550083333,24.0256 0.457666667,27.6944 C0.428916667,28.8424421 0.46,30.1613474 0.733,30.3946947 C0.943833333,30.5517474 1.12941667,30.8187789 1.57425,30.9253053 C1.80108333,30.9801263 2.33808333,30.9616842 2.55108333,30.9114105 C2.83625,30.8440421 3.32408333,30.6032842 3.33433333,30.4620632 C3.34666667,30.2933895 2.68516667,29.3853474 2.49141667,28.0712421 C2.34433333,27.0710737 2.50783333,22.6409263 3.346,19.3639579 C3.77308333,17.696 3.71483333,17.5969684 4.39483333,15.4314947 L4.39483333,15.4314947 Z" id="路径"></path>
                <path d="M17.11675,2.96412632 C16.6234167,1.8528 14.96325,0.793684211 14.3209167,0.650778947 C13.7254167,0.524884211 13.73025,0.636631579 13.6469167,0.792 C13.5345,0.973305263 13.4826667,1.23174737 13.3924167,1.41103158 C12.9940833,2.20050526 13.333,2.04690526 14.252,2.24901053 C14.7714167,2.36345263 18.69,4.21701053 15.2856667,6.92858947 C14.6721667,7.41709474 14.2674167,7.70391579 13.8795,7.99621053 C13.0729167,8.60421053 12.6363333,9.50854737 12.4951667,9.86703158 C12.3586667,10.2144 12.10225,10.7591579 11.9898333,11.4669474 C11.115,12.5504842 10.4525,12.2863158 10.06425,12.2374737 C9.94233333,12.2219789 9.78425,12.1840842 9.69316667,12.1199158 C9.69316667,12.1199158 9.63725,11.3168 9.64483333,10.9199158 C9.652,10.5333895 9.72941667,9.91932632 9.99858333,9.68673684 C10.3536667,9.37978947 10.7600833,9.39132632 11.3516667,9.16884211 C11.91375,8.95781053 12.0565,8.7056 12.2045,8.34981053 C12.0196667,8.08656842 11.7943333,8.27545263 11.5036667,8.31006316 C10.9349167,8.37818947 10.6808333,8.58871579 10.1554167,8.51738947 C9.96391667,8.4928 9.98858333,8.2464 9.97825,8.10938947 C9.86975,7.36168421 10.0943333,4.25498947 10.2461667,3.61313684 C10.5604167,2.56151579 10.7695833,1.96311579 11.20575,1.41372632 C11.4461667,1.11090526 12.036,0.776757895 11.8313333,0.667115789 C11.4245833,0.559242105 10.9304167,0.615326316 10.323,0.755957895 C10.0714167,0.814568421 9.73358333,1.01717895 9.54383333,1.06298947 C9.19616667,1.14694737 8.91,1.26543158 8.72316667,1.36185263 C8.67316667,1.38753684 8.60608333,1.40244211 8.58758333,1.45103158 C8.50025,1.68261053 8.5995,2.00429474 8.69175,2.45035789 C8.84358333,3.18787368 8.90933333,3.61541053 9.03875,4.35789474 C9.06616667,4.6 9.21716667,8.55368421 8.845,8.74021053 C8.845,8.74021053 8.36566667,8.97894737 7.79858333,8.59309474 C7.41175,8.33018947 7.15983333,8.55991579 6.76708333,8.55216842 C6.67533333,8.55056842 6.55108333,8.78021053 6.55108333,8.78021053 C6.47016667,8.85616842 6.50616667,9.03149474 6.59491667,9.03082105 C6.71458333,9.02972632 6.98991667,9.01338947 7.29775,9.17995789 C7.43233333,9.25229474 7.63641667,9.29338947 7.81,9.36496842 C8.35133333,9.58913684 8.76283333,9.50517895 8.7515,10.3345684 C8.74133333,11.0886737 8.76075,10.3511579 8.73091667,11.0206316 C8.71075,11.4762947 9.00016667,12.5986526 7.64008333,12.4937263 C7.42541667,12.4775579 6.89616667,12.1976421 6.22641667,12.0704 C6.11508333,12.0493474 5.95325,11.8934737 5.8775,11.8529684 C5.71933333,11.7686737 5.66183333,12.2523789 5.64641667,12.3274105 C5.60608333,12.5253895 5.68541667,12.9495579 5.84458333,13.0407579 C6.13291667,13.2062316 6.3,13.1291789 6.59458333,13.1751579 C7.49558333,13.3157895 7.7685,13.1578947 8.418,13.3765053 C9.05866667,13.7643789 8.93191667,14.7344842 8.86625,16.1797053 C8.82208333,17.1563789 9.00383333,19.7516632 9.00383333,19.7523368 C9.04625,21.1498947 9.06725,22.2339368 9.06725,22.2339368 C9.08158333,24.0811789 8.84358333,25.8405053 8.43591667,27.2389895 C8.37683333,27.4406737 8.00341667,28.9993263 7.64666667,28.9901474 C7.36625,28.9824842 6.89908333,27.9663158 6.679,27.4752842 C6.251,26.5210105 6.17225,25.7345684 6.11583333,24.2234105 C6.04708333,23.2096 6.00941667,21.1788632 7.5015,18.2618947 C7.5015,18.2618947 7.76758333,17.5225263 7.57575,17.4287158 C7.40833333,17.3471158 6.9955,17.8563368 6.6985,18.2368842 C6.11441667,18.9856842 5.74325,19.8312421 5.45941667,20.6928 C5.09658333,22.1172211 4.33508333,23.8368842 4.92475,26.7612632 C5.06233333,27.4437053 5.62858333,29.0451368 5.91658333,29.5339789 C6.07608333,29.8052211 6.42933333,30.4592 6.86966667,30.8927158 C7.22066667,31.2383158 7.5055,31.5116632 8.14066667,31.3799579 C8.45875,31.3137684 8.87433333,30.6308211 9.13366667,30.1643789 C9.8355,28.9015579 10.61175,26.9023158 10.4484167,23.4085895 C10.38475,22.0455579 9.48725,18.9506526 9.67458333,14.6515368 C9.72533333,13.8459789 9.85441667,13.2207158 10.1953333,13.1536842 C10.1953333,13.1536842 10.796,12.9710316 11.0465833,12.9512421 C11.0465833,12.9512421 12.2508333,12.8848842 12.3,13.3626947 C12.413,15.7538526 13.0731667,19.6565053 13.0653333,20.6707368 C13.0509167,22.5006316 12.8485,24.7665684 12.4560833,26.5542737 C12.2209167,27.4476632 12.01925,28.5613474 11.6728333,29.3911579 C11.5755,29.5847579 11.4821667,29.7803789 11.3796667,29.9719579 C11.0495833,30.5899789 11.3406667,30.7389474 11.95125,30.6190316 L12.1679167,30.6002526 C12.1679167,30.6002526 13.0588333,30.5605895 13.3559167,30.5253053 C13.7811667,30.4516211 14.2506667,30.5609263 14.37325,29.8014316 C14.37325,29.8014316 14.5615833,26.9525053 14.60325,25.6145684 C14.7074167,22.2757053 14.2274167,19.5765895 13.7491667,17.5148632 C12.98525,14.2240842 13.1143333,13.1609263 13.14675,12.7139368 C13.1621667,12.496 13.3714167,9.96286316 14.4859167,8.89482105 C14.7740833,8.61911579 16.7594167,6.99974737 17.1579167,6.32555789 C17.5854167,5.60235789 17.7036667,4.28589474 17.11675,2.96412632 L17.11675,2.96412632 Z" id="路径"></path>
                <path d="M0.662916667,15.7848421 C1.03841667,15.1734737 1.26866667,14.5013053 1.37716667,14.2262737 C1.58333333,13.6874947 1.63591667,13.4263579 1.83225,12.8924632 L1.87283333,12.7799579 L1.99333333,12.4443789 C2.49875,11.0364632 2.809,10.2172632 3.03708333,8.76202105 C3.18608333,7.81086316 3.18933333,6.35503158 3.09658333,4.90197895 C3.10766667,4.68867368 2.91816667,3.04193684 2.90658333,2.72092632 C2.90425,2.54206316 2.8865,2.42888421 2.89041667,2.3216 C2.88066667,1.60934737 2.46766667,1.90130526 1.64183333,1.92968421 C1.51633333,1.93389474 0.96975,1.95941053 0.8475,1.98644211 C0.629666667,2.01381053 0.792333333,2.22122105 0.819416667,2.312 C1.8215,4.74290526 1.98483333,7.83368421 1.42783333,10.8012632 C1.34575,11.4161684 1.15458333,12.1668211 1.05533333,12.7749053 C0.98575,13.0710737 0.525666667,14.8790737 0.662916667,15.7848421 L0.662916667,15.7848421 Z" id="路径"></path>
            </g>
        </g>
    </g>
</svg>