<?xml version="1.0" encoding="UTF-8"?>
<svg width="18px" height="18px" viewBox="0 0 18 18" version="1.1" xmlns="http://www.w3.org/2000/svg" xmlns:xlink="http://www.w3.org/1999/xlink">
    <title>数字中台</title>
    <g id="pc端" stroke="none" stroke-width="1" fill="none" fill-rule="evenodd">
        <g id="icon" transform="translate(-154.000000, -96.000000)" fill-rule="nonzero">
            <g id="编组-5" transform="translate(153.000000, 96.000000)">
                <g id="数字中台" transform="translate(1.000000, 0.000000)">
                    <rect id="矩形" fill="#000000" opacity="0" x="0" y="0" width="18" height="18"></rect>
                    <path d="M11.4402711,1.51942103 C10.8402345,1.17314034 10.1705753,1 9.50091605,1 C8.83125683,1 8.16159763,1.17314034 7.56156099,1.51942103 L3.93935508,3.60993037 C2.73925607,4.30333137 2,5.58411876 2,6.97013556 L2,11.1511542 C2,12.537193 2.73928178,13.8178819 3.93935508,14.5104433 L7.5606449,16.6009526 C8.16068154,16.9472333 8.83034075,17.1203737 9.5,17.1203737 C10.1696592,17.1203737 10.8393184,16.9472334 11.439355,16.6009526 L15.0606449,14.5104433 C16.2608477,13.8175932 17.0001568,12.5369854 17,11.1511542 L17,6.97013556 C17,5.58409673 16.2607181,4.30340783 15.0606449,3.61084645 L11.4402711,1.51942103 Z M15.9983328,11.4044297 C15.9983328,12.2966979 15.5209284,13.1275884 14.7528903,13.5737225 L10.7809763,15.9611553 C10.4028793,16.1810161 9.8461132,16.1947107 9.40970723,16.1947107 C8.97330127,16.1947107 8.54236175,16.0783677 8.16426472,15.859423 L4.26080594,13.4719902 C3.49276787,13.0258561 2.82108163,12.0434224 2.82108163,11.1511542 L2.82108163,6.66752217 C2.82108163,5.77525395 3.61859444,4.75594397 4.38663251,4.30980985 L8.29009129,2.11211642 C8.63839792,1.93450827 9.14430832,1.84174417 9.5355338,1.84174417 C9.97193978,1.84174417 10.4028793,1.95808716 10.7809763,2.17703183 L14.7528903,4.49822939 C15.5209284,4.94436351 15.9983328,5.77525394 15.9983328,6.66752217 L15.9983328,11.4044297 Z M13.6672773,6.07145472 L9.49999997,8.44961521 L5.33272259,6.07145472 C5.00293146,5.88365699 4.71015147,5.87252987 4.52235374,6.202321 C4.33455602,6.53211213 4.48462285,6.81688996 4.81441398,7.00468769 L8.9642857,9.37277123 L8.9642857,14.3574569 C8.9642857,14.7367167 9.10974714,15.0445217 9.48900694,15.0445217 C9.86826673,15.0445217 9.97280069,14.7367167 9.97280067,14.3574569 L9.97280067,9.38559644 L14.1446585,7.00468769 C14.4744496,6.81688996 14.6689492,6.53211213 14.4811514,6.202321 C14.2933537,5.87252987 13.9970685,5.88365699 13.6672773,6.07145472 Z" id="形状" fill="#666666"></path>
                </g>
            </g>
        </g>
    </g>
</svg>