<?xml version="1.0" encoding="UTF-8"?>
<svg width="18px" height="18px" viewBox="0 0 18 18" version="1.1" xmlns="http://www.w3.org/2000/svg" xmlns:xlink="http://www.w3.org/1999/xlink">
    <title>more_horiz</title>
    <g id="pc端" stroke="none" stroke-width="1" fill="none" fill-rule="evenodd">
        <g id="icon" transform="translate(-203.000000, -378.000000)">
            <g id="more_horiz" transform="translate(203.000000, 378.000000)">
                <path d="M0,0 L18,0 L18,18 L0,18 L0,0 Z" id="路径"></path>
                <g id="icon" transform="translate(3.000000, 7.500000)" fill="#666666" fill-rule="nonzero">
                    <path d="M1.5,3 C1.08749999,3 0.734375037,2.85312512 0.440625027,2.55937511 C0.146875016,2.2656251 0,1.91250001 0,1.5 C0,1.08749999 0.146875016,0.734375037 0.440625027,0.440625027 C0.734375037,0.146875016 1.08749999,0 1.5,0 C1.91250001,0 2.2656251,0.146875016 2.55937511,0.440625027 C2.85312512,0.734375037 3,1.08749999 3,1.5 C3,1.91250001 2.85312512,2.2656251 2.55937511,2.55937511 C2.2656251,2.85312512 1.91250001,3 1.5,3 L1.5,3 Z" id="路径"></path>
                    <path d="M6,3 C5.58749999,3 5.23437508,2.85312512 4.94062507,2.55937511 C4.64687506,2.2656251 4.5,1.91250001 4.5,1.5 C4.5,1.08749999 4.64687506,0.734375037 4.94062507,0.440625027 C5.23437508,0.146875016 5.58749999,0 6,0 C6.41250001,0 6.76562528,0.146875016 7.05937529,0.440625027 C7.3531253,0.734375037 7.5,1.08749999 7.5,1.5 C7.5,1.91250001 7.3531253,2.2656251 7.05937529,2.55937511 C6.76562528,2.85312512 6.41250001,3 6,3 L6,3 Z" id="路径"></path>
                    <path d="M10.5,3 C10.0875,3 9.73437544,2.85312512 9.44062543,2.55937511 C9.14687542,2.2656251 9,1.91250001 9,1.5 C9,1.08749999 9.14687542,0.734375037 9.44062543,0.440625027 C9.73437544,0.146875016 10.0875,0 10.5,0 C10.9125,0 11.2656253,0.146875016 11.5593753,0.440625027 C11.8531253,0.734375037 12,1.08749999 12,1.5 C12,1.91250001 11.8531253,2.2656251 11.5593753,2.55937511 C11.2656253,2.85312512 10.9125,3 10.5,3 L10.5,3 Z" id="路径"></path>
                </g>
            </g>
        </g>
    </g>
</svg>