<?xml version="1.0" encoding="UTF-8"?>
<svg width="64px" height="64px" viewBox="0 0 64 64" version="1.1" xmlns="http://www.w3.org/2000/svg" xmlns:xlink="http://www.w3.org/1999/xlink">
    <title>Mp3 2</title>
    <defs>
        <rect id="path-1" x="0" y="0" width="64" height="64"></rect>
    </defs>
    <g id="页面-1" stroke="none" stroke-width="1" fill="none" fill-rule="evenodd">
        <g id="icon" transform="translate(-1645.000000, -399.000000)">
            <g id="Mp3-2" transform="translate(1645.000000, 399.000000)">
                <mask id="mask-2" fill="white">
                    <use xlink:href="#path-1"></use>
                </mask>
                <g id="路径"></g>
                <path d="M48.6400253,61.7599871 L15.5520259,61.7599871 C10.2720257,61.7599871 5.95202553,57.4079893 5.95202553,52.0959895 L5.95202553,11.903991 C5.95202553,6.59199118 10.2720257,2.23999046 15.5520259,2.23999046 L39.2320243,2.23999046 C41.7920243,2.23999046 44.1920242,3.42399048 45.7600242,5.40799045 L56.4160262,19.0079901 C57.5680262,20.4799901 58.2082027,22.3359902 58.2082027,24.1919901 L58.2082027,52.063988 C58.240026,57.4079878 53.9200255,61.7599871 48.6400253,61.7599871 L48.6400253,61.7599871 Z" id="路径" fill="#E6FCFD" fill-rule="nonzero" mask="url(#mask-2)"></path>
                <path d="M48.6400354,64 L15.5520363,64 C9.02403689,64 3.71203697,58.6560006 3.71203697,52.0960007 L3.71203697,11.9040003 C3.71203697,5.34400034 9.02403689,0 15.5520363,0 L39.2320312,0 C42.4960309,0 45.5040328,1.47200012 47.5200327,4.06400013 L58.1760302,17.6639996 C59.6480301,19.5199995 60.448177,21.8560009 60.448177,24.2240009 L60.448177,52.0960007 C60.4800332,58.6560006 55.1680348,64 48.6400354,64 L48.6400354,64 Z M15.5520363,4.51200008 C11.4880365,4.51200008 8.19203717,7.84000015 8.19203717,11.9040003 L8.19203717,52.0960007 C8.19203717,56.1920009 11.4880365,59.487999 15.5520363,59.487999 L48.6080377,59.487999 C52.6720375,59.487999 55.9680302,56.1600008 55.9680302,52.0960007 L55.9680302,24.2240009 C55.9680302,22.8800009 55.5200338,21.5360004 54.6560338,20.4160004 L44.0000363,6.81599998 C42.8480364,5.34399998 41.088031,4.51200008 39.2320312,4.51200008 L15.5520363,4.51200008 L15.5520363,4.51200008 Z" id="Vector" fill="#92EFEF" mask="url(#mask-2)"></path>
                <path d="M40.768027,20.7360257 L28.7680251,24.5440262 C27.2960251,24.9920262 26.1440245,26.5280248 26.1440245,28.0640248 L26.1440245,41.2160262 C25.5466912,40.810693 24.6080245,40.7040265 23.3280245,40.8960265 C20.4800245,41.3120265 18.176026,43.5840262 18.176026,45.9520262 C18.176026,48.3200262 20.4800245,49.792026 23.3280245,49.376026 C26.176026,48.960026 28.2560259,46.7520255 28.2560259,44.3840254 L28.2560259,30.9120263 L29.4720255,29.4080265 L40.0640246,25.9520253 C40.8533592,25.6746922 41.2480265,25.9093591 41.2480265,26.6560257 L41.2480265,37.888027 C40.5226935,37.4613611 39.5200271,37.3333615 38.2400271,37.5040282 C35.392027,37.8560282 33.0880267,40.0640272 33.0880267,42.4640273 C33.0880267,44.8320273 35.392027,46.3680277 38.2400271,45.9840277 C41.0880271,45.6320277 43.3920237,43.4240249 43.3920237,41.0240248 L43.3920237,22.6880253 C43.3920237,21.1840254 42.240027,20.2880257 40.768027,20.7360257 L40.768027,20.7360257 Z" id="Vector" fill="#4EEAE2" mask="url(#mask-2)"></path>
            </g>
        </g>
    </g>
</svg>