<?xml version="1.0" encoding="UTF-8"?>
<svg width="18px" height="18px" viewBox="0 0 18 18" version="1.1" xmlns="http://www.w3.org/2000/svg" xmlns:xlink="http://www.w3.org/1999/xlink">
    <title>网盘</title>
    <g id="pc端" stroke="none" stroke-width="1" fill="none" fill-rule="evenodd">
        <g id="icon" transform="translate(-118.000000, -96.000000)">
            <g id="编组-3" transform="translate(117.000000, 96.000000)">
                <g id="编组-4" fill-rule="nonzero">
                    <rect id="矩形" fill="#000000" opacity="0" x="1" y="0" width="18" height="18"></rect>
                    <g id="编组-2" transform="translate(1.000000, 3.000000)" fill="#DE3A05">
                        <path d="M7.93636364,5.80909091 L8.18181818,5.80909091 C8.42727273,5.80909091 8.59090909,5.64545455 8.59090909,5.4 C8.59090909,5.15454545 8.42727273,4.99090909 8.18181818,4.99090909 L7.93636364,4.99090909 C7.36363636,4.99090909 6.95454545,4.66363636 6.95454545,4.25454545 C6.95454545,3.84545455 7.36363636,3.51818182 7.93636364,3.51818182 C8.1,3.51818182 8.18181818,3.51818182 8.34545455,3.6 C8.59090909,3.68181818 8.83636364,3.51818182 8.91818182,3.27272727 C8.91818182,3.02727273 9.24545455,2.86363636 9.57272727,2.86363636 C9.98181818,2.86363636 10.2272727,3.10909091 10.2272727,3.35454545 L10.2272727,3.43636364 C10.1454545,3.68181818 10.3090909,3.92727273 10.5545455,4.00909091 C10.8818182,4.09090909 11.0454545,4.25454545 11.0454545,4.5 C11.0454545,4.74545455 10.7181818,4.99090909 10.3909091,4.99090909 L10.0636364,4.99090909 C9.81818182,4.99090909 9.65454545,5.15454545 9.65454545,5.4 C9.65454545,5.64545455 9.81818182,5.80909091 10.0636364,5.80909091 L10.3909091,5.80909091 C11.2090909,5.80909091 11.8636364,5.23636364 11.8636364,4.5 C11.8636364,4.00909091 11.5363636,3.51818182 11.0454545,3.35454545 C11.0454545,2.61818182 10.3090909,2.04545455 9.57272727,2.04545455 C9,2.04545455 8.50909091,2.29090909 8.26363636,2.78181818 L7.93636364,2.78181818 C6.95454545,2.78181818 6.13636364,3.43636364 6.13636364,4.33636364 C6.13636364,5.23636364 6.95454545,5.80909091 7.93636364,5.80909091 L7.93636364,5.80909091 Z M6.95454545,9.81818182 L2.86363636,9.81818182 C2.61818182,9.81818182 2.45454545,9.98181818 2.45454545,10.2272727 C2.45454545,10.4727273 2.61818182,10.6363636 2.86363636,10.6363636 L6.95454545,10.6363636 C7.2,10.6363636 7.36363636,10.4727273 7.36363636,10.2272727 C7.36363636,9.98181818 7.2,9.81818182 6.95454545,9.81818182 Z" id="形状"></path>
                        <path d="M17.7545455,9.16363636 L17.7545455,8.91818182 L15.7909091,1.96363636 C15.5454545,0.818181818 14.4818182,0 13.5,0 L4.5,0 C3.51818182,0 2.45454545,0.818181818 2.12727273,1.88181818 L0.163636364,8.83636364 L0.163636364,9.08181818 C0.0818181818,9.49090909 0,9.81818182 0,10.2272727 C0,11.7818182 1.30909091,13.0909091 2.86363636,13.0909091 L15.1363636,13.0909091 C16.6909091,13.0909091 18,11.7818182 18,10.2272727 C18,9.81818182 17.9181818,9.49090909 17.7545455,9.16363636 Z M2.94545455,2.12727273 C3.10909091,1.39090909 3.84545455,0.818181818 4.5,0.818181818 L13.5,0.818181818 C14.1545455,0.818181818 14.8090909,1.39090909 15.0545455,2.12727273 L16.6090909,7.85454545 C16.2,7.52727273 15.7090909,7.36363636 15.1363636,7.36363636 L2.86363636,7.36363636 C2.29090909,7.36363636 1.8,7.52727273 1.39090909,7.77272727 L2.94545455,2.12727273 Z M15.1363636,12.2727273 L2.86363636,12.2727273 C1.71818182,12.2727273 0.818181818,11.3727273 0.818181818,10.2272727 C0.818181818,10.0636364 0.818181818,9.98181818 0.9,9.81818182 L0.9,9.73636364 C1.06363636,8.83636364 1.88181818,8.18181818 2.86363636,8.18181818 L15.1363636,8.18181818 C16.1181818,8.18181818 16.9363636,8.83636364 17.1,9.81818182 C17.1,9.98181818 17.1818182,10.0636364 17.1818182,10.2272727 C17.1818182,11.3727273 16.2818182,12.2727273 15.1363636,12.2727273 Z" id="形状"></path>
                        <path d="M14.3181818,9 C13.6636364,9 13.0909091,9.57272727 13.0909091,10.2272727 C13.0909091,10.8818182 13.6636364,11.4545455 14.3181818,11.4545455 C14.9727273,11.4545455 15.5454545,10.8818182 15.5454545,10.2272727 C15.5454545,9.57272727 14.9727273,9 14.3181818,9 Z M14.3181818,10.6363636 C14.0727273,10.6363636 13.9090909,10.4727273 13.9090909,10.2272727 C13.9090909,9.98181818 14.0727273,9.81818182 14.3181818,9.81818182 C14.5636364,9.81818182 14.7272727,9.98181818 14.7272727,10.2272727 C14.7272727,10.4727273 14.5636364,10.6363636 14.3181818,10.6363636 Z" id="形状"></path>
                    </g>
                </g>
                <g id="网盘" transform="translate(1.000000, 0.000000)"></g>
            </g>
        </g>
    </g>
</svg>