<?xml version="1.0" encoding="UTF-8"?>
<svg width="64px" height="64px" viewBox="0 0 64 64" version="1.1" xmlns="http://www.w3.org/2000/svg" xmlns:xlink="http://www.w3.org/1999/xlink">
    <title>PPT 2</title>
    <defs>
        <rect id="path-1" x="0" y="0" width="64" height="64"></rect>
    </defs>
    <g id="页面-1" stroke="none" stroke-width="1" fill="none" fill-rule="evenodd">
        <g id="icon" transform="translate(-1749.000000, -399.000000)">
            <g id="PPT-2" transform="translate(1749.000000, 399.000000)">
                <mask id="mask-2" fill="white">
                    <use xlink:href="#path-1"></use>
                </mask>
                <g id="路径"></g>
                <path d="M48.5439559,61.7599871 L15.4559566,61.7599871 C10.1759564,61.7599871 5.85595619,57.4079893 5.85595619,52.0959895 L5.85595619,11.903991 C5.85595619,6.59199118 10.1759564,2.23999046 15.4559566,2.23999046 L39.1359588,2.23999046 C41.6959587,2.23999046 44.0959587,3.42399048 45.6639587,5.40799045 L56.3199569,19.0399916 C57.4719568,20.5119916 58.1121334,22.3679917 58.1121334,24.2239916 L58.1121334,52.0959895 C58.1439567,57.4079893 53.8239561,61.7599871 48.5439559,61.7599871 L48.5439559,61.7599871 Z" id="路径" fill="#FFF0EB" fill-rule="nonzero" mask="url(#mask-2)"></path>
                <path d="M48.5439622,64 L15.455967,64 C8.92796755,64 3.61596764,58.6560006 3.61596764,52.0960007 L3.61596764,11.9040003 C3.61596764,5.34400034 8.92796755,0 15.455967,0 L39.1359657,0 C42.3999654,0 45.4079635,1.47200012 47.4239633,4.06400013 L58.0799647,17.6639996 C59.5519646,19.5199995 60.3521077,21.8560009 60.3521077,24.2240009 L60.3521077,52.0960007 C60.3839639,58.6560006 55.0719616,64 48.5439622,64 L48.5439622,64 Z M15.455967,4.51200008 C11.3919671,4.51200008 8.09596688,7.84000015 8.09596688,11.9040003 L8.09596688,52.0960007 C8.09596688,56.1920009 11.3919671,59.487999 15.455967,59.487999 L48.5119645,59.487999 C52.5759644,59.487999 55.8719646,56.1600008 55.8719646,52.0960007 L55.8719646,24.2240009 C55.8719646,22.8800009 55.4239644,21.5360004 54.5599645,20.4160004 L43.9039631,6.81599998 C42.7519633,5.34399998 40.9919655,4.51200008 39.1359657,4.51200008 L15.455967,4.51200008 L15.455967,4.51200008 Z" id="Vector" fill="#FFC1AC" mask="url(#mask-2)"></path>
                <path d="M22.4639902,47.9999929 L22.4639902,21.1199937 L31.5519895,21.1199937 C39.2959895,21.1199937 42.0479898,23.4879919 42.0479898,30.143992 C42.0479898,37.0559922 39.2959895,39.4879919 31.5519895,39.4879919 L27.8399896,39.4879919 L27.8399896,47.9999929 L22.4639902,47.9999929 L22.4639902,47.9999929 Z M27.8399896,35.327992 L30.7199888,35.327992 C35.039989,35.327992 36.5119905,34.0479937 36.5119905,30.3039938 C36.5119905,26.6239937 34.9439888,25.2799936 30.7199888,25.2799936 L27.8399896,25.2799936 L27.8399896,35.327992 L27.8399896,35.327992 Z" id="Vector" fill="#FF6A38" mask="url(#mask-2)"></path>
            </g>
        </g>
    </g>
</svg>