<?xml version="1.0" standalone="no"?><!DOCTYPE svg PUBLIC "-//W3C//DTD SVG 1.1//EN" "http://www.w3.org/Graphics/SVG/1.1/DTD/svg11.dtd"><svg t="1740205743117" class="icon" viewBox="0 0 1024 1024" version="1.1" xmlns="http://www.w3.org/2000/svg" p-id="12700" xmlns:xlink="http://www.w3.org/1999/xlink" width="32" height="32"><path d="M332.8 931.84H199.68c-5.12 0-5.12-5.12-5.12-10.24V97.28c0-5.12 5.12-5.12 5.12-5.12h624.64c5.12 0 5.12 5.12 5.12 5.12v230.4c0 20.48 15.36 40.96 40.96 40.96s40.96-15.36 40.96-40.96V97.28c0-46.08-35.84-81.92-81.92-81.92H199.68c-46.08-5.12-87.04 35.84-87.04 81.92v829.44c0 46.08 35.84 87.04 81.92 87.04h133.12c20.48 0 40.96-15.36 40.96-40.96s-15.36-40.96-35.84-40.96z" fill="#DE3A05" p-id="12701"></path><path d="M343.04 266.24c-20.48 0-40.96 20.48-40.96 40.96s15.36 40.96 40.96 40.96h307.2c20.48 0 40.96-15.36 40.96-40.96s-15.36-40.96-40.96-40.96h-307.2zM962.56 947.2l-61.44-61.44-20.48-20.48c20.48-30.72 30.72-66.56 30.72-107.52 0-107.52-87.04-194.56-194.56-194.56s-194.56 87.04-194.56 194.56 87.04 194.56 194.56 194.56c40.96 0 76.8-10.24 107.52-30.72l20.48 20.48 61.44 61.44c15.36 15.36 40.96 15.36 56.32 0 15.36-20.48 15.36-40.96 0-56.32zM716.8 870.4c-61.44 0-112.64-51.2-112.64-112.64s51.2-112.64 112.64-112.64 112.64 51.2 112.64 112.64S778.24 870.4 716.8 870.4zM547.84 512c0-20.48-15.36-40.96-40.96-40.96H343.04c-20.48 0-40.96 15.36-40.96 40.96s15.36 40.96 40.96 40.96H512c20.48 0 35.84-20.48 35.84-40.96z" fill="#DE3A05" p-id="12702"></path></svg>