<?xml version="1.0" encoding="UTF-8"?>
<svg width="20px" height="20px" viewBox="0 0 20 20" version="1.1" xmlns="http://www.w3.org/2000/svg" xmlns:xlink="http://www.w3.org/1999/xlink">
    <title>查询</title>
    <g id="控件" stroke="none" stroke-width="1" fill="none" fill-rule="evenodd">
        <g id="查询" fill-rule="nonzero">
            <rect id="矩形" fill="#000000" opacity="0" x="0" y="0" width="20" height="20"></rect>
            <path d="M17.5,1.25 L2.5,1.25 C1.810625,1.25 1.25,1.810625 1.25,2.5 L1.25,17.5 C1.25,18.189375 1.810625,18.75 2.5,18.75 L14.0625,18.75 C14.407678,18.75 14.5990713,18.5724996 14.5990713,18.2273217 C14.5990713,17.8821437 14.407678,17.7156524 14.0625,17.7156524 L2.27450192,17.7156524 L2.27450192,2.28816369 L17.7066797,2.28816369 L17.7066797,14.0625 C17.7066797,14.407678 17.8677309,14.4972914 18.2129088,14.4972914 C18.5580868,14.4972914 18.75,14.407678 18.75,14.0625 L18.75,2.5 C18.75,1.810625 18.189375,1.25 17.5,1.25 Z M15.46375,14.58 C15.9741716,13.8867041 16.2496567,13.0484235 16.25,12.1875 C16.25,9.9475 14.4275,8.125 12.1875,8.125 C9.9475,8.125 8.125,9.9475 8.125,12.1875 C8.125,14.4275 9.9475,16.25 12.1875,16.25 C13.0484235,16.2496567 13.8867041,15.9741716 14.58,15.46375 L16.745625,17.629375 C16.8625845,17.7470058 17.021619,17.8131468 17.1875,17.8131468 C17.353381,17.8131468 17.5124155,17.7470058 17.629375,17.629375 C17.7466977,17.5122516 17.8126257,17.3532785 17.8126257,17.1875 C17.8126257,17.0217215 17.7466977,16.8627484 17.629375,16.745625 L15.46375,14.58 Z M9.375,12.1875 C9.375,10.636875 10.636875,9.375 12.1875,9.375 C13.738125,9.375 15,10.636875 15,12.1875 C15,13.738125 13.738125,15 12.1875,15 C10.636875,15 9.375,13.738125 9.375,12.1875 Z M15.625,5.15625 C15.625,4.81107203 15.345178,4.53125 15,4.53125 L5,4.53125 C4.65482203,4.53125 4.375,4.81107203 4.375,5.15625 C4.375,5.50142797 4.65482203,5.78125 5,5.78125 L15,5.78125 C15.345178,5.78125 15.625,5.50142797 15.625,5.15625 Z M5,8.255 C4.65482203,8.255 4.375,8.53482203 4.375,8.88 C4.375,9.22517797 4.65482203,9.505 5,9.505 L6.875,9.505 C7.22017797,9.505 7.5,9.22517797 7.5,8.88 C7.5,8.53482203 7.22017797,8.255 6.875,8.255 L5,8.255 Z" id="形状" fill="#DE3A05"></path>
        </g>
    </g>
</svg>