<?xml version="1.0" encoding="UTF-8"?>
<svg width="48px" height="48px" viewBox="0 0 48 48" version="1.1" xmlns="http://www.w3.org/2000/svg" xmlns:xlink="http://www.w3.org/1999/xlink">
    <title>放大镜</title>
    <g id="页面-1" stroke="none" stroke-width="1" fill="none" fill-rule="evenodd">
        <g id="icon" transform="translate(-82.000000, -970.000000)" fill-rule="nonzero">
            <g id="放大镜" transform="translate(82.000000, 970.000000)">
                <rect id="矩形" fill="#000000" opacity="0" x="0" y="0" width="48" height="48"></rect>
                <path d="M21.1190625,39.1604063 C11.1607031,39.1604063 3.05896875,31.0587187 3.05896875,21.1006406 C3.05896875,11.1427031 11.1607031,3.04096875 21.1191094,3.04096875 C31.0775156,3.04096875 39.1795781,11.1427031 39.1795781,21.1006406 C39.1795781,31.0586719 31.0775156,39.1604063 21.1191094,39.1604063 L21.1190625,39.1604063 Z M21.1190625,7.48621875 C13.61175,7.48621875 7.50440625,13.5936563 7.50440625,21.1006406 C7.50440625,28.6076719 13.61175,34.7152031 21.1191094,34.7152031 C28.626375,34.7152031 34.7340937,28.6076719 34.7340937,21.1006406 C34.7340937,13.5936562 28.626375,7.48621875 21.1191094,7.48621875 L21.1190625,7.48621875 Z" id="形状" fill="#272536"></path>
                <path d="M42.2127188,44.9286563 C41.5124062,44.9286563 40.8125625,44.6614687 40.2781875,44.1275625 L30.8427188,34.6927969 C29.7744844,33.6245156 29.7744844,31.8924375 30.8427188,30.8239219 C31.9114219,29.7559688 33.6432188,29.7559688 34.7117813,30.8239219 L44.14725,40.2586875 C45.2155312,41.3269687 45.2155312,43.059 44.14725,44.1274688 C43.612875,44.6614688 42.9130313,44.9286563 42.2127188,44.9286563" id="路径" fill="#272536"></path>
            </g>
        </g>
    </g>
</svg>