<?xml version="1.0" encoding="UTF-8"?>
<svg width="18px" height="18px" viewBox="0 0 18 18" version="1.1" xmlns="http://www.w3.org/2000/svg" xmlns:xlink="http://www.w3.org/1999/xlink">
    <title>编组 6</title>
    <g id="pc端" stroke="none" stroke-width="1" fill="none" fill-rule="evenodd">
        <g id="icon" transform="translate(-228.000000, -96.000000)">
            <g id="编组-6" transform="translate(228.000000, 96.000000)">
                <rect id="矩形" fill-opacity="0" fill="#FFFFFF" x="0" y="0" width="18" height="18"></rect>
                <g id="做任务" transform="translate(2.000000, 0.000000)" fill="#666666" fill-rule="nonzero">
                    <path d="M10.5878027,6.9589375 L6.4805127,11.3400625 L4.41219727,9.1338125 C4.18338867,8.88976563 3.8123877,8.88973438 3.58356445,9.1338125 C3.35474121,9.37789063 3.35474121,9.77360938 3.58356445,10.0176875 L6.06619629,12.6658594 C6.18061523,12.7879219 6.33054199,12.8489219 6.4805127,12.8489219 C6.63046875,12.8489219 6.7804248,12.7879063 6.8948291,12.6658594 L11.4164355,7.8428125 C11.6452588,7.59873438 11.6452588,7.20301563 11.4164355,6.9589375 C11.1876123,6.71485938 10.816626,6.71485938 10.5878027,6.9589375 L10.5878027,6.9589375 Z M13.7543262,2.54684375 L10.7842383,2.54684375 C10.7742627,1.81782813 10.2220605,1.2263125 9.53931152,1.2125 C9.47254395,0.53209375 8.93162109,0 8.27633789,0 L6.72361816,0 C6.06836426,0 5.52742676,0.53209375 5.46065918,1.2125 C4.77796875,1.226375 4.22569336,1.817875 4.21573242,2.54684375 L1.24567383,2.54684375 C0.557709961,2.54684375 0,3.14173438 0,3.87557813 L0,14.6710781 C0,15.4049219 0.557709961,15.9998125 1.24567383,15.9998125 L13.7543262,15.9998125 C14.4422754,15.9998125 15,15.4049219 15,14.6710781 L15,3.87557813 C15,3.14173438 14.4422754,2.54684375 13.7543262,2.54684375 Z M5.48516602,2.14973437 L5.89318359,2.14973437 C6.13586426,2.14973437 6.33262207,1.939875 6.33262207,1.68098437 L6.33262207,1.35457813 C6.33262207,1.12459375 6.50803711,0.9375 6.72361816,0.9375 L8.27633789,0.9375 C8.49194824,0.9375 8.66734863,1.12460938 8.66734863,1.35457813 L8.66734863,1.681 C8.66734863,1.939875 8.86410645,2.14975 9.10680176,2.14975 L9.51481934,2.14975 C9.72414551,2.14975 9.89553223,2.326125 9.90534668,2.54685938 C9.90563965,2.55348438 9.90581543,2.560125 9.90581543,2.56682812 L9.90581543,3.64539063 C9.90581543,3.87535937 9.73041504,4.06245312 9.51481934,4.06245312 L5.48516602,4.06245312 C5.26955566,4.06245312 5.09415527,3.87535937 5.09415527,3.64539062 L5.09415527,2.56682812 C5.09415527,2.560125 5.09433105,2.55348437 5.09462402,2.54685938 C5.10442383,2.32610938 5.27583984,2.14973437 5.48516602,2.14973437 Z M14.1210938,14.6710781 C14.1210938,14.8867969 13.9565771,15.0623125 13.7543262,15.0623125 L1.24567383,15.0623125 C1.04342285,15.0623125 0.878891602,14.8867969 0.878891602,14.6710781 L0.878891602,3.87557813 C0.878891602,3.65984375 1.04342285,3.48432813 1.24567383,3.48432813 L4.21526367,3.48432813 L4.21526367,3.645375 C4.21526367,4.39228125 4.78494141,4.99992188 5.48516602,4.99992188 L9.51481934,4.99992188 C10.2150586,4.99992188 10.784707,4.39228125 10.784707,3.645375 L10.784707,3.48432813 L13.7543262,3.48432813 C13.9565771,3.48432813 14.1210938,3.65984375 14.1210938,3.87557813 L14.1210938,14.6710781 Z" id="形状"></path>
                </g>
            </g>
        </g>
    </g>
</svg>