<?xml version="1.0" encoding="UTF-8"?>
<svg width="20px" height="20px" viewBox="0 0 20 20" version="1.1" xmlns="http://www.w3.org/2000/svg" xmlns:xlink="http://www.w3.org/1999/xlink">
    <title>Vector</title>
    <defs>
        <path d="M32,4 L32,26 C32,28.209139 30.209139,30 28,30 L4,30 C1.790861,30 2.705415e-16,28.209139 0,26 L0,4 C-2.705415e-16,1.790861 1.790861,4.05812251e-16 4,0 L28,0 C30.209139,-4.05812251e-16 32,1.790861 32,4 Z" id="path-1"></path>
        <mask id="mask-2" maskContentUnits="userSpaceOnUse" maskUnits="objectBoundingBox" x="0" y="0" width="32" height="30" fill="white">
            <use xlink:href="#path-1"></use>
        </mask>
    </defs>
    <g id="pc端" stroke="none" stroke-width="1" fill="none" fill-rule="evenodd">
        <g id="icon" transform="translate(-79.000000, -427.000000)">
            <g id="编组-21" transform="translate(72.000000, 421.000000)">
                <g id="Component-2">
                    <path d="M0,0 L32,0 L32,30 L0,30 L0,0 Z" id="路径"></path>
                    <use id="路径" stroke="#D9D9D9" mask="url(#mask-2)" stroke-width="2" fill="#FFFFFF" fill-rule="nonzero" stroke-dasharray="0,0" xlink:href="#path-1"></use>
                </g>
                <path d="M14.6034426,10.4000592 C13.4888486,10.4000592 12.4199055,10.8428301 11.6317685,11.6309671 C10.8436315,12.4191041 10.4008607,13.4880473 10.4008607,14.6026414 C10.4008607,15.7172354 10.8436315,16.7861781 11.6317685,17.5743151 C12.4199055,18.3624521 13.4888486,18.805223 14.6034426,18.805223 C15.7180366,18.805223 16.7869797,18.3624521 17.5751167,17.5743151 C18.3632537,16.7861781 18.8060246,15.7172354 18.8060246,14.6026414 C18.8060246,13.4880473 18.3632537,12.4191041 17.5751167,11.6309671 C16.7869797,10.8428301 15.7180366,10.4000592 14.6034426,10.4000592 L14.6034426,10.4000592 Z M9,14.6026414 C9,13.7108954 9.21308359,12.8320572 9.62116924,12.0391657 C10.0292549,11.2462741 10.6206844,10.5622286 11.3463049,10.0438795 C12.0719255,9.52553041 12.91078,9.18784799 13.7931532,9.05889654 C14.6755264,8.9299451 15.5759346,9.01344885 16.4195452,9.30246798 C17.2631558,9.5914871 18.0256047,10.0776742 18.6435265,10.7206233 C19.2614483,11.3635725 19.7169967,12.1447147 19.9723112,12.9991299 C20.2276257,13.8535451 20.275333,14.7565571 20.1114679,15.6331181 C19.9476029,16.5096791 19.5768976,17.3344729 19.0301621,18.0389523 L22.803381,21.8121699 C22.93097,21.9442726 23.0015694,22.1212031 23,22.3048537 C22.9983776,22.4885042 22.9247136,22.6641811 22.7948481,22.7940466 C22.6649827,22.923912 22.4893058,22.9975761 22.3056552,22.9991984 C22.1220047,23.0007678 21.9450741,22.9301684 21.8129714,22.8025794 L18.0397539,19.0293605 C17.2114652,19.6724231 16.2193514,20.0701637 15.1762302,20.1773537 C14.1331089,20.2845438 13.0808404,20.0968825 12.1390815,19.6357082 C11.1973226,19.1745338 10.403866,18.4583538 9.84893902,17.5686079 C9.294012,16.678862 9,15.6512555 9,14.6026414 L9,14.6026414 Z" id="Vector" fill="#333333"></path>
            </g>
        </g>
    </g>
</svg>