<?xml version="1.0" encoding="UTF-8"?>
<svg width="64px" height="64px" viewBox="0 0 64 64" version="1.1" xmlns="http://www.w3.org/2000/svg" xmlns:xlink="http://www.w3.org/1999/xlink">
    <title>文件</title>
    <defs>
        <rect id="path-1" x="0" y="0" width="64" height="64"></rect>
    </defs>
    <g id="页面-1" stroke="none" stroke-width="1" fill="none" fill-rule="evenodd">
        <g id="icon" transform="translate(-1329.000000, -399.000000)">
            <g id="文件" transform="translate(1329.000000, 399.000000)">
                <mask id="mask-2" fill="white">
                    <use xlink:href="#path-1"></use>
                </mask>
                <g id="路径"></g>
                <path d="M48.5026888,61.606011 L15.4972023,61.606011 C10.2303695,61.606011 5.92114204,57.2967855 5.92114204,51.9980322 L5.92114204,12.0020243 C5.92114204,6.73519148 10.2303695,2.39404358 15.4972023,2.39404358 L39.1181521,2.39404358 C41.6717681,2.39404358 44.0657811,3.57509114 45.6298708,5.55414356 L56.2592959,19.0883089 C57.4084231,20.5566381 58.0470049,22.3760899 58.0470049,24.2274615 L58.0470049,51.9661108 C58.0787489,57.2648641 53.7695217,61.606011 48.5026888,61.606011 L48.5026888,61.606011 Z" id="路径" fill="#E6F1FF" fill-rule="nonzero" mask="url(#mask-2)"></path>
                <path d="M48.5027267,64 L15.4972412,64 C8.98552055,64 3.68676682,58.6693263 3.68676682,52.0937653 L3.68676682,11.9062347 C3.68676682,5.33067369 8.98552055,0 15.4972412,0 L39.11819,0 C42.3740503,0 45.3745477,1.46832919 47.3855202,4.05386543 L58.0149452,17.6518707 C59.4832744,19.5032423 60.2814232,21.8334172 60.2814232,24.2274323 L60.2814232,52.1256866 C60.3131999,58.6693277 55.0144474,64 48.5027267,64 L48.5027267,64 Z M15.4972412,4.50074816 C11.4433758,4.50074816 8.15559502,7.82044935 8.15559502,11.9062347 L8.15559502,52.0937653 C8.15559502,56.1795506 11.4433758,59.4992523 15.4972412,59.4992523 L48.4708054,59.4992523 C52.5246708,59.4992523 55.8124535,56.1795506 55.8124535,52.0937653 L55.8124535,24.2274323 C55.8124535,22.8867838 55.3655716,21.5142152 54.5037262,20.4289284 L43.8742973,6.8309226 C42.7251701,5.36259341 40.9695615,4.50074816 39.11819,4.50074816 L15.4972412,4.50074816 L15.4972412,4.50074816 Z" id="Vector" fill="#96C6FF" mask="url(#mask-2)"></path>
                <path d="M18.2742915,24.1954942 L23.0623203,24.1954942 L26.06282,39.6448694 L26.2543407,39.6448694 L29.4463611,26.2064672 L34.7451129,26.2064672 L37.7456126,39.6448694 L37.9371333,39.6448694 L41.001472,24.1954942 L45.7256618,24.1954942 L40.9376331,45.0713068 L35.2239185,45.0713068 L31.9999767,31.8244215 L31.808456,31.8244215 L28.5206752,45.0713068 L22.8069587,45.0713068 L18.2742915,24.1954942 L18.2742915,24.1954942 Z" id="路径" fill="#0075FF" fill-rule="nonzero" mask="url(#mask-2)"></path>
            </g>
        </g>
    </g>
</svg>