<?xml version="1.0" encoding="UTF-8"?>
<svg width="16px" height="16px" viewBox="0 0 16 16" version="1.1" xmlns="http://www.w3.org/2000/svg" xmlns:xlink="http://www.w3.org/1999/xlink">
    <title>24gf-camera2</title>
    <defs>
        <linearGradient x1="50%" y1="0%" x2="50%" y2="100%" id="linearGradient-1">
            <stop stop-color="#FF8E8E" offset="0%"></stop>
            <stop stop-color="#EE2100" offset="100%"></stop>
        </linearGradient>
    </defs>
    <g id="pc端" stroke="none" stroke-width="1" fill="none" fill-rule="evenodd">
        <g id="icon" transform="translate(-100.000000, -379.000000)" fill-rule="nonzero">
            <g id="24gf-camera2" transform="translate(100.000000, 379.000000)">
                <rect id="矩形" fill="#000000" opacity="0" x="0" y="0" width="16" height="16"></rect>
                <path d="M15.3333333,3.80243844 L15.3333333,13.0240301 C15.3333333,14.0812919 15.2000994,14.6666667 14.2655668,14.6666667 L1.9971009,14.6666667 C1.15683365,14.6666667 0.666666672,13.8333333 0.666666672,13.2306374 L0.666666672,3.98668162 C0.666666672,3.03942543 1.33173235,2.66718333 1.79175546,2.66666667 L2.75,2.66666667 C2.80243254,2.66655254 2.8517825,2.64187755 2.88333333,2.6 L3.58333333,1.66666667 C3.74110881,1.45730451 3.98784498,1.33393643 4.25,1.33333333 L6.41666667,1.33333333 C6.67882168,1.33393643 6.92555785,1.45730452 7.08333333,1.66666667 L7.78333333,2.6 C7.81488416,2.64187756 7.86423413,2.66655254 7.91666667,2.66666667 L13.9924506,2.66666667 C14.7379102,2.66666667 15.3333333,3.04680661 15.3333333,3.80243844 Z M9.88541667,10.5520833 C10.7849083,9.65239947 10.9236011,8.24260466 10.2166748,7.18488469 C9.50974853,6.12716472 8.1540956,5.71611459 6.97879033,6.20311954 C5.80348507,6.69012448 5.13587221,7.93954441 5.3842426,9.18727371 C5.632613,10.435003 6.7277908,11.3335255 8,11.3333421 C8.707585,11.3351519 9.38649385,11.0538361 9.88541667,10.5520833 L9.88541667,10.5520833 Z M10,8.66666667 C10,9.76947917 9.1028125,10.6666667 8,10.6666667 C6.8971875,10.6666667 6,9.76947917 6,8.66666667 C6,7.56385417 6.8971875,6.66666667 8,6.66666667 C9.1028125,6.66666667 10,7.56385417 10,8.66666667 Z M13.3333333,5 C13.3333333,4.81590509 13.1840949,4.66666667 13,4.66666667 L11.6666667,4.66666667 C11.4825718,4.66666667 11.3333333,4.81590509 11.3333333,5 C11.3333333,5.18409491 11.4825718,5.33333333 11.6666667,5.33333333 L13,5.33333333 C13.1840949,5.33333333 13.3333333,5.18409491 13.3333333,5 L13.3333333,5 Z" id="形状" fill="url(#linearGradient-1)"></path>
            </g>
        </g>
    </g>
</svg>