<?xml version="1.0" encoding="UTF-8"?>
<svg width="64px" height="64px" viewBox="0 0 64 64" version="1.1" xmlns="http://www.w3.org/2000/svg" xmlns:xlink="http://www.w3.org/1999/xlink">
    <title>压缩 2</title>
    <defs>
        <rect id="path-1" x="0" y="0" width="64" height="64"></rect>
    </defs>
    <g id="页面-1" stroke="none" stroke-width="1" fill="none" fill-rule="evenodd">
        <g id="icon" transform="translate(-1221.000000, -399.000000)">
            <g id="压缩-2" transform="translate(1221.000000, 399.000000)">
                <mask id="mask-2" fill="white">
                    <use xlink:href="#path-1"></use>
                </mask>
                <g id="路径"></g>
                <g id="页面-1" mask="url(#mask-2)">
                    <g transform="translate(3.733276, 0.533323)" id="压缩">
                        <path d="M43.9586336,60.8000304 L11.5393922,60.8000304 C6.36610896,60.8000304 2.13342323,56.5104251 2.13342323,51.2745826 L2.13342323,11.6588102 C2.13342323,6.42296772 6.36610896,2.13336243 11.5393922,2.13336243 L34.7407831,2.13336243 C37.2490416,2.13336243 39.6005318,3.30038732 41.13684,5.25594296 L51.5774688,18.6925018 C52.706185,20.1433979 53.3337619,21.9727893 53.3337619,23.80218 L53.3337619,51.2745826 C53.3646017,56.5104251 49.1319168,60.8000304 43.9586336,60.8000304 L43.9586336,60.8000304 Z" id="路径" fill="#F5ECEC" fill-rule="nonzero"></path>
                        <path d="M44.3449536,62.9333344 L11.6863483,62.9333344 C5.24306428,62.9333344 0,57.6784021 0,51.2277352 L0,11.7056002 C0,5.25493325 5.24306428,0 11.6863483,0 L35.0590448,0 C38.2806868,0 41.2496514,1.44746681 43.239489,3.99626675 L53.7572012,17.3696007 C55.2100982,19.1946674 56.0001384,21.4917326 56.0001384,23.8202661 L56.0001384,51.2277352 C56.0313008,57.6784021 50.7882376,62.9333344 44.3449536,62.9333344 L44.3449536,62.9333344 Z M11.6863483,4.4368002 C7.67508836,4.4368002 4.42186119,7.70933342 4.42186119,11.7056002 L4.42186119,51.2277352 C4.42186119,55.2554686 7.67508836,58.4965341 11.6863483,58.4965341 L44.31337,58.4965341 C48.3246299,58.4965341 51.5778555,55.224002 51.5778555,51.2277352 L51.5778555,23.8202661 C51.5778555,22.4986661 51.1356683,21.1770661 50.2828808,20.0757327 L39.7651685,6.70240032 C38.6281184,5.25493363 36.8909589,4.4368002 35.0590448,4.4368002 L11.6863483,4.4368002 L11.6863483,4.4368002 Z" id="形状" fill="#DBBDBD"></path>
                        <g id="编组" transform="translate(21.866699, 18.133363)" fill="#BC8585">
                            <path d="M2.00270733e-07,30.3999631 L9.6000002,30.3999631 L9.6000002,40.5332963 L2.00270733e-07,40.5332963 L2.00270733e-07,30.3999631 Z" id="路径"></path>
                            <path d="M0,23.0814819 L4.51764727,23.0814819 L4.51764727,27.5851846 L0,27.5851846 L0,23.0814819 Z" id="路径"></path>
                            <path d="M4.51770043,18.5777588 L9.0353477,18.5777588 L9.0353477,23.0814638 L4.51770043,23.0814638 L4.51770043,18.5777588 Z" id="路径"></path>
                            <path d="M0,14.0740356 L4.51764727,14.0740356 L4.51764727,18.5777383 L0,18.5777383 L0,14.0740356 Z" id="路径"></path>
                            <path d="M4.51770043,9.57037354 L9.0353477,9.57037354 L9.0353477,14.0740771 L4.51770043,14.0740771 L4.51770043,9.57037354 Z" id="路径"></path>
                            <path d="M0,4.50366211 L4.51764727,4.50366211 L4.51764727,9.0073657 L0,9.0073657 L0,4.50366211 Z" id="路径"></path>
                            <path d="M4.51770043,0 L9.0353477,0 L9.0353477,4.50370359 L4.51770043,4.50370359 L4.51770043,0 Z" id="路径"></path>
                        </g>
                    </g>
                </g>
            </g>
        </g>
    </g>
</svg>