<?xml version="1.0" encoding="UTF-8"?>
<svg width="12px" height="12px" viewBox="0 0 12 12" version="1.1" xmlns="http://www.w3.org/2000/svg" xmlns:xlink="http://www.w3.org/1999/xlink">
    <title>下拉</title>
    <g id="pc端" stroke="none" stroke-width="1" fill="none" fill-rule="evenodd">
        <g id="icon" transform="translate(-74.000000, -205.000000)" fill="#000000" fill-rule="nonzero">
            <g id="下拉" transform="translate(74.000000, 205.000000)">
                <rect id="矩形" opacity="0" x="0" y="0" width="12" height="12"></rect>
                <path d="M9.225,4.4625 C9.1125,4.35 8.9625,4.3125 8.8125,4.3125 L3.1875,4.35 C3.0375,4.35 2.8875,4.3875 2.775,4.5 C2.55,4.725 2.55,5.0625 2.775,5.2875 L5.5875,8.1 C5.5875,8.1 5.5875,8.1 5.5875,8.1 C5.5875,8.1 5.5875,8.1 5.5875,8.1 C5.625,8.1375 5.7,8.175 5.7375,8.2125 C5.7375,8.2125 5.775,8.25 5.775,8.25 C5.9625,8.325 6.225,8.2875 6.375,8.1375 L9.1875,5.2875 C9.45,5.025 9.4125,4.6875 9.225,4.4625 Z" id="路径"></path>
            </g>
        </g>
    </g>
</svg>