<?xml version="1.0" encoding="UTF-8"?>
<svg width="16px" height="16px" viewBox="0 0 16 16" version="1.1" xmlns="http://www.w3.org/2000/svg" xmlns:xlink="http://www.w3.org/1999/xlink">
    <title>个人信息</title>
    <g id="pc端" stroke="none" stroke-width="1" fill="none" fill-rule="evenodd">
        <g id="icon" transform="translate(-594.000000, -227.000000)" fill-rule="nonzero">
            <g id="个人信息" transform="translate(594.000000, 227.000000)">
                <rect id="矩形" fill="#333333" opacity="0" x="0" y="0" width="16" height="16"></rect>
                <path d="M13.4333495,14.4039886 C13.3709954,12.3161748 12.1153626,10.4496559 10.2050135,9.6050135 C11.40712,8.85325529 12.1362843,7.53446707 12.1337442,6.11665397 C12.1333426,3.84165916 10.2916834,2 8.01667475,2 C5.74166609,2 3.90000692,3.84165916 3.90000692,6.11665397 C3.90000692,7.58998684 4.66897029,8.87935739 5.83897237,9.60499965 C3.97602659,10.428336 2.6649955,12.258971 2.6,14.4039748 L2.6,14.4583339 C2.6,14.7616647 2.8383353,15 3.14166609,15 C3.44499688,15 3.68333218,14.7616647 3.68333218,14.4583478 C3.73730351,12.1183436 5.65501004,10.2333356 8.01667475,10.2333356 C10.3783395,10.2333356 12.2956582,12.1183298 12.3500173,14.4583339 C12.3500173,14.7616647 12.5883526,15 12.8916834,15 C13.1950142,15 13.4333495,14.7616647 13.4333495,14.4583478 L13.4333495,14.4039748 L13.4333495,14.4039886 Z M8.01667475,9.15000781 C7.21176698,9.15136667 6.43943388,8.83222179 5.87027733,8.26306524 C5.30112077,7.69390868 4.98197589,6.92157559 4.98333475,6.11666782 C4.98333475,4.43729659 6.33770515,3.08333218 8.01667475,3.08333218 C9.69564435,3.08333218 11.0496226,4.43768437 11.0496226,6.11665397 C11.0496226,7.79562357 9.69604598,9.15000781 8.01667475,9.15000781 L8.01667475,9.15000781 Z" id="形状" fill="#666666"></path>
            </g>
        </g>
    </g>
</svg>