<?xml version="1.0" encoding="UTF-8"?>
<svg width="16px" height="16px" viewBox="0 0 16 16" version="1.1" xmlns="http://www.w3.org/2000/svg" xmlns:xlink="http://www.w3.org/1999/xlink">
    <title>修改密码</title>
    <g id="pc端" stroke="none" stroke-width="1" fill="none" fill-rule="evenodd">
        <g id="icon" transform="translate(-625.000000, -227.000000)" fill-rule="nonzero">
            <g id="修改密码" transform="translate(625.000000, 227.000000)">
                <rect id="矩形" fill="#000000" opacity="0" x="0" y="0" width="16" height="16"></rect>
                <path d="M12.6138437,6.15570313 L11.6910937,6.15570313 L11.6910937,4.92554688 C11.6910937,2.89129688 10.0353906,1.23651563 8,1.23651563 C5.96460937,1.23651563 4.30890625,2.89129688 4.30890625,4.92557813 L4.30890625,6.15571875 L3.38615625,6.15571875 C2.87651562,6.15571875 2.46339062,6.568625 2.46339062,7.07798438 L2.46339062,13.8412344 C2.46339062,14.3505938 2.87651562,14.7635156 3.38615625,14.7635156 L12.6138437,14.7635156 C13.1234844,14.7635156 13.5366094,14.3506094 13.5366094,13.8412344 L13.5366094,7.07796875 C13.5366094,6.568625 13.1234844,6.15571875 12.6138437,6.15571875 L12.6138437,6.15570313 Z M5.2316875,4.92554688 C5.2316875,3.39985938 6.47345312,2.15876563 8,2.15876563 C9.52654687,2.15876563 10.7683125,3.39985938 10.7683125,4.9255625 L10.7683125,6.15570312 L5.2316875,6.15570312 L5.2316875,4.92554687 L5.2316875,4.92554688 Z M12.6138438,13.84125 L3.38615625,13.84125 L3.38615625,7.07796875 L12.6138438,7.07796875 L12.6138438,13.84125 L12.6138438,13.84125 Z M8,12.1505625 C8.25471875,12.1505625 8.46139062,11.944 8.46139062,11.6894375 L8.46139062,9.2300625 C8.46139062,8.97548438 8.25471875,8.7689375 8,8.7689375 C7.74528125,8.7689375 7.53860937,8.97548438 7.53860937,9.2300625 L7.53860937,11.6894375 C7.53860937,11.9440156 7.74528125,12.1505625 8,12.1505625 Z" id="形状" fill="#666666"></path>
            </g>
        </g>
    </g>
</svg>