<?xml version="1.0" encoding="UTF-8"?>
<svg width="18px" height="18px" viewBox="0 0 18 18" version="1.1" xmlns="http://www.w3.org/2000/svg" xmlns:xlink="http://www.w3.org/1999/xlink">
    <title>关闭</title>
    <g id="pc端" stroke="none" stroke-width="1" fill="none" fill-rule="evenodd">
        <g id="icon" transform="translate(-711.000000, -557.000000)" fill-rule="nonzero">
            <g id="打勾_有圈" transform="translate(711.000000, 557.000000)">
                <rect id="矩形" fill="#000000" opacity="0" x="0" y="0" width="18" height="18"></rect>
                <path d="M8.86826758,1 C13.213791,1 16.7365352,4.52274414 16.7365352,8.86826758 C16.7365352,13.213791 13.213791,16.7365352 8.86826758,16.7365352 C4.52274414,16.7365352 1,13.213791 1,8.86826758 C1,4.52274414 4.52274414,1 8.86826758,1 Z M12.1937446,5.16680827 C11.8513052,4.89928679 11.3568325,4.96003679 11.0892935,5.30245866 C10.4038378,6.12742398 9.79051542,6.86528378 9.24932627,7.51603807 C8.70816173,6.86552434 8.09374325,6.12763902 7.40689895,5.30245866 C7.13935989,4.96003679 6.64488724,4.89928679 6.30244778,5.16680827 C5.96002591,5.43434734 5.89929349,5.92881999 6.16681497,6.27127702 L8.18644121,8.79352613 C6.99411531,10.2257824 6.33964556,11.0085429 6.22303197,11.1418077 C6.05403311,11.334938 5.92071397,11.6369482 6.05493404,12.0869997 C6.08777536,12.1971194 6.143808,12.2716911 6.22303197,12.3107147 C6.6456324,12.6961106 7.172351,12.5759697 7.62511076,11.9964189 L9.209,10.068 L10.827843,12.0869997 C11.2806028,12.6665505 11.85056,12.6961106 12.2731605,12.3107147 C12.3347325,12.2622948 12.3907652,12.1877231 12.4412584,12.0869997 C12.6620672,11.6465322 12.4421593,11.3252257 12.2731605,11.1320955 C12.155787,10.9979623 11.4935252,10.2070736 10.2863751,8.7594294 L12.3293775,6.27127702 C12.5968989,5.92881999 12.5361665,5.43434734 12.1937446,5.16680827 Z" id="形状" fill="#DE3A05"></path>
            </g>
        </g>
    </g>
</svg>