<?xml version="1.0" encoding="UTF-8"?>
<svg width="32px" height="32px" viewBox="0 0 32 32" version="1.1" xmlns="http://www.w3.org/2000/svg" xmlns:xlink="http://www.w3.org/1999/xlink">
    <title>压缩 2</title>
    <defs>
        <rect id="path-1" x="0" y="0" width="32" height="32"></rect>
    </defs>
    <g id="pc端" stroke="none" stroke-width="1" fill="none" fill-rule="evenodd">
        <g id="icon" transform="translate(-1009.000000, -210.000000)">
            <g id="压缩-2" transform="translate(1009.000000, 210.000000)">
                <mask id="mask-2" fill="white">
                    <use xlink:href="#path-1"></use>
                </mask>
                <g id="路径"></g>
                <g id="页面-1" mask="url(#mask-2)">
                    <g transform="translate(1.866638, 0.266662)" id="压缩">
                        <g transform="translate(0.000000, -0.000000)">
                            <path d="M21.9793168,30.4000148 L5.7696961,30.4000148 C3.18305448,30.4000148 1.06671162,28.2552122 1.06671162,25.6372909 L1.06671162,5.82940477 C1.06671162,3.21148352 3.18305448,1.06668087 5.7696961,1.06668087 L17.3703916,1.06668087 C18.6245208,1.06668087 19.8002659,1.65019332 20.56842,2.62797114 L25.7887344,9.34625055 C26.3530925,10.0716986 26.666881,10.9863943 26.666881,11.9010897 L26.666881,25.6372909 C26.6823008,28.2552122 24.5659584,30.4000148 21.9793168,30.4000148 L21.9793168,30.4000148 Z" id="路径" fill="#F5ECEC" fill-rule="nonzero"></path>
                            <path d="M22.1724768,31.4666668 L5.84317413,31.4666668 C2.62153214,31.4666668 0,28.8392007 0,25.6138673 L0,5.85279974 C0,2.62746628 2.62153214,-3.43322753e-07 5.84317413,-3.43322753e-07 L17.5295224,-3.43322753e-07 C19.1403434,-3.43322753e-07 20.6248257,0.723733062 21.6197445,1.99813303 L26.8786006,8.68480001 C27.6050491,9.59733334 28.0000692,10.745866 28.0000692,11.9101327 L28.0000692,25.6138673 C28.0156504,28.8392007 25.3941188,31.4666668 22.1724768,31.4666668 L22.1724768,31.4666668 Z M5.84317413,2.21839976 C3.83754418,2.21839976 2.21093059,3.85466637 2.21093059,5.85279974 L2.21093059,25.6138673 C2.21093059,27.627734 3.83754418,29.2482667 5.84317413,29.2482667 L22.156685,29.2482667 C24.1623149,29.2482667 25.7889278,27.6120006 25.7889278,25.6138673 L25.7889278,11.9101327 C25.7889278,11.2493327 25.5678342,10.5885327 25.1414404,10.037866 L19.8825843,3.35119981 C19.3140592,2.62746647 18.4454794,2.21839976 17.5295224,2.21839976 L5.84317413,2.21839976 L5.84317413,2.21839976 Z" id="形状" fill="#DBBDBD"></path>
                            <g id="编组" transform="translate(10.933350, 9.066681)" fill="#BC8585">
                                <path d="M9.53674317e-08,15.1999815 L4.8000001,15.1999815 L4.8000001,20.2666481 L9.53674317e-08,20.2666481 L9.53674317e-08,15.1999815 Z" id="路径"></path>
                                <path d="M-4.76837148e-09,11.540741 L2.25882363,11.540741 L2.25882363,13.7925923 L-4.76837148e-09,13.7925923 L-4.76837148e-09,11.540741 Z" id="路径"></path>
                                <path d="M2.25885021,9.28887939 L4.51767385,9.28887939 L4.51767385,11.5407319 L2.25885021,11.5407319 L2.25885021,9.28887939 Z" id="路径"></path>
                                <path d="M-4.76837148e-09,7.03701782 L2.25882363,7.03701782 L2.25882363,9.28886914 L-4.76837148e-09,9.28886914 L-4.76837148e-09,7.03701782 Z" id="路径"></path>
                                <path d="M2.25885021,4.78518677 L4.51767385,4.78518677 L4.51767385,7.03703856 L2.25885021,7.03703856 L2.25885021,4.78518677 Z" id="路径"></path>
                                <path d="M-4.76837148e-09,2.25183105 L2.25882363,2.25183105 L2.25882363,4.50368285 L-4.76837148e-09,4.50368285 L-4.76837148e-09,2.25183105 Z" id="路径"></path>
                                <path d="M2.25885021,0 L4.51767385,0 L4.51767385,2.2518518 L2.25885021,2.2518518 L2.25885021,0 Z" id="路径"></path>
                            </g>
                        </g>
                    </g>
                </g>
            </g>
        </g>
    </g>
</svg>