<?xml version="1.0" encoding="UTF-8"?>
<svg width="16px" height="16px" viewBox="0 0 16 16" version="1.1" xmlns="http://www.w3.org/2000/svg" xmlns:xlink="http://www.w3.org/1999/xlink">
    <title>垃圾桶</title>
    <g id="pc端" stroke="none" stroke-width="1" fill="none" fill-rule="evenodd">
        <g id="icon" transform="translate(-307.000000, -234.000000)" fill-rule="nonzero">
            <g id="编组-14" transform="translate(307.000000, 232.000000)">
                <g id="编组-13" transform="translate(1.000000, 0.000000)" fill="#000000" opacity="0">
                    <g id="数据开发（工作流、数据探索）—最近打开" transform="translate(0.000000, 4.000000)">
                        <rect id="矩形" x="0" y="0" width="14" height="14"></rect>
                    </g>
                </g>
                <g id="垃圾桶" transform="translate(0.000000, 2.000000)">
                    <rect id="矩形" fill="#000000" opacity="0" x="0" y="0" width="16" height="16"></rect>
                    <path d="M5.71428572,3.85714287 L5.71428572,3.67142857 C5.71428572,3.20714286 5.80714287,2.92857143 5.9,2.74285716 C5.99285715,2.55714288 6.17857142,2.37142858 6.45714285,2.1857143 C6.64285713,2.09285715 6.92142856,2 7.38571429,2 L9.61428571,2 C10.0785714,2 10.3571428,2.09285715 10.5428571,2.1857143 C10.7285714,2.27857145 10.9142857,2.46428573 11.1,2.74285716 C11.1928572,2.92857143 11.2857143,3.20714286 11.2857143,3.67142857 L11.2857143,3.85714287 L14.5357143,3.85714287 C14.8142857,3.85714287 15,4.04285715 15,4.32142858 C15,4.6 14.8142857,4.78571428 14.5357143,4.78571428 L2.46428573,4.78571428 C2.1857143,4.78571428 2,4.6 2,4.32142858 C2,4.04285715 2.18571428,3.85714287 2.46428573,3.85714287 L5.71428572,3.85714287 Z M6.64285715,3.85714287 L10.3571428,3.85714287 L10.3571428,3.67142857 C10.3571428,3.39285714 10.3571428,3.29999999 10.2642857,3.20714286 C10.2642857,3.11428571 10.1714286,3.11428571 10.0785714,3.02142858 C10.0785714,2.92857143 9.89285714,2.92857143 9.61428571,2.92857143 L7.38571429,2.92857143 C7.10714286,2.92857143 7.01428571,2.92857143 6.92142858,3.02142858 C6.82857143,3.02142858 6.82857143,3.11428573 6.73571428,3.20714286 C6.64285715,3.20714286 6.64285715,3.39285714 6.64285715,3.67142857 L6.64285715,3.85714287 L6.64285715,3.85714287 Z M4.78571428,6.17857142 L4.78571428,12.2142857 C4.78571428,12.9571429 4.78571428,13.2357143 4.87857143,13.4214286 C4.97142858,13.6071428 5.06428571,13.7 5.15714286,13.7928571 C5.43571429,14.0714286 5.62142857,14.0714286 6.27142857,14.0714286 L10.8214286,14.0714286 C11.4714286,14.0714286 11.6571429,14.0714286 11.8428571,13.8857143 C12.0285714,13.7928571 12.1214286,13.7 12.1214286,13.5142857 C12.2142857,13.2357143 12.2142857,13.05 12.2142857,12.2142857 L12.2142857,6.17857142 C12.2142857,5.9 12.4,5.71428572 12.6785714,5.71428572 C12.9571429,5.71428572 13.1428571,5.9 13.1428571,6.17857142 L13.1428571,12.4 C13.1428571,13.3285714 13.05,13.6071429 12.8642857,13.9785714 C12.6785714,14.35 12.4928571,14.5357143 12.1214286,14.7214286 C11.8428571,14.9071428 11.5642857,15 10.7285714,15 L6.27142857,15 C5.43571429,15 5.15714286,14.9071428 4.87857143,14.7214286 C4.6,14.5357143 4.32142858,14.2571429 4.1357143,13.9785714 C3.95000002,13.6071428 3.85714287,13.2357143 3.85714287,12.4 L3.85714287,6.17857142 C3.85714287,5.9 4.04285715,5.71428572 4.32142858,5.71428572 C4.6,5.71428572 4.78571428,5.9 4.78571428,6.17857142 Z M7.10714286,6.64285715 C7.38571429,6.64285715 7.57142857,6.82857143 7.57142857,7.10714286 L7.57142857,11.75 C7.57142857,12.0285714 7.38571429,12.2142857 7.10714286,12.2142857 C6.82857143,12.2142857 6.64285715,12.0285714 6.64285715,11.75 L6.64285715,7.10714286 C6.64285715,6.82857143 6.82857143,6.64285715 7.10714286,6.64285715 L7.10714286,6.64285715 Z M9.89285714,6.64285715 C10.1714286,6.64285715 10.3571428,6.82857143 10.3571428,7.10714286 L10.3571428,11.75 C10.3571428,12.0285714 10.1714286,12.2142857 9.89285714,12.2142857 C9.61428571,12.2142857 9.42857143,12.0285714 9.42857143,11.75 L9.42857143,7.10714286 C9.42857143,6.82857143 9.61428571,6.64285715 9.89285714,6.64285715 L9.89285714,6.64285715 Z" id="形状" fill="#666666"></path>
                </g>
            </g>
        </g>
    </g>
</svg>