<?xml version="1.0" encoding="UTF-8"?>
<svg width="18px" height="18px" viewBox="0 0 18 18" version="1.1" xmlns="http://www.w3.org/2000/svg" xmlns:xlink="http://www.w3.org/1999/xlink">
    <title>完成</title>
    <g id="pc端" stroke="none" stroke-width="1" fill="none" fill-rule="evenodd">
        <g id="icon" transform="translate(-624.000000, -556.000000)" fill-rule="nonzero">
            <g id="编组-8" transform="translate(624.000000, 556.000000)">
                <rect id="矩形" fill="#000000" opacity="0" x="0" y="0" width="18" height="18"></rect>
                <path d="M8.86826758,1 C4.52274414,1 1,4.52274414 1,8.86826758 C1,13.213791 4.52274414,16.7365352 8.86826758,16.7365352 C13.213791,16.7365352 16.7365352,13.213791 16.7365352,8.86826758 C16.7365352,4.52274414 13.213791,1 8.86826758,1 Z M13.0385723,6.88803906 L8.49511914,12.7037617 C8.04235937,13.2833125 7.20799609,13.2791113 6.76573047,12.6891191 L4.58843359,9.78458008 C4.32780273,9.43686719 4.39836133,8.94371289 4.74607422,8.68306445 C5.09376953,8.42241602 5.58695898,8.49297461 5.84758984,8.8406875 L7.6314707,11.3518105 L11.7984883,5.9192207 C12.0660273,5.57679883 12.5605,5.51604883 12.9029395,5.78357031 C13.2453613,6.05110937 13.3060937,6.54558203 13.0385723,6.88803906 Z" id="形状" fill="#52C41A"></path>
            </g>
        </g>
    </g>
</svg>