<?xml version="1.0" encoding="UTF-8"?>
<svg width="18px" height="18px" viewBox="0 0 18 18" version="1.1" xmlns="http://www.w3.org/2000/svg" xmlns:xlink="http://www.w3.org/1999/xlink">
    <title>工作台</title>
    <g id="pc端" stroke="none" stroke-width="1" fill="none" fill-rule="evenodd">
        <g id="icon" transform="translate(-77.000000, -96.000000)" fill-rule="nonzero">
            <g id="编组-12" transform="translate(72.000000, 96.000000)">
                <g id="工作台" transform="translate(5.000000, 0.000000)">
                    <rect id="矩形" fill="#000000" opacity="0" x="0" y="0" width="18" height="18"></rect>
                    <path d="M14.9279941,2.39999414 C15.7763145,2.39999414 16.4640059,3.08893359 16.4640059,3.9387832 L16.4640059,11.9693496 C16.4640059,12.8191816 15.7763145,13.5081387 14.9279941,13.5081387 L9.52799414,13.5081035 L9.52799414,14.5900898 L13.8720059,14.5900898 L13.8720059,15.6479941 L4.12799414,15.6479941 L4.12799414,14.5900898 L8.47200586,14.5900898 L8.47200586,13.5080859 L3.07200586,13.5081035 C2.22368555,13.5081035 1.53599414,12.8191641 1.53599414,11.9693145 L1.53599414,3.9387832 C1.53599414,3.08893359 2.22368555,2.39999414 3.07200586,2.39999414 L14.9279941,2.39999414 Z M14.9279941,3.45791602 L3.07200586,3.45791602 C2.80691016,3.45791602 2.592,3.67321289 2.592,3.9387832 L2.592,11.9693496 C2.592,12.2349199 2.80691016,12.4501992 3.07200586,12.4501992 L14.9279941,12.4501992 C15.1930898,12.4501992 15.408,12.2349199 15.408,11.969332 L15.408,3.9387832 C15.408,3.67321289 15.1930898,3.45791602 14.9279941,3.45791602 L14.9279941,3.45791602 Z M12.6,6.14399414 L13.3467188,6.89206641 L11.3532715,8.88908203 C10.6971855,9.54636328 9.63348047,9.54636328 8.97741211,8.88908203 L8.05057031,7.96058789 C7.80688477,7.71644531 7.41178125,7.71644531 7.1680957,7.96058789 L5.35468359,9.77728711 L4.60798242,9.02923242 L6.42139453,7.2125332 C7.07748047,6.55525195 8.14118555,6.55525195 8.79727148,7.2125332 L9.7240957,8.14102734 C9.96778125,8.38515234 10.3628848,8.38515234 10.6065703,8.14102734 L12.6,6.14399414 Z" id="形状" fill="#DE3A05"></path>
                </g>
            </g>
        </g>
    </g>
</svg>