<?xml version="1.0" encoding="UTF-8"?>
<svg width="18px" height="18px" viewBox="0 0 18 18" version="1.1" xmlns="http://www.w3.org/2000/svg" xmlns:xlink="http://www.w3.org/1999/xlink">
    <title>数据开发（工作流、数据探索）—最近打开</title>
    <g id="pc端" stroke="none" stroke-width="1" fill="none" fill-rule="evenodd">
        <g id="icon" transform="translate(-169.000000, -378.000000)" fill-rule="nonzero">
            <g id="收藏" transform="translate(169.000000, 378.000000)">
                <rect id="矩形" fill="#000000" opacity="0" x="0" y="0" width="18" height="18"></rect>
                <path d="M5.8888125,16.112625 C5.25749999,16.504875 4.4319375,16.302 4.04850001,15.663375 C3.86672886,15.3601572 3.8102342,14.9980533 3.89100001,14.653875 L4.708125,11.1691875 C4.72795189,11.0865482 4.70080159,10.999696 4.63743751,10.9430625 L1.96275001,8.6124375 C1.40718751,8.1286875 1.34306251,7.2826875 1.818,6.71868751 C2.04625864,6.4469058 2.37365671,6.27760387 2.72737499,6.24843751 L6.2375625,5.9625 C6.3140625,5.95612499 6.38249999,5.9056875 6.41381251,5.82899999 L7.76624999,2.52131251 C8.04806249,1.83225001 8.8318125,1.50318751 9.51562499,1.79249999 C9.84174891,1.93109657 10.0997824,2.19310703 10.233375,2.52131251 L11.5858125,5.82881251 C11.617125,5.9056875 11.6855625,5.9563125 11.7620625,5.9625 L15.272625,6.24862499 C16.00875,6.30862499 16.5538125,6.9598125 16.4955,7.69912501 C16.4681077,8.05193479 16.3035254,8.37995501 16.0370625,8.61281249 L13.362375,10.9434375 C13.300125,10.997625 13.272,11.085375 13.2916875,11.169375 L14.1088125,14.6540625 C14.2779375,15.375 13.8388125,16.101375 13.122,16.2751875 C12.7768055,16.3589656 12.4124229,16.3004536 12.1108125,16.1128125 L9.10537501,14.2453125 C9.04083072,14.204799 8.95879429,14.204799 8.89425,14.2453125 L5.88862499,16.1128125 L5.8888125,16.112625 Z M9.69937501,13.289625 L12.7048125,15.157125 C12.7509375,15.185625 12.8053125,15.1944375 12.856875,15.181875 C12.9695625,15.1545 13.0425,15.03375 13.0138125,14.91075 L12.1966875,11.4260625 C12.0816042,10.9375314 12.2457785,10.4253885 12.6234375,10.0948125 L15.298125,7.76437501 C15.3418125,7.72631251 15.369375,7.67100001 15.37425,7.610625 C15.3841875,7.4851875 15.2953125,7.37906251 15.1813125,7.369875 L11.67075,7.0835625 C11.1691328,7.04145746 10.7337841,6.72092594 10.544625,6.2544375 L9.19218749,2.9469375 C9.17104106,2.89380003 9.12971745,2.85119558 9.07725001,2.82843751 C8.9735625,2.78456251 8.85356251,2.835 8.80781251,2.9469375 L7.45518749,6.2544375 C7.26602844,6.72092594 6.83067966,7.04145746 6.32906249,7.0835625 L2.8186875,7.369875 C2.76399048,7.37463691 2.71347942,7.40110794 2.67843749,7.44337499 C2.59895701,7.53936384 2.60929472,7.68094902 2.70187501,7.76437501 L5.37656251,10.095 C5.75422154,10.4255759 5.91839581,10.9377189 5.8033125,11.42625 L4.98618751,14.91075 C4.97221943,14.9698882 4.98176557,15.0321398 5.01281249,15.084375 C5.07412499,15.1861875 5.19881249,15.21675 5.29518749,15.1569375 L8.3008125,13.289625 C8.72893866,13.0232139 9.27124884,13.0232139 9.69937501,13.289625 Z" id="形状" fill="#989694"></path>
            </g>
        </g>
    </g>
</svg>