<?xml version="1.0" encoding="UTF-8"?>
<svg width="14px" height="12.25px" viewBox="0 0 14 12.25" version="1.1" xmlns="http://www.w3.org/2000/svg" xmlns:xlink="http://www.w3.org/1999/xlink">
    <title>文件管理</title>
    <g id="pc端" stroke="none" stroke-width="1" fill="none" fill-rule="evenodd">
        <g id="icon" transform="translate(-94.000000, -205.000000)" fill-rule="nonzero">
            <g id="文件管理" transform="translate(94.000000, 205.000000)">
                <path d="M5.99666667,0 L1.81481481,0 C0.812520269,0 0,0.825625458 0,1.84408604 L0,10.405914 C0,11.4243746 0.812520269,12.25 1.81481481,12.25 L12.1851852,12.25 C13.1874797,12.25 14,11.4243746 14,10.405914 L14,3.94305109 C14,2.92459051 13.1874797,2.09896507 12.1851852,2.09896507 L8.01435185,2.09896507 C7.9699223,2.09897175 7.92858462,2.0758569 7.90481481,2.03771507 L6.9837963,0.553225831 C6.77008566,0.208798216 6.39737411,0 5.99666667,0 Z" id="形状" fill="#DE3A05"></path>
                <path d="M4.92592593,7.77150539 L9.07407407,7.77150539 C9.41975309,7.77150539 9.59259259,7.94713263 9.59259259,8.2983871 L9.59259259,8.2983871 C9.59259259,8.64964158 9.41975309,8.82526882 9.07407407,8.82526882 L4.92592593,8.82526882 C4.58024691,8.82526882 4.40740741,8.64964158 4.40740741,8.2983871 L4.40740741,8.2983871 C4.40740741,7.94713263 4.58024691,7.77150539 4.92592593,7.77150539 L4.92592593,7.77150539 Z" id="路径" fill="#FFFFFF"></path>
            </g>
        </g>
    </g>
</svg>