<?xml version="1.0" encoding="UTF-8"?>
<svg width="16px" height="16px" viewBox="0 0 16 16" version="1.1" xmlns="http://www.w3.org/2000/svg" xmlns:xlink="http://www.w3.org/1999/xlink">
    <title>文件</title>
    <g id="pc端" stroke="none" stroke-width="1" fill="none" fill-rule="evenodd">
        <g id="icon" transform="translate(-93.000000, -266.000000)" fill-rule="nonzero">
            <g id="文件" transform="translate(93.000000, 266.000000)">
                <rect id="矩形" fill="#000000" opacity="0" x="0" y="0" width="16" height="16"></rect>
                <path d="M12.72,1.73866667 C13.008,2.00533333 13.2373333,2.22666667 13.408,2.40266667 C13.5786667,2.57866667 13.7093333,2.728 13.8,2.85066667 C13.8906667,2.97333333 13.9466667,3.07733333 13.968,3.16266667 C13.9893333,3.248 14,3.32266667 14,3.38666667 L14,3.64266667 L11.632,3.64266667 C11.5253333,3.64266667 11.432,3.60266667 11.352,3.52266667 C11.272,3.44266667 11.2053333,3.34933333 11.152,3.24266667 C11.0986667,3.136 11.0586667,3.02666667 11.032,2.91466667 C11.0053333,2.80266667 10.992,2.71466667 10.992,2.65066667 L10.992,0.666666667 L11.04,0.666666667 C11.1253333,0.666666667 11.2133333,0.68 11.304,0.706666667 C11.3946667,0.733333333 11.4986667,0.784 11.616,0.858666667 C11.7333333,0.933333333 11.88,1.04 12.056,1.17866667 C12.232,1.31733333 12.4533333,1.504 12.72,1.73866667 Z M9.984,2.66666667 C9.984,2.88 10.016,3.10133333 10.08,3.33066667 C10.144,3.56 10.2453333,3.77333333 10.384,3.97066667 C10.5226667,4.168 10.6986667,4.33066667 10.912,4.45866667 C11.1253333,4.58666667 11.376,4.65066667 11.664,4.65066667 L14,4.65066667 L14,13.6746667 C14,13.984 13.9386667,14.2613333 13.816,14.5066667 C13.6933333,14.752 13.5306667,14.96 13.328,15.1306667 C13.1253333,15.3013333 12.9013333,15.4346667 12.656,15.5306667 C12.4106667,15.6266667 12.1706667,15.6746667 11.936,15.6746667 L4.064,15.6746667 C3.86133333,15.6746667 3.64,15.616 3.4,15.4986667 C3.16,15.3813333 2.936,15.2266667 2.728,15.0346667 C2.52,14.8426667 2.34666667,14.624 2.208,14.3786667 C2.06933333,14.1333333 2,13.8773333 2,13.6106667 L2,2.73066667 C2,2.50666667 2.05066667,2.27466667 2.152,2.03466667 C2.25333333,1.79466667 2.392,1.57333333 2.568,1.37066667 C2.744,1.168 2.944,1 3.168,0.866666667 C3.392,0.733333333 3.62666667,0.666666667 3.872,0.666666667 L9.984,0.666666667 L9.984,2.66666667 Z M10.992,12.6506667 C11.2693333,12.6506667 11.504,12.552 11.696,12.3546667 C11.888,12.1573333 11.984,11.92 11.984,11.6426667 C11.984,11.3653333 11.888,11.1306667 11.696,10.9386667 C11.504,10.7466667 11.2693333,10.6506667 10.992,10.6506667 L4.992,10.6506667 C4.71466667,10.6506667 4.48,10.7466667 4.288,10.9386667 C4.096,11.1306667 4,11.3653333 4,11.6426667 C4,11.92 4.096,12.1573333 4.288,12.3546667 C4.48,12.552 4.71466667,12.6506667 4.992,12.6506667 L10.992,12.6506667 Z M11.984,7.65866667 C11.984,7.38133333 11.888,7.144 11.696,6.94666667 C11.504,6.74933333 11.2693333,6.65066667 10.992,6.65066667 L4.992,6.65066667 C4.71466667,6.65066667 4.48,6.74933333 4.288,6.94666667 C4.096,7.144 4,7.38133333 4,7.65866667 C4,7.936 4.096,8.17066667 4.288,8.36266667 C4.48,8.55466667 4.71466667,8.65066667 4.992,8.65066667 L10.992,8.65066667 C11.2693333,8.65066667 11.504,8.55466667 11.696,8.36266667 C11.888,8.17066667 11.984,7.936 11.984,7.65866667 Z" id="形状" fill="#FEBE14"></path>
            </g>
        </g>
    </g>
</svg>