<?xml version="1.0" encoding="UTF-8"?>
<svg width="12px" height="14px" viewBox="0 0 12 14" version="1.1" xmlns="http://www.w3.org/2000/svg" xmlns:xlink="http://www.w3.org/1999/xlink">
    <title>文件 (2)</title>
    <g id="pc端" stroke="none" stroke-width="1" fill="none" fill-rule="evenodd">
        <g id="icon" transform="translate(-208.000000, -204.000000)" fill="#949DA6" fill-rule="nonzero">
            <g id="文件-(2)" transform="translate(208.000000, 204.000000)">
                <path d="M10.303479,4.0834385 L7.80026082,1.65090927 L7.80026082,4.0834385 L10.303479,4.0834385 Z M6.59980649,5.2500631 L6.59980649,1.16679287 L1.79984014,1.16679287 C1.63156788,1.16679287 1.4894339,1.22321983 1.37343822,1.33607375 C1.25989257,1.44353639 1.19690635,1.59388378 1.19994952,1.75018931 L1.19994952,12.2503155 C1.19656804,12.4066854 1.25960939,12.5571644 1.37343822,12.6644311 C1.488873,12.7771728 1.63100697,12.8335437 1.79984014,12.8335437 L10.1999916,12.8335437 C10.3691613,12.8335437 10.5114635,12.7771728 10.6268983,12.6644311 C10.740196,12.5568505 10.8029314,12.4065187 10.7997139,12.2503155 L10.7997139,5.25023137 L6.59980649,5.2500631 Z M1.80017669,0 L7.80026082,0 L12,4.0834385 L12,12.2501472 C12,12.7322444 11.8241555,13.1465282 11.472803,13.4867727 C11.1214505,13.8270172 10.6972361,14 10.1998233,14 L1.79984014,14 C1.30343696,14 0.879278673,13.8289242 0.527365277,13.4867727 C0.175676244,13.1465282 0,12.7322444 0,12.2501472 L0,1.75002103 C0,1.26764344 0.175788426,0.855434961 0.527365277,0.513395594 C0.878942128,0.171356226 1.30310042,0.000224361671 1.79984014,0 L1.80017669,0 Z" id="形状"></path>
            </g>
        </g>
    </g>
</svg>