<?xml version="1.0" encoding="UTF-8"?>
<svg width="18px" height="18px" viewBox="0 0 18 18" version="1.1" xmlns="http://www.w3.org/2000/svg" xmlns:xlink="http://www.w3.org/1999/xlink">
    <title>暂停</title>
    <g id="pc端" stroke="none" stroke-width="1" fill="none" fill-rule="evenodd">
        <g id="icon" transform="translate(-797.000000, -557.000000)" fill-rule="nonzero">
            <g id="打勾_有圈" transform="translate(797.000000, 557.000000)">
                <rect id="矩形" fill="#000000" opacity="0" x="0" y="0" width="18" height="18"></rect>
                <path d="M9,1.13173242 C4.65447656,1.13173242 1.13173242,4.65447656 1.13173242,9 C1.13173242,13.3455234 4.65447656,16.8682676 9,16.8682676 C13.3455234,16.8682676 16.8682676,13.3455234 16.8682676,9 C16.8682676,4.65447656 13.3455234,1.13173242 9,1.13173242 Z M7.00436937,6.13173242 C7.48631345,6.13173242 7.87700633,6.52242529 7.87700633,7.00436937 L7.87700633,12.2590955 C7.87700633,12.7410396 7.48631345,13.1317324 7.00436937,13.1317324 C6.52242529,13.1317324 6.13173242,12.7410396 6.13173242,12.2590955 L6.13173242,7.00436937 C6.13173242,6.52242529 6.52242529,6.13173242 7.00436937,6.13173242 Z M11.001164,6.13173242 C11.4813378,6.13173242 11.8705955,6.52099019 11.8705955,7.00116398 L11.8705955,12.2623009 C11.8705955,12.7424747 11.4813378,13.1317324 11.001164,13.1317324 C10.5209902,13.1317324 10.1317324,12.7424747 10.1317324,12.2623009 L10.1317324,7.00116398 C10.1317324,6.52099019 10.5209902,6.13173242 11.001164,6.13173242 Z" id="形状" fill="#1A9FE7"></path>
            </g>
        </g>
    </g>
</svg>