<?xml version="1.0" encoding="UTF-8"?>
<svg width="14px" height="14px" viewBox="0 0 14 14" version="1.1" xmlns="http://www.w3.org/2000/svg" xmlns:xlink="http://www.w3.org/1999/xlink">
    <title>矩形</title>
    <g id="pc端" stroke="none" stroke-width="1" fill="none" fill-rule="evenodd">
        <g id="icon" transform="translate(-93.000000, -235.000000)" fill-rule="nonzero">
            <g id="编组-13" transform="translate(93.000000, 232.000000)">
                <g id="数据开发（工作流、数据探索）—最近打开" transform="translate(0.000000, 3.000000)">
                    <rect id="矩形" fill="#000000" opacity="0" x="0" y="0" width="14" height="14"></rect>
                    <path d="M3.24499999,2.69000001 L3.148,2.813 C3.19,2.66299999 3.221,2.545 3.242,2.456 L3.33599999,2.056 C3.43199999,1.76599999 3.36999999,1.593 3.081,1.496 C2.863,1.45899999 2.67100001,1.491 2.575,1.684 L2.113,3.632 C2.049,3.862 2.02699999,4.03400001 2.316,4.131 L4.12699999,4.591 C4.417,4.687 4.62399999,4.565 4.70700001,4.325 C4.788,4.08399999 4.61100001,3.847 4.395,3.80300001 L3.628,3.605 C3.69900001,3.554 3.69400001,3.52300001 3.795,3.443 C4.943,2.54300001 5.937,2.055 7.19,2.055 C10.08,2.055 12.615,4.65699999 12.615,7.547 C12.615,10.438 10.08,12.99 7.19,12.99 C4.3,12.99 1.765,10.438 1.765,7.547 C1.765,7.258 1.575,7.027 1.28499999,7.027 C0.99599999,7.027 0.820000002,7.258 0.820000002,7.547 C0.820000002,11.017 3.72100001,13.943 7.19,13.943 C10.658,13.943 13.584,11.008 13.584,7.539 C13.584,4.07000001 10.814,1.154 7.202,1.154 C5.73971821,1.16481612 4.33204541,1.71088075 3.24499999,2.689 L3.24499999,2.69000001 Z M6.42999999,5.501 L6.42999999,8.54200001 C6.42999999,8.83200001 6.62299999,9.024 6.91200001,9.024 L9.1,9.024 C9.39000001,9.024 9.57,8.83100001 9.57,8.54200001 C9.57,8.253 9.39000001,8.11800001 9.1,8.118 L7.37,8.118 L7.37,5.502 C7.37,5.213 7.20599999,5.01499999 6.916,5.01499999 C6.627,5.01499999 6.431,5.213 6.431,5.502 L6.42999999,5.501 Z" id="形状" fill="#666666"></path>
                </g>
            </g>
        </g>
    </g>
</svg>