<?xml version="1.0" encoding="UTF-8"?>
<svg width="18px" height="18px" viewBox="0 0 18 18" version="1.1" xmlns="http://www.w3.org/2000/svg" xmlns:xlink="http://www.w3.org/1999/xlink">
    <title>编组 14</title>
    <g id="pc端" stroke="none" stroke-width="1" fill="none" fill-rule="evenodd">
        <g id="首页-搜索" transform="translate(-420.000000, -67.000000)">
            <g id="编组-13" transform="translate(420.000000, 66.000000)">
                <g id="编组-14" transform="translate(0.000000, 1.000000)">
                    <circle id="椭圆形" fill="#DE3A05" cx="9" cy="9" r="9"></circle>
                    <path d="M7.95258196,4.80004444 C7.11663643,4.80004444 6.31492916,5.1321226 5.72382641,5.72322535 C5.13272366,6.31432811 4.80064549,7.1160355 4.80064549,7.95198103 C4.80064549,8.78792656 5.13272366,9.58963358 5.72382641,10.1807363 C6.31492916,10.7718391 7.11663643,11.1039172 7.95258196,11.1039172 C8.78852748,11.1039172 9.59023476,10.7718391 10.1813375,10.1807363 C10.7724403,9.58963358 11.1045184,8.78792656 11.1045184,7.95198103 C11.1045184,7.1160355 10.7724403,6.31432811 10.1813375,5.72322535 C9.59023476,5.1321226 8.78852748,4.80004444 7.95258196,4.80004444 L7.95258196,4.80004444 Z M3.75,7.95198103 C3.75,7.28317153 3.90981269,6.62404291 4.21587693,6.02937426 C4.52194117,5.43470561 4.9655133,4.92167145 5.50972869,4.53290963 C6.05394409,4.14414781 6.68308501,3.89088599 7.34486492,3.79417241 C8.00664482,3.69745882 8.68195093,3.76008664 9.31465888,3.97685098 C9.94736684,4.19361532 10.5192035,4.55825565 10.9826449,5.0404675 C11.4460862,5.52267936 11.7877475,6.108536 11.9792334,6.74934741 C12.1707193,7.39015883 12.2064997,8.06741785 12.083601,8.7248386 C11.9607022,9.38225936 11.6826732,10.0008547 11.2726215,10.5292142 L14.1025357,13.3591274 C14.1982275,13.4582044 14.251177,13.5909023 14.25,13.7286402 C14.2487832,13.8663782 14.1935352,13.9981358 14.0961361,14.0955349 C13.998737,14.192934 13.8669794,14.2481821 13.7292414,14.2493988 C13.5915035,14.2505759 13.4588056,14.1976263 13.3597286,14.1019345 L10.5298154,11.2720204 C9.90859891,11.7543174 9.16451358,12.0526227 8.38217264,12.1330153 C7.5998317,12.2134078 6.81063031,12.0726619 6.10431111,11.7267811 C5.39799191,11.3809004 4.80289952,10.8437653 4.38670426,10.1764559 C3.970509,9.50914648 3.75,8.73844165 3.75,7.95198103 L3.75,7.95198103 Z" id="Vector" fill="#FFFFFF"></path>
                </g>
            </g>
        </g>
    </g>
</svg>