<?xml version="1.0" encoding="UTF-8"?>
<svg width="16px" height="16px" viewBox="0 0 16 16" version="1.1" xmlns="http://www.w3.org/2000/svg" xmlns:xlink="http://www.w3.org/1999/xlink">
    <title>编组 32</title>
    <g id="pc端" stroke="none" stroke-width="1" fill="none" fill-rule="evenodd">
        <g id="icon" transform="translate(-558.000000, -227.000000)">
            <g id="编组-32" transform="translate(558.000000, 227.000000)">
                <path d="M3.5,0 L12.5,0 C13.3284271,-1.52179594e-16 14,0.671572875 14,1.5 L14,8 C14,9.1045695 13.1045695,10 12,10 L4,10 C2.8954305,10 2,9.1045695 2,8 L2,1.5 C2,0.671572875 2.67157288,1.52179594e-16 3.5,0 Z" id="矩形" fill="#FBC3B1"></path>
                <g id="文件管理" transform="translate(0.000000, 2.500000)" fill-rule="nonzero">
                    <path d="M6.425,0 L1.94444444,0 C0.870557431,0 0,0.884598705 0,1.97580647 L0,11.1491936 C0,12.2404013 0.870557431,13.125 1.94444444,13.125 L14.0555556,13.125 C15.1294426,13.125 16,12.2404013 16,11.1491936 L16,4.2246976 C16,3.13348983 15.1294426,2.24889115 14.0555556,2.24889115 L8.58680556,2.24889115 C8.53920247,2.24889831 8.4949121,2.22413239 8.46944444,2.18326615 L7.48263889,0.592741961 C7.25366321,0.223712374 6.8543294,0 6.425,0 Z" id="形状" fill="#DE3A05"></path>
                    <path d="M5.27777778,8.32661291 L9.72222222,8.32661291 C10.0925926,8.32661291 10.2777778,8.51478496 10.2777778,8.89112904 L10.2777778,8.89112904 C10.2777778,9.26747313 10.0925926,9.45564517 9.72222222,9.45564517 L5.27777778,9.45564517 C4.90740741,9.45564517 4.72222222,9.26747313 4.72222222,8.89112904 L4.72222222,8.89112904 C4.72222222,8.51478496 4.90740741,8.32661291 5.27777778,8.32661291 L5.27777778,8.32661291 Z" id="路径" fill="#F3E8DE"></path>
                </g>
            </g>
        </g>
    </g>
</svg>