<?xml version="1.0" encoding="UTF-8"?>
<svg width="32px" height="32px" viewBox="0 0 32 32" version="1.1" xmlns="http://www.w3.org/2000/svg" xmlns:xlink="http://www.w3.org/1999/xlink">
    <title>编组 5</title>
    <defs>
        <linearGradient x1="4.65291954%" y1="17.926002%" x2="81.3578453%" y2="42.8137009%" id="linearGradient-1">
            <stop stop-color="#5EDCC6" offset="0%"></stop>
            <stop stop-color="#14BDA7" offset="100%"></stop>
        </linearGradient>
        <rect id="path-2" x="0" y="0" width="32" height="27" rx="4"></rect>
        <rect id="path-4" x="4.5" y="18.5" width="9" height="3" rx="1.5"></rect>
        <filter x="-33.3%" y="-100.0%" width="166.7%" height="300.0%" filterUnits="objectBoundingBox" id="filter-5">
            <feOffset dx="0" dy="0" in="SourceAlpha" result="shadowOffsetOuter1"></feOffset>
            <feGaussianBlur stdDeviation="1" in="shadowOffsetOuter1" result="shadowBlurOuter1"></feGaussianBlur>
            <feColorMatrix values="0 0 0 0 0.184313725   0 0 0 0 0.784313725   0 0 0 0 0.698039216  0 0 0 1 0" type="matrix" in="shadowBlurOuter1"></feColorMatrix>
        </filter>
        <linearGradient x1="56.9828428%" y1="9.66150385%" x2="50%" y2="107.76269%" id="linearGradient-6">
            <stop stop-color="#27C5B0" offset="0%"></stop>
            <stop stop-color="#7CD6CA" offset="100%"></stop>
        </linearGradient>
    </defs>
    <g id="pc端" stroke="none" stroke-width="1" fill="none" fill-rule="evenodd">
        <g id="icon" transform="translate(-1202.000000, -99.000000)">
            <g id="编组-5" transform="translate(1202.000000, 99.000000)">
                <path d="M0,8.98417383 L0,4.22122431 C0.360693404,1.59292523 2.00343764,0.18585046 4.9282327,0 C4.90861813,0.0511505245 8.09920723,0.0511505245 14.5,0 C16.7923139,0.544839492 18.1254233,2.12843388 18.4993283,4.75078315 C18.544812,4.82830062 12.3783692,6.23943085 0,8.98417383 Z" id="路径-9" fill="#8CE3D6"></path>
                <g id="路径-10" transform="translate(0.000000, 4.221224)">
                    <mask id="mask-3" fill="white">
                        <use xlink:href="#path-2"></use>
                    </mask>
                    <use id="蒙版" fill="url(#linearGradient-1)" xlink:href="#path-2"></use>
                    <g id="矩形" mask="url(#mask-3)">
                        <use fill="black" fill-opacity="1" filter="url(#filter-5)" xlink:href="#path-4"></use>
                        <use fill="#C2FFF5" fill-rule="evenodd" xlink:href="#path-4"></use>
                    </g>
                    <path d="M30.3076898,0.555155517 C21.1196467,9.59344799 17.9268329,18.4083962 20.7292485,27 C20.7482123,27.0350332 24.4768768,27.0350332 31.9152419,27 L32.4590562,1.72636837 L30.3076898,0.555155517 Z" fill="url(#linearGradient-6)" mask="url(#mask-3)"></path>
                </g>
            </g>
        </g>
    </g>
</svg>