<?xml version="1.0" encoding="UTF-8"?>
<svg width="16px" height="16px" viewBox="0 0 16 16" version="1.1" xmlns="http://www.w3.org/2000/svg" xmlns:xlink="http://www.w3.org/1999/xlink">
    <title>退出登录</title>
    <g id="pc端" stroke="none" stroke-width="1" fill="none" fill-rule="evenodd">
        <g id="icon" transform="translate(-655.000000, -227.000000)" fill-rule="nonzero">
            <g id="退出登录" transform="translate(655.000000, 227.000000)">
                <rect id="矩形" fill="#000000" opacity="0" x="0" y="0" width="16" height="16"></rect>
                <path d="M13.1535938,7.6629375 L11.816,6.37120313 C11.6700501,6.2354546 11.6088954,6.03140707 11.6561234,5.83776161 C11.7033514,5.64411616 11.8515814,5.49113523 12.043641,5.43782353 C12.2357007,5.38451183 12.4415754,5.43920078 12.5818594,5.58079688 L14.8730625,7.79734375 C15.0917344,8.00854688 15.0970625,8.35734375 14.885875,8.57601563 L12.5935938,10.9418594 C12.3794319,11.1445075 12.0436203,11.1424042 11.8320138,10.9370893 C11.6204072,10.7317743 11.6081719,10.3961791 11.8042656,10.176 L13.1727969,8.76373438 L7.71679688,8.76373438 C7.41396481,8.76212085 7.16932321,8.5161723 7.16932321,8.21333594 C7.16932321,7.91049958 7.41396481,7.66455102 7.71679688,7.6629375 L13.1535938,7.6629375 Z M3.68375,13.2039812 L10.4666875,13.2039812 C10.7609091,13.2170125 10.9927398,13.372154 10.9927398,13.6666641 C10.9927398,13.9611741 10.7609091,14.2035 10.4666875,14.2165312 L3.13332813,14.2165312 C2.82977378,14.2165312 2.5835321,13.9707569 2.5829375,13.6672031 L2.5829375,2.66667187 C2.5829375,2.36267187 2.82934375,2.11626562 3.13332813,2.11626562 L10.4666719,2.11626562 C10.7695039,2.11787915 11.0141455,2.3638277 11.0141455,2.66666406 C11.0141455,2.96950042 10.7695196,3.08767231 10.4666875,3.08928583 L3.52438513,3.09034833 L3.5243695,13.2039812 L3.68375,13.2039812 Z" id="形状" fill="#666666"></path>
            </g>
        </g>
    </g>
</svg>