<?xml version="1.0" encoding="UTF-8"?>
<svg width="34px" height="34px" viewBox="0 0 34 34" version="1.1" xmlns="http://www.w3.org/2000/svg" xmlns:xlink="http://www.w3.org/1999/xlink">
    <title>_105553183336448</title>
    <g id="pc端" stroke="none" stroke-width="1" fill="none" fill-rule="evenodd">
        <g id="icon" transform="translate(-1006.000000, -540.000000)" fill="#DF4329" fill-rule="nonzero">
            <g id="_105553183336448" transform="translate(1006.000000, 540.000000)">
                <path d="M16.523,0 C7.3976,0 0,7.3975 0,16.523 C0,25.6483 7.3976,33.0461 16.523,33.0461 C25.6482,33.0461 33.0459,25.6483 33.0459,16.523 C33.0459,7.3975 25.6482,0 16.523,0 Z M16.523,32.1478 L16.523,32.1478 C7.8936,32.1478 0.898,25.1523 0.898,16.523 C0.898,7.8936 7.8936,0.8983 16.523,0.8983 C25.1524,0.8983 32.1479,7.8936 32.1479,16.523 C32.1479,25.1523 25.1524,32.1478 16.523,32.1478 Z" id="形状"></path>
                <path d="M16.523,5.0556 C10.1895,5.0556 5.0554,10.1895 5.0554,16.523 C5.0554,22.8563 10.1895,27.9905 16.523,27.9905 C22.8562,27.9905 27.9906,22.8563 27.9906,16.523 C27.9906,10.1895 22.8562,5.0556 16.523,5.0556 Z M16.523,27.4592 L16.523,27.4592 C10.4831,27.4592 5.5867,22.5629 5.5867,16.523 C5.5867,10.483 10.4831,5.5868 16.523,5.5868 C22.5627,5.5868 27.4591,10.483 27.4591,16.523 C27.4591,22.5629 22.5627,27.4592 16.523,27.4592 Z" id="形状"></path>
                <path d="M23.0936,12.2568 C22.8268,12.1179 22.025,12.4716 22.025,12.4716 C21.9975,12.4946 21.0333,12.8866 20.8991,12.9572 C20.1937,13.323 20.1645,13.7225 20.0913,13.9401 C20.0463,14.0743 20.0184,15.0308 20.0494,15.2294 C20.0358,15.4714 20.3601,17.2359 20.4601,18.1169 C20.4601,18.1169 20.9416,21.6163 21.6487,23.7223 C21.8211,24.2364 21.9166,24.9487 21.9893,25.7295 C22.0149,26.0039 22.2262,26.2141 22.5557,26.0041 C22.5815,25.9879 22.7342,25.8017 22.7738,25.7571 C22.9913,25.5128 23.0488,25.4084 23.2312,25.2118 C23.6566,24.7538 23.4753,24.3187 23.3283,23.9488 C22.8693,22.7956 22.6557,22.3101 22.086,20.975 C20.9397,18.29 20.4087,15.7902 20.7666,14.3571 C20.9393,13.9125 21.0722,13.7987 21.5889,13.6066 C22.0568,13.4326 22.4727,13.4825 22.9669,13.372 C23.033,13.346 23.0712,13.2151 23.1092,13.057 C23.1543,12.8694 23.1634,12.7155 23.1491,12.493 C23.1484,12.4254 23.1794,12.3325 23.0936,12.2568 L23.0936,12.2568 Z" id="路径"></path>
                <path d="M12.74985,15.06625 C12.74785,15.06825 12.74285,15.07125 12.74085,15.07325 C12.74585,15.07325 12.74785,15.06825 12.74985,15.06625 Z" id="路径"></path>
                <path d="M12.9805,16.0294 C13.1657,15.4599 13.6768,13.8836 13.8074,13.3528 C14.0301,12.4472 14.1679,10.8844 14.2181,10.2526 C14.2791,9.4793 14.4016,7.154 14.4016,7.154 L14.3747,7.014 C14.3423,6.8716 14.2882,6.852 14.2162,6.8424 C13.9763,6.8435 13.8204,6.8766 13.5805,6.8778 C13.3417,6.9101 13.1959,6.9716 13.1479,7.2188 C13.1311,7.2889 13.2324,7.6384 13.2209,7.7824 C13.8756,11.5083 13.0086,14.4622 12.4358,15.8085 C11.289,18.5037 10.4104,21.5786 10.3487,23.9472 C10.3295,24.6881 10.3504,25.5398 10.5327,25.6903 C10.6737,25.7919 10.7978,25.9642 11.0949,26.0332 C11.2466,26.0682 11.6055,26.0567 11.748,26.0241 C11.9387,25.9807 12.2648,25.8252 12.2717,25.7342 C12.28,25.6251 12.021,25.1168 11.8915,24.2683 C11.7931,23.6225 11.7191,20.6842 12.2797,18.5686 C12.5648,17.4913 12.5259,17.4278 12.9805,16.0294 Z" id="路径"></path>
                <path d="M21.4845,7.9798 C21.1548,7.2624 20.0449,6.5785 19.6154,6.4863 C19.2177,6.4049 19.2208,6.4772 19.165,6.5775 C19.0899,6.6946 19.0552,6.8616 18.995,6.977 C18.7288,7.4869 18.9553,7.3877 19.5697,7.5181 C19.9168,7.5922 22.5362,8.7888 20.2607,10.5395 C19.8505,10.8552 19.58,11.0402 19.3207,11.229 C18.7813,11.6214 18.4895,12.2057 18.3953,12.437 C18.3041,12.6611 18.1325,13.0127 18.0574,13.4699 C17.4727,14.1695 17.0299,13.9987 16.7703,13.9673 C16.6889,13.9573 16.583,13.9326 16.5221,13.8914 C16.5221,13.8914 16.485,13.3728 16.49,13.1167 C16.4948,12.8671 16.5464,12.4704 16.7263,12.3203 C16.9636,12.1221 17.2353,12.1296 17.6308,11.9861 C18.0067,11.8496 18.102,11.6868 18.201,11.4572 C18.0775,11.2874 17.9267,11.4091 17.7324,11.4317 C17.3522,11.4757 17.1824,11.6113 16.8313,11.5654 C16.7033,11.5494 16.7198,11.3904 16.713,11.302 C16.6403,10.819 16.7904,8.8134 16.8917,8.399 C17.1019,7.7198 17.2417,7.3337 17.5333,6.9789 C17.6941,6.7835 18.0887,6.5674 17.9514,6.4966 C17.6796,6.4272 17.3494,6.4633 16.9435,6.5543 C16.7753,6.5921 16.5493,6.7229 16.4225,6.7525 C16.1902,6.8067 15.9989,6.8831 15.8737,6.9453 C15.8406,6.962 15.7956,6.9716 15.7832,7.003 C15.7248,7.1524 15.7911,7.3602 15.8526,7.6482 C15.9544,8.1246 15.9984,8.4002 16.0849,8.8796 C16.1031,9.0363 16.204,11.5888 15.9551,11.7094 C15.9551,11.7094 15.635,11.8632 15.2557,11.6144 C14.9973,11.4448 14.829,11.5928 14.5662,11.5879 C14.5049,11.5867 14.4219,11.7352 14.4219,11.7352 C14.3679,11.7839 14.3919,11.8975 14.4512,11.897 C14.5315,11.8963 14.6998,11.9488 14.9056,12.0562 C14.9954,12.103 15.1319,12.1294 15.2479,12.1759 C15.6097,12.3206 15.9004,12.2031 15.8929,12.7388 C15.8859,13.2257 15.8989,12.7493 15.879,13.1816 C15.8655,13.4759 16.0589,14.2004 15.1498,14.1329 C15.0065,14.1222 14.6524,13.9415 14.2047,13.8594 C14.1305,13.8456 14.0223,13.7452 13.9716,13.7192 C13.8659,13.6645 13.8274,13.9769 13.8172,14.025 C13.7899,14.1531 13.8433,14.4273 13.9496,14.4859 C14.1423,14.5929 14.254,14.5429 14.4508,14.5727 C15.0533,14.6635 15.2358,14.5614 15.6698,14.7026 C16.0981,14.9531 16.0135,15.5796 15.9695,16.5126 C15.9398,17.1433 16.0612,18.8186 16.0612,18.8196 C16.0899,19.7217 16.1038,20.4215 16.1038,20.4215 C16.1134,21.6142 15.9544,22.7501 15.6817,23.6533 C15.6425,23.783 15.3929,24.7896 15.1544,24.7833 C14.9669,24.7786 14.6545,24.1224 14.5076,23.8057 C14.2213,23.1896 14.1687,22.6816 14.1311,21.7061 C14.0848,21.0515 14.0597,19.7404 15.0572,17.8568 C15.0572,17.8568 15.2351,17.3797 15.1069,17.3192 C14.9949,17.2662 14.719,17.595 14.5206,17.8409 C14.13,18.3244 13.882,18.8704 13.6922,19.4266 C13.4494,20.346 12.9405,21.4563 13.3345,23.3446 C13.4268,23.7854 13.8053,24.819 13.9977,25.1349 C14.1043,25.3098 14.3404,25.7321 14.6349,26.0119 C14.8695,26.2352 15.06,26.4118 15.4844,26.3266 C15.6973,26.2837 15.975,25.8428 16.1482,25.5416 C16.6176,24.7266 17.1363,23.4357 17.027,21.1798 C16.9845,20.3001 16.3845,18.3017 16.5099,15.5258 C16.5439,15.0056 16.63,14.602 16.8582,14.5588 C16.8582,14.5588 17.2593,14.4408 17.4269,14.4282 C17.4269,14.4282 18.232,14.385 18.2649,14.6937 C18.3403,16.2377 18.7815,18.7574 18.7762,19.4123 C18.7666,20.5939 18.6316,22.0568 18.3694,23.211 C18.212,23.7877 18.077,24.5068 17.8458,25.0425 C17.7805,25.1678 17.718,25.2937 17.6496,25.4176 C17.4291,25.8168 17.6237,25.9129 18.0317,25.8353 L18.1765,25.8233 C18.1765,25.8233 18.7721,25.7977 18.9708,25.775 C19.2548,25.7274 19.5685,25.7977 19.6506,25.3075 C19.6506,25.3075 19.7764,23.468 19.8043,22.6042 C19.874,20.4485 19.5531,18.7056 19.2332,17.3746 C18.7226,15.25 18.8092,14.5635 18.831,14.2748 C18.841,14.1341 18.9811,12.4986 19.7259,11.809 C19.9185,11.631 21.2456,10.5856 21.5122,10.1501 C21.7979,9.6834 21.8767,8.8334 21.4845,7.9798 L21.4845,7.9798 Z" id="路径"></path>
                <path d="M10.4859,16.2576 C10.7371,15.8629 10.8908,15.4288 10.9633,15.2512 C11.101,14.9034 11.1363,14.735 11.2674,14.3902 L11.2948,14.3175 L11.3753,14.101 C11.7131,13.1919 11.9205,12.6628 12.0729,11.7232 C12.1724,11.1094 12.1747,10.1693 12.1128,9.2312 C12.12,9.0932 11.9934,8.0303 11.9856,7.8227 C11.984,7.7076 11.9721,7.6346 11.9749,7.5652 C11.9682,7.1053 11.6923,7.2936 11.1404,7.3119 C11.0566,7.3149 10.6908,7.3311 10.6093,7.3485 C10.4635,7.3663 10.5723,7.5002 10.5904,7.5589 C11.2605,9.1284 11.3695,11.124 10.9972,13.0401 C10.9422,13.4368 10.8147,13.9218 10.7481,14.3142 C10.7016,14.5054 10.3942,15.6729 10.4859,16.2576 Z" id="路径"></path>
                <path d="M27.3353,9.164 C27.3849,9.1398 27.3383,9.1385 27.3896,9.1642 C27.4729,9.164 27.8618,9.2165 27.9445,9.2568 C28.0908,9.3282 28.1461,9.4149 28.2143,9.2249 C28.1031,9.0061 28.0195,8.9992 27.8916,8.8533 C28.0979,8.8419 28.3076,9.0691 28.3313,8.8698 L28.3327,8.7931 C28.9918,8.8934 28.9855,9.1654 29.1484,8.9763 C29.1149,8.7132 28.6356,8.4225 28.4167,8.3287 C28.4947,8.3246 28.529,8.3601 28.6194,8.3263 L28.1774,8.2037 C27.9724,8.1482 27.7912,8.4061 27.8834,8.4911 C27.9669,8.5682 28.1056,8.3525 28.4178,8.4865 C28.4899,8.5175 28.5795,8.5487 28.652,8.6044 L28.8529,8.7783 C28.3844,8.7031 28.2034,8.5239 28.107,8.7772 C28.047,8.7875 27.9954,8.7857 27.9363,8.7775 C27.9087,8.7737 27.9299,8.7772 27.8988,8.7709 C27.8215,8.7554 27.6657,8.7622 27.6034,8.8184 C27.5379,8.8774 27.5637,8.9094 27.5725,8.9733 C27.4846,8.9878 27.4173,8.9624 27.3476,8.9548 C27.2906,8.9485 27.1798,8.9366 27.1258,8.9064 C27.0251,8.8503 27.1799,8.8635 26.8989,8.8863 C26.7984,8.8944 26.7245,8.914 26.7252936,9.0326 C26.7785,9.0956 26.8151,9.074 26.8731,9.0846 L27.1726,9.1291 C27.2335,9.1422 27.2837,9.1351 27.3353,9.164 L27.3353,9.164 Z M28.7372,8.3275 L28.7186,8.3433 C28.7277,8.3427 28.7472,8.3391 28.7434,8.3437 C28.7401,8.3477 28.7562,8.3462 28.7626,8.3471 C28.821,8.3987 29.0678,8.4265 29.2358,8.4852 C29.374,8.4021 29.3806,8.2734 29.3188,8.1494 C29.1508,7.8125 29.0987,8.2485 29.0772,8.2695 C28.985,8.3264 28.8271,8.3262 28.7372,8.3275 L28.7372,8.3275 Z M26.0967,8.5363 L26.1736,8.6508 C26.4746,8.592 26.5538,8.3573 26.8722,8.183 C26.9553,8.1375 26.9268,8.1301 27.0028,8.0911 C27.1444,8.0182 27.1692,8.0422 27.2947,7.9124 L27.4024,8.2622 C27.4189,8.3346 27.4009,8.3106 27.4525,8.3794 C27.5124,8.3794 27.6213,8.3529 27.6931,8.3155 L27.9655,8.0384 C27.9884,7.992 27.9713,7.9895 28.0116,7.9456 C28.1609,7.783 28.3728,7.9431 28.4609,7.868 C28.5862,7.7611 28.315,7.5065 28.1181,7.4599 C27.9076,7.4101 27.9881,7.5915 28.0354,7.6921 C27.9763,7.7527 27.9298,7.8037 27.8563,7.8626 C27.7076,7.9816 27.5812,8.2995 27.3481,7.93 C27.3742,7.8263 27.4059,7.844 27.4316,7.7518 C27.3416,7.6087 27.2336,7.7583 27.0934,7.8275 C26.9626,7.892 26.8468,7.9377 26.72,8.0242 C26.5185,8.1618 26.1462,8.3098 26.0967,8.5363 L26.0967,8.5363 Z M26.9006,9.733 L27.2166,10.2035 L27.4701,10.4304 C27.8306,10.7084 27.9225,10.9001 28.3187,10.6279 C28.4261,10.5542 28.8067,10.2527 28.8988,10.1507 C28.9617,10.0809 29.056,9.9662 29.1261,9.9002 C29.1771,9.8521 29.3509,9.7055 29.3762,9.6592 C29.3323,9.6662 28.5145,10.2227 28.1212,10.3909 C27.9532,10.4627 27.8779,10.4819 27.7463,10.3994 C27.642,10.3341 26.9507,9.8484 27.1053,9.6312 C27.2433,9.4373 27.3198,9.6319 27.6025,9.2668 C27.4122,9.1761 26.9423,9.3942 26.9006,9.733 L26.9006,9.733 Z" id="形状"></path>
                <path d="M22.843,5.7778 C22.9399,5.7495 23.3166,5.934 23.4262,5.9896 C23.3462,6.0697 23.1942,6.2075 23.1045,6.2571 C23.0061,6.1829 22.9735,6.0988 22.923,6.0165 C22.858,5.9107 22.8003,5.8799 22.843,5.7778 Z M24.3289,5.1404 C24.4957,5.2519 24.775,5.4013 24.8983,5.5744 C24.7919,5.5536 24.2873,5.309 24.1771,5.2073 L24.2267,5.1978 C24.2343,5.1956 24.2377,5.1965 24.2613,5.1851 C24.2815,5.1754 24.302,5.1595 24.3289,5.1404 L24.3289,5.1404 Z M24.8172,4.724 C24.8577,4.6915 24.9061,4.6529 24.9522,4.6204 C25.0491,4.5522 25.0543,4.5487 25.1049,4.5604 C25.0544,4.6223 25.0475,4.6751 24.9761,4.703 C24.9338,4.7195 24.848,4.7398 24.8172,4.724 Z M25.304,4.0665 C25.2476,4.1229 25.2784,4.0938 25.2603,4.1459 C25.2335,4.2227 25.0805,4.3126 25.0433,4.3172 C24.9716,4.3262 24.8905,4.2874 24.7247,4.3385 C24.762,4.2827 24.8147,4.2346 24.8278,4.1798 C24.8299,4.0536 24.6726,4.0573 24.6128,4.0905 C24.5799,4.1087 24.4179,4.3079 24.1767,4.417 C24.2263,4.3183 24.6814,3.9966 24.465,3.9253 L23.9322,4.418 C23.8286,4.5215 23.8019,4.7555 23.9772,4.6704 C24.168,4.5777 24.5035,4.247 24.6093,4.2138 C24.5235,4.3093 24.4282,4.4465 24.3377,4.5533 C24.2391,4.6698 24.094,4.7409 24.1702,4.8775 C24.2678,4.8301 24.4423,4.6362 24.5556,4.5595 C24.697,4.4638 24.8109,4.3945 24.9417,4.4179 C24.8528,4.4957 24.702,4.6247 24.5896,4.6602 C24.332,4.7416 24.5381,4.8062 24.2376,4.9372 C24.1867,4.9092 24.2191,4.9134 24.1584,4.8969 C23.7778,4.7931 23.5643,4.6662 23.0709,4.5749 C23.0307,4.5675 22.9364,4.5548 22.9003,4.5427 C22.903,4.5224 22.8972,4.5444 22.9074,4.5086 C22.9124,4.4911 22.9138,4.4856 22.9234,4.4637 C22.9501,4.4028 22.9707,4.3901 23.0003,4.3051 C23.0236,4.2385 23.0308,4.2633 23.0046,4.2116 C22.8586,4.1761 22.7449,4.4758 22.7098,4.5543 C22.6304,4.7318 22.7029,4.93 22.8289,4.7695 C22.866,4.7224 22.8325,4.7218 22.8998,4.703 C23.0158,4.6707 24.0663,4.9615 24.1589,5.0301 C24.1506,5.0689 24.1372,5.0754 24.1402,5.1215 C24.1435,5.1705 24.1569,5.1497 24.1592,5.2029 C24.0503,5.1488 23.9748,5.1227 23.9095,5.0328 C23.8776,5.0373 23.8041,5.0356 23.773,5.0419 C23.7202,5.0525 23.6765,5.0969 23.6832,5.1556 C23.6945,5.2548 23.8773,5.3046 23.9359,5.3816 C23.6449,5.4715 23.6441,5.3886 23.4977,5.5074 C23.4375,5.5562 23.452,5.595 23.447,5.6512 C23.5206,5.7408 23.5052,5.7151 23.5795,5.7455 C23.5703,5.7862 23.5581,5.8091 23.5211,5.8436 C23.2839,5.7724 23.1228,5.6427 22.8098,5.6041 C22.7141,5.5923 22.6618,5.5576 22.57,5.6459 C22.5883,5.8616 22.6632,5.8518 22.7386,6.0392 C22.8009,6.194 22.8523,6.2931 22.8374,6.4321 C22.9025,6.498 22.9624,6.5739 23.0366,6.5786 C23.1246,6.5841 23.1651,6.5 23.2631,6.402 C23.3632,6.3019 23.428,6.3172 23.532,6.1626 C23.6002,6.0613 23.579,6.0934 23.6069,6.0951 C23.7003,6.1031 23.7656,6.3181 23.9233,6.1274 C23.8894,5.9957 23.852,5.9756 23.7167,5.9032 C23.7146,5.8429 23.7293,5.7996 23.7139,5.7333 C23.6963,5.6575 23.6615,5.6461 23.6718,5.5634 C23.86,5.554 24.0475,5.5747 24.1386,5.4358 C24.1092,5.3477 24.0703,5.3005 23.9838,5.2213 L24.0572,5.2528 C24.0797,5.2668 24.1009,5.285 24.1245,5.3009 C24.1848,5.3414 24.2163,5.3645 24.2747,5.4118 C24.4627,5.5644 24.6561,5.6323 24.8285,5.7583 C25.001,5.8844 25.0079,5.929 25.1216,5.9662 C25.2237,5.8827 25.2168,5.8545 25.1891,5.7564 C25.1007,5.4443 24.65,5.1722 24.4024,5.047 C24.5652,4.9039 24.5263,4.9258 24.6686,4.943 C24.8397,4.9637 25.0925,4.9574 25.1839,4.7697 C25.2238,4.6878 25.2038,4.707 25.2235,4.6329 C25.2553,4.513 25.2689,4.6054 25.3116,4.52 C25.3386,4.4343 25.2759,4.4445 25.2812,4.3612 L25.2894,4.3369 C25.2908,4.3342 25.2929,4.3283 25.2946,4.3249 C25.2964,4.3215 25.2987,4.3169 25.3009,4.3132 C25.3443,4.2386 25.4023,4.2174 25.44,4.1798 C25.5445,4.0754 25.4001,3.9705 25.304,4.0665 L25.304,4.0665 Z" id="形状"></path>
                <path d="M19.3145,2.8559 C19.3261473,2.7208 19.3852683,2.7444 19.3948515,2.731 C19.3988323,2.7254 19.407236,2.7279 19.4132808,2.726 C19.4234537,2.7809 19.368166,2.8145 19.3145,2.8559 Z M19.5989,2.0061 C19.718,2.0496 20.0527,2.2176 20.0887,1.9476 C20.1205,1.7104 19.7689,1.4999 19.6751,1.6482 C19.6521,1.6846 19.6155,1.9262 19.5989,2.0061 Z M20.1404,4.8241 C20.1972,4.6169 19.9477,4.5052 19.8265,4.3777 C19.7986,4.3483 19.6173,4.071 19.5842,4.5294 C19.573,4.6838 19.7892,4.8792 19.8966,4.9176 C20.0203,4.9619 20.1062,4.9487 20.1404,4.8241 Z M18.6647,3.7412 C18.5874,3.7811 17.8373,4.4911 18.1514,4.6259 C18.2947,4.6874 18.4801,4.3199 18.5281,4.2706 C18.6264,4.1694 18.7963,3.8567 18.6647,3.7412 Z M19.1214,2.4971 C19.1494,2.5898 19.1749,2.6016 19.1459,2.7175 C19.0939,2.926 19.1276,3.0717 18.9216,3.0953 L18.9128,3.0683 C18.9115,3.0635 18.9071,3.0465 18.9061,3.0408 C18.904,3.0284 18.9023,3.0097 18.902,2.9971 C18.9011,2.9607 18.9042,2.9428 18.9087,2.8995 C18.9169,2.8207 18.9353,2.7689 18.9524,2.6858 C18.9829,2.5378 18.9414,2.3701 19.043,2.3203 C19.0969,2.4067 19.0898,2.3923 19.1214,2.4971 L19.1214,2.4971 Z M19.717,2.4391 C19.7165,2.587 19.6172,3.6178 19.4742,2.968 C19.5346,2.8914 19.6188,2.8857 19.6686,2.759 C19.718,2.6335 19.6934,2.5555 19.5777,2.5184 C19.6347,2.4669 19.6564,2.4446 19.717,2.4391 Z M20.2506,2.2447 C20.1883,2.4719 20.1351,2.6556 20.0404,2.8624 C19.9856,2.9821 19.818,3.2431 19.7283,3.2768 C19.7659,3.1309 19.7723,3.0679 19.8208,2.9239 C19.8513,2.8332 19.9864,2.4612 19.9484,2.387 C19.8827,2.2584 19.7151,2.3046 19.6081,2.3515 C19.5334,2.3842 19.5309,2.4091 19.4593,2.4421 C19.425,2.4133 19.4669,2.4488 19.4326,2.4128 C19.3803,2.358 19.3627,2.3498 19.2559,2.3373 C19.1752,2.4068 19.2184,2.4427 19.1887,2.5572 C19.0953,2.4106 19.1062,2.1417 18.9621,2.1489 C18.7727,2.1584 18.7296,2.7043 18.7366,2.7938 C18.753,3.0015 18.7451,3.3056 18.9101,3.3693 L19.0047,3.2936 C19.0336,3.3528 19.0092,3.4579 19.0945,3.4813 C19.1941,3.5085 19.1537,3.398 19.2382,3.1025 C19.2521,3.0519 19.3826,2.9836 19.4224,2.982 C19.4697,3.0564 19.4383,3.0943 19.4546,3.1817 C19.4084,3.245 19.3815,3.2027 19.3205,3.3846 C19.2422,3.6182 19.1891,3.5341 18.5988,3.5161 L17.5057,3.4639 L17.2919,3.3904 C17.2693,3.4644 17.2935,3.4868 17.3555,3.5338 C17.6279,3.7397 17.9931,3.6667 18.3579,3.6699 C18.5108,3.6713 18.6247,3.6873 18.7711,3.6831 L19.1786,3.6836 C19.1654,3.7313 19.0079,4.2537 18.95,4.2984 C18.8312,4.2602 18.7697,4.113 18.6992,4.0719 C18.6937,4.1631 18.7729,4.2417 18.7784,4.3013 C18.7845,4.3677 18.7545,4.3677 18.7706,4.4472 L18.8552,4.6804 C18.8714,4.7381 18.8583,4.7573 18.8746,4.8096 C18.9015,4.8959 18.9814,4.9484 19.0902,4.9281 C19.2022,4.8384 19.1465,4.5259 19.1959,4.3458 C19.4094,3.5676 19.3907,3.6978 19.8671,3.6839 C20.0936,3.6773 20.5382,3.6363 20.7669,3.7005 C20.8555,3.7254 20.9582,3.7786 21.0014,3.7197 C21.064,3.6343 20.9765,3.5831 20.9065,3.5594 C20.5539,3.4394 20.602,3.4959 20.4148,3.494 C20.2534,3.4923 20.1177,3.4931 19.9668,3.5047 C19.8839,3.5111 19.8248,3.5147 19.7567,3.5193 C19.7025,3.5229 19.6171,3.5392 19.5669,3.519 L19.5462,3.5057 C19.5951,3.4408 19.54,3.4927 19.612,3.4837 C19.666,3.477 19.6285,3.5138 19.6805,3.4679 C19.7469,3.4094 19.6619,3.3992 19.7843,3.3471 C20.0784,3.2221 20.0803,3.2432 20.2383,2.9364 C20.3566,2.7067 20.4756,2.5794 20.4522,2.2864 C20.4465,2.2149 20.4623,2.1237 20.3889,2.1035 C20.3165,2.0836 20.2723,2.1657 20.2506,2.2447 L20.2506,2.2447 Z" id="形状"></path>
                <path d="M14.7913,4.3775 C14.6603,4.2354 14.696,4.1175 14.8779,4.0102 L14.9295,4.3522 L14.7913,4.3775 Z M14.0864,1.9258 C14.1137,2.0857 14.1382,2.1086 14.1944,2.2235 C14.289,2.4172 14.418,2.5401 14.2947,2.6757 C14.2309,2.7458 14.167,2.7598 14.141,2.8579 C14.6392,2.7007 14.4849,2.6466 14.5153,2.3896 C14.5268,2.2926 14.5954,2.1856 14.5344,2.0705 C14.4703,1.9497 14.3697,1.9815 14.2592,1.9321 C14.2956,1.7632 14.4319,1.8842 14.6462,1.6851 C14.6214,1.5296 14.5655,1.4878 14.4562,1.4542 C14.173,1.367 13.8841,1.4146 13.9932,1.6312 C14.0239,1.6921 14.0569,1.7141 14.0824,1.7593 C14.1381,1.8579 14.0735,1.8498 14.0864,1.9258 L14.0864,1.9258 Z M14.506,4.1066 C14.4331,3.8942 14.555,3.6403 14.6796,3.5124 C14.7441,3.5758 14.7837,3.6892 14.8178,3.7923 L14.7916,3.8095 C14.6754,3.8794 14.7233,3.8293 14.6233,3.938 C14.54,4.0285 14.5439,3.9895 14.506,4.1066 L14.506,4.1066 Z M14.786,2.7455 C14.7736,2.8075 14.672,2.8843 14.5706,3.0486 C14.2494,3.5688 14.2538,3.6344 14.2916,4.1284 C14.3024,4.269 14.2755,4.4475 14.4434,4.5193 C14.5659,4.4107 14.4722,4.3206 14.5044,4.1772 C14.6258,4.3529 14.6011,4.4394 14.6481,4.5055 C14.7167,4.6019 14.6969,4.471 14.9037,4.6952 C14.986,4.7845 15.3027,4.9403 15.199,4.329 C15.131,3.9283 15.1412,4.0444 15.0004,3.6598 C14.9404,3.4962 14.952,3.2721 14.7558,3.3053 C14.651,3.323 14.655,3.357 14.5784,3.3975 C14.6218,3.2019 15.1689,2.6431 15.2565,2.5963 C15.3725,2.5342 15.6461,2.5641 15.6202,2.4121 C15.5997,2.2917 15.3843,2.3378 15.2596,2.3687 C15.17,2.3908 13.8318,3.1166 13.655,3.2152 C13.5351,3.282 13.4665,3.3307 13.3709,3.4034 C13.3195,3.4424 13.2837,3.4623 13.2339,3.5013 C13.2,3.5279 13.1385,3.5948 13.1096,3.6121 C13.0301,3.6599 12.799,3.698 12.8354,3.8801 C12.8627,4.0169 12.999,3.9778 13.0834,3.9263 C13.1409,3.8911 13.1461,3.8625 13.192,3.8085 C13.3949,3.5702 14.0422,3.2341 14.3293,3.0197 L14.786,2.7455 L14.786,2.7455 Z" id="形状"></path>
                <path d="M9.8331,4.3409 C9.9737,4.5845 9.9413,4.6237 9.9391,4.8428 C9.937,5.0514 9.7312,5.0806 9.6829,5.2446 C9.7972,5.45 10.0394,5.1989 10.0802,5.1613 C10.2265,5.0265 10.3189,4.9501 10.4791,4.8242 C10.5914,4.7358 10.8068,4.5852 10.6767,4.4517 C10.539,4.3104 10.3574,4.5013 10.2277,4.5801 C10.1852,4.4885 10.1922,4.3891 10.1626,4.2814 C10.1312,4.1666 10.0939,4.0652 10.0268,3.9492 C9.8055,3.9225 9.6882,4.0598 9.5705,4.2116 C9.5298,4.2641 9.4781,4.2987 9.4408,4.3548 C9.3526,4.4878 9.3668,4.5639 9.5521,4.5588 C9.7682,4.5528 9.6817,4.4311 9.8331,4.3409 L9.8331,4.3409 Z M8.8263,4.6188 C8.6638,4.3375 8.2817,4.3584 8.1983,4.5105 C8.156,4.5877 8.2395,4.6453 8.3741,4.7615 C8.5576,4.92 8.9253,4.79 8.8263,4.6188 L8.8263,4.6188 Z M9.2484,5.1548 C9.2083,5.4736 9.2337,5.6917 9.0859,6.0249 C8.9926,5.8912 9.0552,5.6621 8.9808,5.5333 L8.8309,5.3188 C8.7703,5.2381 8.7171,5.2217 8.6196,5.2757 C8.6121,5.4169 8.6711,5.4845 8.7173,5.6402 C8.7497,5.7494 8.8145,5.9134 8.8658,6.0202 C8.9259,6.1453 9.0814,6.6827 9.3672,6.5218 C9.4229,6.4904 9.4365,6.4343 9.43670248,6.3808 C9.4372,6.2339 9.362,6.3414 9.3561,5.886 C9.3544,5.7545 9.2828,5.2247 9.2484,5.1548 L9.2484,5.1548 Z" id="形状"></path>
                <path d="M5.49749,9.15 C5.49277832,9.0932 5.47984859,9.0154 5.51052931,8.9312 C5.59676404,9.0427 5.57046628,9.0472 5.59073747,9.1435 L5.49749,9.15 Z M3.6508,8.5507 C3.731,8.6515 3.9189,8.6704 4.0106,8.6449 C4.0942,8.6217 4.3544,8.5733 4.3151,8.4155 C4.2617,8.2012 3.9104,8.3398 3.7883,8.3904 C3.6946,8.4292 3.6694,8.4635 3.6508,8.5507 Z M5.2072,9.5624 C5.2243,9.4918 5.2501,9.5682 5.1804,9.4194 C5.1574,9.3703 5.1474,9.3215 5.1233,9.2625 C5.0828,9.1638 5.0595,9.0556 5.0043,8.9556 C5.0029,9.0953 5.056,9.2416 5.0816,9.3974 C5.0939,9.4719 5.1539,9.8029 5.1386,9.8506 C5.0957,9.8408 5.0594,9.8036 5.0042,9.7596 C4.8989,9.6756 4.6508,9.4382 4.6111,9.3494 C4.5764,9.2718 4.613,9.1289 4.4524,9.131 C4.4001,9.1317 4.3575,9.15 4.3052,9.1676 C4.2602,9.1829 4.2755,9.18 4.2315,9.1832 C4.1475,9.1893 4.2355,9.1568 4.1553,9.1911 C4.1386,9.3193 4.2032,9.402 4.3052,9.4216 C4.4395,9.4474 4.4059,9.3513 4.5492,9.4828 L5.0916,10.0124 C5.3212,10.3536 5.5632,10.297 5.4675,10.0965 C5.3742,9.9011 5.323,9.6312 5.2072,9.5624 L5.2072,9.5624 Z M6.3479,7.0845 L6.2916,7.0282 C6.0296,7.1992 5.9201,7.5522 5.8828,7.8387 C5.8735,7.9099 5.8611,8.063 5.8386,8.1213 C5.6365,7.989 5.6776,8.1807 5.5008,7.8756 C5.4627,7.8098 5.4449,7.7485 5.4095,7.679 C5.3413,7.545 5.2159,7.3205 5.1952,7.1759 C5.1906,7.1436 5.1934,7.1136 5.1761,7.0789 C5.1074,6.9409 4.8644,6.8872 4.7846,6.9471 C4.8037,7.024 5.1633,7.5422 5.2242,7.6554 C5.2805,7.7599 5.3062,8.0618 5.3205,8.195 C5.3271,8.2566 5.3403,8.3119 5.3229,8.3491 L5.3107,8.3646 C5.259,8.3363 5.0599,8.1513 5.0561,8.0476 C5.0536,7.9771 5.0677,7.7639 4.94,7.7379 C4.8738,7.7632 4.8593,7.8198 4.8048,7.8791 C4.6902,7.7495 4.4515,7.4961 4.3168,7.4277 C4.2037,7.3703 4.0843,7.3949 4.1244,7.4817 C4.1712,7.583 4.7556,8.1096 4.8368,8.2105 C4.8901,8.2768 4.8658,8.477 4.8454,8.5758 C4.8306,8.6478 4.8172,8.6486 4.8151,8.7102 C4.9259,8.8197 5.0861,8.707 5.0656,8.5502 C5.0625,8.5266 5.0569,8.5047 5.0566,8.4888 C5.0564,8.4838 5.0569,8.4691 5.0574,8.4643 C5.0615,8.4247 5.0512,8.4636 5.0659,8.4283 C5.139,8.4605 5.2889,8.6174 5.3358,8.6862 C5.3923,8.7688 5.4109,9.144 5.4032,9.2503 C5.3958,9.3523 5.3589,9.4597 5.5073,9.50760048 C5.6137,9.5079 5.6306,9.3679 5.6192,9.2747 C5.6113,9.2095 5.5901,9.2485 5.6332,9.1854 C5.7088,9.1992 5.7061,9.2316 5.79,9.226 C5.8501,9.1553 5.8208,9.1674 5.8146,9.0908 C5.807,8.9967 5.8344,9.0488 5.8625,8.9556 C5.7956,8.8511 5.7014,8.7646 5.6058,8.6731 C5.5678,8.6367 5.4886,8.5642 5.4602,8.5252 C5.4275,8.4803 5.4342,8.4677 5.4238,8.4158 L5.3188,7.8756 C5.302,7.8059 5.2902,7.8578 5.3212,7.8082 C5.3489,7.8417 5.3808,7.8924 5.4102,7.938 C5.4616,8.018 5.4447,8.0154 5.471,8.0845 C5.5305,8.241 5.5854,8.226 5.6944,8.3383 C5.7817,8.4281 5.8842,8.5477 5.9544,8.6219 C6.0373,8.7095 6.1431,8.7753 6.24,8.7189 C6.2238,8.5588 6.0249,8.4985 5.9911,8.3299 C5.9697,8.2231 5.9451,8.0125 6.0104,7.9248 C6.1954,8.1098 6.4141,8.3982 6.6858,8.6734 C6.8041,8.7933 6.9277,8.8706 7.0438,9.0183 C7.1547,9.1594 7.2796,9.2847 7.407,9.1743 C7.4258,9.0779 7.42,9.0847 7.3288,8.9865 C7.2687,8.9218 7.2221,8.8747 7.1587,8.8146 C6.9241,8.5922 6.5797,8.269 6.377,8.0312 C6.2177,7.8441 6.19,7.7651 6.0275,7.7163 C6.0317,7.6387 6.0672,7.503 6.1196,7.4095 C6.1915,7.2812 6.2792,7.2267 6.3479,7.0845 L6.3479,7.0845 Z" id="形状"></path>
                <path d="M1.9406,15.4468 L2.2888,15.4633 L3.4861,16.5326 L3.5285,15.6374 L3.8525,15.6527 L3.786,17.0559 L3.4861,17.0417 L2.2425,15.9307 L2.1909,17.0206 L1.8668,17.0053 L1.9406,15.4468 L1.9406,15.4468 Z M1.9037,17.3254 L3.8127,17.1259 L3.8531,17.5125 L3.1013,17.5911 L3.1799,18.3429 L3.9317,18.2643 L3.9721,18.6509 L2.0631,18.8505 L2.0227,18.4639 L2.8572,18.3767 L2.7786,17.6248 L1.9441,17.712 L1.9037,17.3254 Z M2.1363,19.1843 L4.0159,18.7952 L4.3039,20.1866 L3.9863,20.2523 L3.777,19.2417 L3.3596,19.328 L3.5542,20.2678 L3.2366,20.3336 L3.042,19.3938 L2.5327,19.4992 L2.7495,20.5466 L2.4319,20.6124 L2.1363,19.1843 Z M4.57,20.8502 L4.7041,21.2151 L3.5625,21.6344 C3.4132,21.6893 3.2935,21.7186 3.2033,21.7217 C3.0854,21.7249 2.9778,21.6922 2.88,21.6229 C2.7827,21.5539 2.706,21.4436 2.6502,21.2917 C2.585,21.1139 2.5842,20.959 2.6484,20.8269 C2.7126,20.6943 2.8408,20.5925 3.0325,20.5211 L3.1995,20.8511 C3.0983,20.893 3.0311,20.9343 2.9983,20.9758 C2.948,21.0386 2.9375,21.1096 2.9668,21.1893 C2.9962,21.2694 3.0402,21.318 3.0989,21.334 C3.1572,21.3502 3.2595,21.3317 3.4053,21.2781 L4.57,20.8502 L4.57,20.8502 Z M3.0322,22.1889 L4.7996,21.4402 L4.9512,21.798 L3.1838,22.5467 L3.0322,22.1889 Z M4.1231,24.353 L3.9233,23.9851 L4.2282,23.6309 L3.8608,22.9545 L3.4007,23.0228 L3.2045,22.6616 L5.2469,22.4004 L5.4429,22.7613 L4.1231,24.353 L4.1231,24.353 Z M4.4532,23.3654 L4.9502,22.7919 L4.2022,22.9033 L4.4532,23.3654 L4.4532,23.3654 Z M4.1992,24.4797 L5.7374,23.3316 L5.9624,23.633 L5.4041,25.0355 L6.4349,24.2661 L6.6498,24.554 L5.1116,25.7021 L4.8794,25.391 L5.4252,24.0129 L4.4141,24.7676 L4.1992,24.4797 L4.1992,24.4797 Z M6.4544,26.1601 L6.6947,25.9421 L7.2548,26.5596 L6.6875,27.0742 C6.5747,27.0674 6.4444,27.0269 6.2962,26.9532 C6.1486,26.8796 6.0217,26.7842 5.9154,26.667 C5.7806,26.5184 5.6943,26.3608 5.6566,26.1935 C5.6192,26.0266 5.6336,25.8622 5.6993,25.7012 C5.765,25.5402 5.8666,25.3975 6.0033,25.2735 C6.1515,25.139 6.3115,25.0507 6.4831,25.0078 C6.6547,24.9656 6.8257,24.9758 6.9956,25.0395 C7.1258,25.0879 7.2519,25.1797 7.375,25.3155 C7.535,25.4918 7.6231,25.6635 7.639,25.8301 C7.6543,25.9965 7.6099,26.1531 7.5047,26.3005 L7.1917,26.0632 C7.2436,25.9799 7.2646,25.8921 7.2552,25.7999 C7.2457,25.7083 7.2035,25.6212 7.1285,25.5385 C7.015,25.4133 6.885,25.3497 6.7382,25.3482 C6.5916,25.3468 6.4398,25.4169 6.2832,25.5589 C6.1141,25.7123 6.0213,25.8646 6.0047,26.016 C5.9884,26.1677 6.0349,26.304 6.1451,26.4255 C6.1994,26.4854 6.266,26.5348 6.3441,26.5737 C6.4225,26.613 6.4981,26.6385 6.5713,26.6513 L6.7516,26.4877 L6.4544,26.1601 L6.4544,26.1601 Z M8.5937,27.9946 L8.8251,28.3117 C8.6523,28.4464 8.4814,28.5143 8.3125,28.5163 C8.1439,28.5178 7.9772,28.4572 7.8123,28.3338 C7.6081,28.1809 7.4926,27.9856 7.4653,27.7475 C7.4385,27.5098 7.5154,27.2699 7.6967,27.0277 C7.8881,26.772 8.1032,26.6226 8.3412,26.5798 C8.5792,26.537 8.806,26.5962 9.0214,26.7575 C9.2096,26.8983 9.3205,27.0685 9.3545,27.2676 C9.3754,27.3858 9.3569,27.5194 9.2996,27.669 L8.9381,27.5122 C8.9792,27.4191 8.9885,27.3278 8.9654,27.2386 C8.942,27.1491 8.889,27.0736 8.8068,27.0121 C8.6927,26.9267 8.5695,26.8981 8.4374,26.927 C8.3051,26.9553 8.1707,27.0611 8.0336,27.2442 C7.8884,27.4381 7.8199,27.6028 7.828,27.7372 C7.8363,27.8723 7.8964,27.9815 8.0083,28.0653 C8.0909,28.1271 8.1816,28.1543 8.2804,28.1462 C8.3791,28.1381 8.4836,28.0879 8.5937,27.9946 L8.5937,27.9946 Z M9.0774,28.0688 C9.1707,27.8968 9.275,27.7663 9.39,27.6772 C9.4747,27.6119 9.5693,27.563 9.6728,27.5307 C9.7762,27.4984 9.8764,27.4872 9.9734,27.4966 C10.1028,27.5094 10.2363,27.5528 10.3737,27.6274 C10.6227,27.7625 10.7794,27.9477 10.8453,28.1832 C10.9106,28.4189 10.8686,28.6742 10.7192,28.9495 C10.5711,29.2225 10.381,29.3959 10.1494,29.4694 C9.9176,29.5434 9.6776,29.5128 9.4297,29.3783 C9.1787,29.2421 9.0204,29.0571 8.9557,28.8232 C8.8908,28.5898 8.9311,28.3382 9.0774,28.0688 L9.0774,28.0688 Z M9.4346,28.2479 C9.3308,28.4391 9.2966,28.6082 9.3313,28.7551 C9.3662,28.9015 9.4516,29.012 9.5875,29.0857 C9.7238,29.1597 9.8619,29.1711 10.0026,29.1209 C10.143,29.07 10.2663,28.9467 10.3726,28.7508 C10.4777,28.5571 10.5137,28.3897 10.48,28.2483 C10.447,28.1069 10.3601,27.9982 10.2191,27.9217 C10.0785,27.8454 9.9388,27.8321 9.8005,27.8817 C9.6621,27.9316 9.5401,28.0535 9.4346,28.2479 L9.4346,28.2479 Z M10.6014,29.9569 L11.2583,28.1533 L11.6118,28.2821 L11.9138,29.7611 L12.354,28.5524 L12.6916,28.6754 L12.0347,30.4789 L11.6698,30.346 L11.3707,28.8943 L10.9389,30.0798 L10.6014,29.9569 L10.6014,29.9569 Z M12.423,29.9537 L12.7986,30.0106 C12.7895,30.1387 12.8108,30.2397 12.8633,30.3143 C12.9157,30.389 12.9989,30.4406 13.1128,30.4696 C13.2332,30.5002 13.3306,30.4978 13.4047,30.4623 C13.4788,30.4267 13.5247,30.3749 13.5421,30.3064 C13.5533,30.2622 13.5499,30.2217 13.5323,30.184 C13.5145,30.1468 13.4763,30.1085 13.418,30.0696 C13.3782,30.0429 13.2855,29.9907 13.1395,29.9121 C12.9518,29.8108 12.8268,29.7135 12.7644,29.6197 C12.6767,29.4881 12.6518,29.3485 12.6894,29.2009 C12.7136,29.106 12.7631,29.0236 12.8374,28.9545 C12.9122,28.8855 13.0053,28.8423 13.1172,28.8247 C13.2291,28.8071 13.3558,28.8163 13.4987,28.8527 C13.7312,28.9119 13.8935,29.0081 13.9845,29.1415 C14.0759,29.2749 14.1023,29.4283 14.0643,29.6026 L13.6844,29.5196 C13.6929,29.4194 13.6761,29.3419 13.6344,29.2866 C13.5928,29.2312 13.5194,29.1899 13.4146,29.1633 C13.3063,29.1357 13.2157,29.1366 13.1432,29.166 C13.0964,29.1851 13.0667,29.2185 13.0543,29.267 C13.0431,29.3112 13.0521,29.3536 13.0814,29.3942 C13.1183,29.4465 13.2225,29.5173 13.3938,29.607 C13.5652,29.6963 13.6884,29.7756 13.7637,29.8437 C13.8393,29.9122 13.8918,29.9925 13.9208,30.0852 C13.9497,30.1779 13.9493,30.2828 13.9194,30.4002 C13.8922,30.5067 13.8373,30.5992 13.7543,30.6772 C13.6713,30.7552 13.5701,30.8032 13.4504,30.8206 C13.3305,30.8386 13.1897,30.8267 13.0282,30.7855 C12.7931,30.7257 12.6264,30.6256 12.528,30.4848 C12.4296,30.3445 12.3949,30.1673 12.423,29.9537 L12.423,29.9537 Z M14.0465,30.9979 L14.2341,29.0876 L15.6481,29.2265 L15.6164,29.5493 L14.5892,29.4485 L14.5476,29.8727 L15.5027,29.9664 L15.471,30.2893 L14.5159,30.1955 L14.4651,30.7131 L15.5296,30.8176 L15.4979,31.1404 L14.0465,30.9979 L14.0465,30.9979 Z M15.7649,31.1743 L15.7586,29.2549 L16.5749,29.2522 C16.7799,29.2514 16.9292,29.2684 17.0223,29.3024 C17.1157,29.3365 17.1901,29.3975 17.2462,29.4854 C17.3024,29.5736 17.3309,29.6741 17.3313,29.7876 C17.3317,29.9319 17.2901,30.0508 17.206,30.145 C17.1219,30.2391 16.9961,30.2985 16.8281,30.3236 C16.9119,30.372 16.9809,30.4254 17.0351,30.4838 C17.0898,30.5421 17.1635,30.646 17.256,30.7949 L17.4913,31.1685 L17.028,31.1701 L16.7487,30.7519 C16.6485,30.6035 16.5799,30.5099 16.5427,30.4711 C16.5059,30.4328 16.467,30.4061 16.4258,30.3919 C16.3842,30.3778 16.319,30.3709 16.2296,30.3712 L16.151,30.3715 L16.1537,31.173 L15.7649,31.1743 L15.7649,31.1743 Z M16.15,30.0658 L16.4368,30.0648 C16.6227,30.0642 16.7383,30.0558 16.7848,30.04 C16.8307,30.0243 16.8673,29.9969 16.893,29.9583 C16.9193,29.9198 16.9321,29.8715 16.9319023,29.8139 C16.9317,29.7491 16.9141,29.6973 16.8795,29.6572 C16.845,29.6176 16.7962,29.5927 16.7337,29.5827 C16.7019,29.5783 16.6076,29.5764 16.4508,29.5769 L16.1483,29.578 L16.15,30.0658 L16.15,30.0658 Z M18.0785,31.0909 L17.1959,29.2532 L17.6137,29.2096 L18.2462,30.572 L18.5637,29.1103 L18.9743,29.0674 L18.4948,31.0474 L18.0785,31.0909 Z M20.7983,30.6006 L20.3883,30.6855 L20.1374,30.2912 L19.3836,30.4472 L19.316,30.9074 L18.9134,30.9908 L19.2542,28.9601 L19.6562,28.8769 L20.7983,30.6006 L20.7983,30.6006 Z M19.9483,29.999 L19.5431,29.3574 L19.4333,30.1056 L19.9483,29.999 Z M21.1458,30.4334 L20.5958,28.9362 L20.0624,29.1322 L19.9506,28.8277 L21.3798,28.3026 L21.4917,28.6071 L20.9607,28.8021 L21.5107,30.2994 L21.1458,30.4334 L21.1458,30.4334 Z M21.6929,29.2412 C21.6079,29.0649 21.563,28.904 21.558,28.7586 C21.5545,28.6517 21.5702,28.5464 21.6044,28.4436 C21.6387,28.3407 21.6881,28.2529 21.7525,28.1797 C21.8384,28.0822 21.9518,27.9993 22.0926,27.9314 C22.3478,27.8083 22.5896,27.7895 22.8193,27.8736 C23.0486,27.9585 23.2313,28.1418 23.3673,28.4239 C23.5021,28.7036 23.5317,28.9592 23.456,29.1901 C23.3806,29.4214 23.2154,29.5983 22.9614,29.7208 C22.7042,29.8448 22.4616,29.8651 22.2339,29.7809 C22.0065,29.6971 21.8261,29.5173 21.6929,29.2412 L21.6929,29.2412 Z M22.0471,29.056 C22.1416,29.252 22.2587,29.3786 22.3982,29.4363 C22.5374,29.4937 22.677,29.4889 22.8162,29.4217 C22.9559,29.3544 23.0459,29.249 23.0873,29.1055 C23.1282,28.9618 23.1002,28.7898 23.0034,28.5889 C22.9077,28.3905 22.7929,28.2633 22.6586,28.208 C22.5245,28.1522 22.3855,28.1592 22.241,28.2289 C22.0969,28.2984 22.0045,28.4039 21.9639,28.545 C21.9235,28.6865 21.951,28.8568 22.0471,29.056 L22.0471,29.056 Z M23.9878,29.1545 L22.9143,27.5632 L23.5911,27.1067 C23.7611,26.9921 23.8946,26.923 23.9908,26.8995 C24.0874,26.8759 24.1832,26.8851 24.2787,26.9269 C24.3744,26.9689 24.454,27.0366 24.5175,27.1306 C24.5982,27.2503 24.6298,27.3722 24.6123,27.4973 C24.5948,27.6223 24.5233,27.7417 24.3978,27.856 C24.4943,27.8496 24.5813,27.8556 24.6589,27.8739 C24.7368,27.8919 24.8558,27.9372 25.0155,28.0095 L25.419,28.189 L25.0349,28.4481 L24.5701,28.2561 C24.4043,28.1884 24.2952,28.1489 24.2427,28.1374 C24.1909,28.126 24.1436,28.1255 24.1015,28.1367 C24.0591,28.148 24.001,28.1786 23.927,28.2286 L23.8618,28.2726 L24.31,28.937 L23.9878,29.1545 L23.9878,29.1545 Z M23.6908,28.0192 L23.9287,27.8588 C24.0827,27.7548 24.1742,27.6835 24.2039,27.6445 C24.2333,27.6058 24.2485041,27.5628 24.2485041,27.5164 C24.2488,27.4698 24.2326,27.4226 24.2003,27.3747 C24.1641,27.3211 24.1207,27.2878 24.0696,27.2737 C24.0189,27.26 23.9646,27.2665 23.907,27.2929 C23.8781,27.307 23.7988,27.3579 23.6687,27.4456 L23.418,27.6147 L23.6908,28.0192 L23.6908,28.0192 Z M25.836,27.8246 L25.3224,27.2011 L24.0724,26.7904 L24.4232,26.5015 L25.2567,26.7996 L25.1147,25.932 L25.4589,25.6485 L25.6241,26.956 L26.136,27.5775 L25.836,27.8246 L25.836,27.8246 Z M26.4067,26.06 C26.2558,25.9353 26.1479,25.8079 26.0826,25.6779 C26.0347,25.5821 26.005,25.4799 25.9932,25.3722 C25.9814,25.2644 25.9896,25.164 26.0176,25.0706 C26.055,24.9461 26.1233,24.8235 26.223,24.7029 C26.4034,24.4846 26.6153,24.3665 26.8591,24.3471 C27.103,24.3284 27.3454,24.4187 27.5869,24.6183 C27.8262,24.8161 27.9597,25.036 27.9874,25.2775 C28.0154,25.5192 27.9392,25.7489 27.7595,25.9661 C27.5776,26.1862 27.3656,26.306 27.1236,26.3245 C26.882,26.3433 26.6429,26.2553 26.4067,26.06 Z M26.6512,25.7439 C26.8189,25.8825 26.9781,25.9487 27.129,25.9429 C27.2795,25.9368 27.4042,25.8742 27.5027,25.7551 C27.6016,25.6355 27.6393,25.5022 27.6171,25.3545 C27.5942,25.2069 27.4969,25.0622 27.3251,24.9201 C27.1553,24.7798 26.9978,24.7122 26.8527,24.718 C26.7076,24.7233 26.5842,24.7877 26.482,24.9113 C26.3801,25.0346 26.3402,25.1692 26.3622,25.3143 C26.3846,25.4597 26.4807,25.603 26.6512,25.7439 Z M28.451,25.0218 L26.8609,23.9468 L27.5995,22.854 L27.8683,23.0357 L27.3473,23.8064 L27.7249,24.0616 L28.1753,23.3953 L28.444,23.577 L27.9936,24.2433 L28.6688,24.6997 L28.451,25.0218 Z M29.6016,23.1838 L27.8328,22.4384 L28.0589,21.9018 L29.3989,22.0932 L28.3246,21.2715 L28.5511,20.7338 L30.3199,21.4792 L30.1804,21.8102 L28.7874,21.2246 L30.033,22.1602 L29.8879,22.5043 L28.3491,22.2647 L29.7411,22.8527 L29.6016,23.1838 L29.6016,23.1838 Z M28.5797,20.6983 L28.6756,20.3215 L29.6836,20.5782 C29.8438,20.619 29.9485,20.6406 29.998,20.6436 C30.0783,20.6469 30.1493,20.6249 30.2104,20.5768 C30.2721,20.5285 30.3159,20.4524 30.3423,20.3486 C30.3691,20.2433 30.3678,20.1582 30.3377,20.0933 C30.3076,20.0285 30.2626,19.9829 30.2017,19.9559 C30.1408,19.9288 30.037,19.8964 29.8898,19.8589 L28.8602,19.5968 L28.9561,19.2201 L29.9342,19.4691 C30.1576,19.526 30.3131,19.5762 30.4001,19.62 C30.4872,19.6639 30.5556,19.721 30.6054,19.7917 C30.6553,19.862 30.687,19.9475 30.7015,20.0481 C30.7159,20.149 30.7047,20.2726 30.6673,20.4193 C30.6223,20.5964 30.5677,20.7255 30.5033,20.8063 C30.4389,20.8872 30.3673,20.946 30.2879,20.9825 C30.2085,21.019 30.1313,21.0362 30.0547,21.0346 C29.9419,21.0322 29.7812,21.0042 29.5729,20.9512 L28.5797,20.6983 Z M30.2613,19.3615 L30.2801,18.9821 C30.4085,18.9783 30.5068,18.9469 30.5758,18.8872 C30.6448,18.8276 30.6878,18.7395 30.7051,18.6233 C30.7235,18.5005 30.7114,18.4038 30.6685,18.3337 C30.6257,18.2635 30.5694,18.2231 30.4996,18.2126 C30.4545,18.2059 30.4146,18.2135 30.3789,18.2348 C30.3435,18.2561 30.3093,18.298 30.2765,18.36 C30.2539,18.4022 30.2113,18.4998 30.1478,18.6529 C30.0659,18.8498 29.9816,18.9841 29.8946,19.0555 C29.7725,19.1561 29.6362,19.1949 29.4855,19.1723 C29.3887,19.1579 29.3017,19.1168 29.2255,19.0499 C29.1493,18.9824 29.097,18.8942 29.0682,18.7846 C29.0394,18.675 29.0358,18.548 29.0576,18.4022 C29.0931,18.1649 29.1725,17.9938 29.296,17.8898 C29.4196,17.7854 29.5695,17.7437 29.7467,17.7639 L29.7025,18.1503 C29.6019,18.152 29.5265,18.1764 29.4756,18.2234 C29.4248,18.2705 29.3911,18.3477 29.3751,18.4547 C29.3586,18.5651 29.3686,18.6552 29.4052,18.7244 C29.4288,18.769 29.4651,18.7952 29.5146,18.8026 C29.5597,18.8094 29.6009,18.7961 29.6384,18.7628 C29.6867,18.7208 29.7466,18.6101 29.8187,18.4306 C29.8903,18.2511 29.9568,18.1206 30.0169,18.0388 C30.0775,17.9566 30.152,17.8963 30.2413,17.8582 C30.3306,17.82 30.4351,17.81 30.5549,17.8279 C30.6636,17.8441 30.7612,17.8895 30.8471,17.9642 C30.9331,18.0389 30.991,18.1348 31.0204,18.2522 C31.0503,18.3696 31.0527,18.5109 31.028,18.6757 C30.9921,18.9156 30.9094,19.0916 30.7792,19.2037 C30.6495,19.3157 30.4767,19.368 30.2613,19.3615 L30.2613,19.3615 Z M31.1115,17.6547 L29.1942,17.5639 L29.2126,17.1757 L31.1299,17.2665 L31.1115,17.6547 Z M30.4377,15.7341 L30.5518,15.3583 C30.7632,15.4152 30.9204,15.5108 31.0236,15.6445 C31.1264,15.7782 31.1783,15.9478 31.1790055,16.1538 C31.1798,16.4089 31.0934,16.6188 30.9197,16.7838 C30.746,16.9483 30.5082,17.0313 30.2056,17.0324109 C29.8862,17.0335 29.6375,16.9516 29.46,16.7873 C29.2826,16.623 29.1933,16.4062 29.1923947,16.1371 C29.1917,15.9022 29.2608,15.7111 29.3993,15.5641 C29.4811,15.4763 29.5989,15.4107 29.7529,15.3664 L29.8453,15.7494 C29.7462,15.7725 29.6677,15.8201 29.6103,15.8923 C29.5529,15.9648 29.5246,16.0525 29.5249,16.1553 C29.5254,16.2978 29.5767,16.4134 29.6794,16.5015 C29.7815,16.5901 29.947,16.6337 30.1757,16.633 C30.4179,16.6321 30.5907,16.5878 30.6932,16.5004 C30.7961,16.4125 30.8471,16.2988 30.8466,16.1589 C30.8463,16.0557 30.8134,15.9669 30.7474,15.893 C30.6815,15.819 30.5786,15.7657 30.4377,15.7341 L30.4377,15.7341 Z" id="形状"></path>
            </g>
        </g>
    </g>
</svg>